{"glyphs":{"0":{"ha":556,"x_min":3,"x_max":515,"o":"m 444 133 q 386 28 424 81 q 268 -22 349 -26 q 114 43 172 -11 q 29 203 56 97 q 11 410 3 308 q 119 792 31 615 q 128 807 121 794 q 138 823 135 819 q 147 837 140 826 q 159 851 154 847 q 172 860 164 854 q 188 869 179 867 q 208 872 197 871 q 215 878 215 872 q 292 913 249 918 q 411 857 372 903 q 458 783 443 825 q 511 452 515 622 q 444 133 507 282 m 254 32 q 346 119 306 38 q 403 315 386 201 q 416 558 419 429 q 385 776 413 686 q 347 843 375 814 q 314 857 332 860 q 288 835 296 854 q 228 715 235 733 q 157 403 160 533 q 165 221 150 313 q 254 32 185 101 z "},"1":{"ha":283,"x_min":-3,"x_max":236,"o":"m 190 22 q 214 6 194 17 q 235 -24 233 -4 l -3 -24 q 41 11 6 4 q 83 24 76 18 q 99 724 71 274 q 83 711 90 718 q 70 701 75 704 q 62 695 65 699 q 55 691 58 692 q 49 690 51 690 q 42 692 47 689 q 34 696 38 694 q 22 702 31 697 q 4 711 13 707 q 78 812 18 747 q 179 903 138 876 q 202 897 186 899 q 227 890 218 896 q 236 869 236 885 q 226 765 235 851 q 215 638 217 679 q 202 342 211 539 q 189 47 193 144 q 190 34 189 43 q 190 22 190 25 z "},"2":{"ha":604,"x_min":3,"x_max":574,"o":"m 186 619 q 124 617 157 588 q 77 676 83 649 q 92 751 71 703 q 180 863 122 822 q 294 913 238 903 q 408 914 351 922 q 520 827 467 906 q 550 689 574 749 q 443 485 506 585 q 291 264 381 386 q 164 86 201 142 q 278 96 208 90 q 374 103 349 101 q 488 10 443 108 q 406 8 457 13 q 313 -1 354 4 q 210 -16 272 -7 q 129 -28 147 -25 q 63 -7 93 -36 q 42 17 56 1 q 24 37 28 32 q 13 53 21 42 q 5 69 4 64 q 4 86 6 75 q 8 108 3 97 q 21 133 14 118 q 39 165 28 147 q 92 242 63 203 q 163 334 121 282 q 222 410 204 386 q 415 661 401 642 q 467 799 476 765 q 426 824 458 822 q 194 711 272 828 q 186 619 154 654 z "},"3":{"ha":561,"x_min":-7,"x_max":543,"o":"m 103 651 q 51 717 54 692 q 88 785 49 742 q 306 915 188 897 q 419 903 382 928 q 489 803 456 878 q 474 725 503 772 q 371 599 449 692 q 308 535 363 589 q 506 339 446 472 q 500 169 543 257 q 276 -24 435 17 q 124 -13 200 -46 q 8 90 47 19 q 6 139 -7 117 q 44 129 19 160 q 200 79 94 60 q 340 156 279 103 q 429 281 400 208 q 434 370 449 336 q 365 428 419 404 q 263 458 311 450 q 245 463 253 460 q 231 470 238 465 q 219 478 224 475 q 208 490 215 482 q 200 501 201 499 q 192 515 199 504 q 183 528 185 526 q 183 550 175 535 q 197 573 190 565 q 215 593 203 581 q 229 608 226 606 q 361 747 310 689 q 376 766 371 758 q 390 787 382 774 q 397 806 397 800 q 396 819 397 811 q 380 826 394 828 q 344 822 365 825 q 220 763 288 811 q 103 651 153 715 z "},"4":{"ha":597,"x_min":-10,"x_max":564,"o":"m 496 -25 q 403 -24 428 -42 q 371 58 379 -7 q 366 147 367 104 q 367 245 365 190 q 368 326 368 300 q 308 320 350 332 q 219 290 267 308 q 160 268 172 271 q 55 303 104 264 q -3 394 6 343 q 27 519 -10 440 q 126 702 64 599 q 210 858 188 806 q 236 895 226 892 q 275 878 246 899 q 307 835 304 858 q 292 774 310 811 q 238 672 272 736 q 184 569 204 607 q 139 480 164 532 q 96 383 114 428 q 131 347 76 344 q 321 396 167 350 q 368 407 357 406 q 380 563 374 460 q 394 750 386 665 q 415 900 403 835 q 497 915 432 932 q 563 853 561 897 q 563 806 564 831 q 528 375 551 649 q 496 -25 506 101 z "},"5":{"ha":629,"x_min":-8,"x_max":597,"o":"m 44 861 q 453 918 239 976 q 503 888 489 908 q 519 824 518 867 q 193 818 353 863 q 181 694 189 775 q 168 569 172 613 q 194 576 175 571 q 222 584 214 582 q 246 590 229 586 q 271 594 263 593 q 294 597 279 594 q 319 598 308 599 q 342 595 329 597 q 368 590 356 593 q 538 459 478 561 q 554 249 597 357 q 385 31 507 113 q 146 -3 239 -68 q 36 81 117 15 q 18 153 1 115 q 50 147 28 167 q 89 100 72 126 q 128 67 107 78 q 165 56 149 57 q 208 66 182 56 q 247 83 233 76 q 288 108 260 90 q 465 339 425 192 q 456 460 478 399 q 378 519 435 521 q 160 442 243 513 q 67 438 121 411 q 21 519 8 463 q 49 706 35 642 q 33 792 60 761 q 44 861 -8 833 z "},"6":{"ha":533,"x_min":-36,"x_max":521,"o":"m 206 628 q 397 587 318 640 q 492 424 476 533 q 372 26 521 203 q 282 -33 331 -26 q 172 -7 233 -40 q 8 231 26 72 q 217 879 -36 600 q 425 869 326 1000 q 400 850 438 850 q 286 773 346 854 q 206 628 226 692 m 314 122 q 394 463 426 288 q 363 539 386 513 q 311 566 340 565 q 251 553 282 567 q 194 514 221 540 q 119 308 135 457 q 147 85 104 158 q 203 42 171 43 q 262 63 235 40 q 314 122 289 86 z "},"7":{"ha":554,"x_min":-22,"x_max":514,"o":"m 64 826 q 126 849 85 833 q 194 875 168 865 q 258 897 221 885 q 328 915 296 908 q 444 893 396 925 q 508 796 492 861 q 501 736 514 772 q 449 642 478 685 q 326 456 443 633 q 293 403 308 432 l 354 336 q 294 331 301 331 q 229 290 250 335 q 111 -19 142 99 q 72 -3 89 -12 q 44 21 54 7 q 27 46 35 35 q 19 77 19 57 q 19 110 19 97 q 27 147 19 122 q 39 185 35 172 q 56 228 43 199 q 75 269 69 257 q 96 314 81 282 q 3 328 38 293 q -1 372 -21 353 q 42 385 13 385 q 132 390 54 385 q 354 722 214 524 q 388 781 379 757 q 392 816 396 806 q 374 828 388 826 q 313 817 349 831 q 244 786 278 803 q 177 756 211 769 q 112 747 143 743 q 57 778 81 750 q 35 810 32 806 q 64 826 36 813 z "},"8":{"ha":644,"x_min":-8,"x_max":617,"o":"m 335 339 q 460 240 433 271 q 450 82 531 161 q 271 -21 411 42 q 53 18 164 -69 q 1 146 -8 69 q 100 354 19 251 l 132 394 q 55 511 76 456 q 51 636 33 567 q 190 836 83 744 q 407 939 297 928 q 551 878 486 949 q 606 728 617 808 q 583 646 600 688 q 553 578 567 604 q 501 508 539 551 q 451 452 464 465 q 390 392 439 439 q 335 339 340 344 m 232 407 q 287 455 244 418 q 347 508 329 492 q 394 553 364 524 q 444 609 424 583 q 483 664 465 635 q 516 735 503 696 q 526 812 529 774 q 493 860 522 850 q 328 828 417 890 q 181 672 240 765 q 147 598 158 639 q 135 517 135 557 q 160 446 135 476 q 232 407 185 415 m 258 319 q 160 169 199 250 q 129 46 122 88 q 266 74 192 43 q 381 151 340 106 q 404 199 403 176 q 386 241 406 222 q 348 272 367 260 q 298 299 329 283 q 258 319 267 314 z "},"9":{"ha":557,"x_min":-7,"x_max":528,"o":"m 224 43 q 310 76 274 25 q 341 188 328 106 q 363 367 354 269 q 376 488 372 465 q 246 299 267 324 q 157 260 204 253 q 76 283 132 263 q 13 358 32 304 q -7 469 -7 411 q 76 738 0 613 q 271 904 153 863 q 415 890 347 936 q 476 846 460 854 q 521 764 528 826 q 513 619 517 714 q 507 489 510 525 q 504 417 506 467 q 457 71 494 167 q 292 -33 407 -64 q 199 3 236 -18 q 178 28 182 13 q 187 50 175 44 q 224 43 199 56 m 401 810 q 251 751 329 835 q 136 539 172 668 q 138 315 100 410 q 229 378 167 290 q 344 595 292 465 q 401 810 397 725 z "},"\u0000":{"ha":0,"x_min":0,"x_max":0,"o":""},"\r":{"ha":418,"x_min":0,"x_max":0,"o":""}," ":{"ha":418,"x_min":0,"x_max":0,"o":""},"!":{"ha":308,"x_min":25,"x_max":278,"o":"m 113 1001 q 156 1028 122 1032 q 256 1001 235 1018 q 264 933 278 983 q 164 236 211 635 q 163 213 163 225 q 163 194 163 200 q 161 181 163 188 q 158 173 160 175 q 151 169 157 171 q 139 167 146 167 q 121 168 132 167 q 40 219 42 178 q 64 658 36 375 q 113 1001 92 942 m 101 -18 q 68 -10 74 -12 q 33 26 42 0 q 42 75 25 53 q 136 78 64 97 q 147 69 143 76 q 153 56 151 63 q 155 37 154 49 q 156 21 156 25 q 101 -18 156 -18 z "},"\"":{"ha":378,"x_min":118,"x_max":324,"o":"m 208 951 q 176 869 199 910 q 138 832 153 828 q 119 885 121 838 q 129 971 118 932 q 151 1010 138 1006 q 181 1007 164 1015 q 190 1006 183 1007 q 198 1003 196 1004 q 204 999 200 1001 q 210 994 208 997 q 213 985 211 990 q 213 971 214 979 q 208 951 211 963 m 318 951 q 285 869 308 910 q 247 832 263 828 q 229 885 231 838 q 239 971 228 932 q 260 1010 247 1006 q 290 1007 274 1015 q 299 1006 293 1007 q 308 1003 306 1004 q 314 999 310 1001 q 319 994 318 997 q 322 985 321 990 q 322 971 324 979 q 318 951 321 963 z "},"#":{"ha":853,"x_min":10,"x_max":772,"o":"m 772 485 l 633 485 q 606 376 624 453 q 655 371 619 372 q 710 358 690 369 q 736 311 729 346 q 664 309 713 311 q 589 306 615 307 q 506 -78 542 101 q 429 -69 454 -75 q 403 -25 400 -64 q 421 274 404 88 q 361 275 378 282 q 324 229 344 268 q 222 43 271 133 q 199 13 211 21 q 165 10 188 4 q 121 28 131 18 q 110 69 111 39 q 110 117 110 92 q 110 173 110 142 q 110 222 110 204 q 10 265 32 199 q 73 301 25 289 q 132 318 121 313 q 141 356 133 325 q 153 408 149 388 q 97 392 132 410 q 46 356 61 374 q 27 385 33 371 q 17 409 21 399 q 17 428 14 419 q 22 443 19 438 q 35 455 24 449 q 51 464 46 461 q 73 471 57 467 q 96 476 89 475 q 122 481 103 478 q 147 486 140 485 q 197 531 182 492 q 256 665 221 597 q 285 697 272 694 q 328 681 299 700 q 349 666 332 678 q 375 647 365 654 q 329 529 353 593 q 381 535 346 532 q 433 542 417 539 q 469 569 446 543 q 525 642 489 594 q 568 697 561 689 q 603 734 594 731 q 647 721 613 738 q 677 697 672 707 q 675 654 682 686 q 669 624 672 640 q 660 588 665 608 q 653 554 656 567 q 697 548 664 550 q 747 533 729 546 q 772 485 764 519 m 390 458 q 353 455 374 457 q 328 453 333 453 q 290 421 296 450 q 265 338 289 413 q 289 344 274 340 q 313 352 304 349 q 325 361 321 356 q 360 413 338 376 q 390 458 383 449 m 471 458 q 406 367 465 450 q 450 378 442 367 q 471 458 458 389 z "},"$":{"ha":696,"x_min":-17,"x_max":651,"o":"m 313 14 q 312 -5 313 6 q 310 -28 311 -15 q 308 -49 308 -42 q 256 -40 264 -47 q 240 11 249 -33 q 53 108 122 26 q 38 164 21 143 q 93 147 56 185 q 119 128 106 135 q 151 119 133 121 q 181 116 168 117 q 215 116 193 115 q 244 117 236 117 q 274 376 263 289 q 221 363 243 369 q 189 352 199 356 q 174 349 179 349 q 41 385 99 325 q 3 511 -17 446 q 138 745 42 644 q 360 889 235 846 q 407 932 397 903 q 443 1028 411 943 q 504 989 450 1024 q 482 915 489 942 q 535 885 510 901 q 587 847 560 869 q 627 799 614 824 q 646 745 640 775 q 633 685 651 715 q 543 568 604 619 q 490 596 500 572 q 492 651 479 619 q 518 713 504 682 q 528 765 532 744 q 492 786 525 786 q 422 725 432 783 q 395 593 417 690 q 365 450 374 496 q 455 451 422 458 q 518 407 488 443 q 571 284 563 353 q 550 176 579 215 q 361 29 494 85 q 313 14 325 18 m 336 717 q 92 449 179 640 q 125 415 74 414 q 257 438 144 415 q 279 440 274 440 q 297 528 288 482 q 317 629 306 574 q 336 717 329 685 m 321 143 q 467 239 419 178 q 500 333 506 293 q 452 392 494 374 q 357 393 410 410 q 321 143 354 360 z "},"%":{"ha":833,"x_min":1,"x_max":772,"o":"m 272 -3 q 208 43 217 26 q 214 113 200 60 q 349 477 257 286 q 589 914 442 668 q 690 899 621 968 q 710 872 708 882 q 699 842 711 863 q 469 413 588 665 q 307 28 351 160 q 299 8 303 14 q 289 -4 296 1 q 272 -3 282 -10 m 1 628 q 10 667 6 657 q 121 858 53 782 q 170 890 150 889 q 226 867 190 892 q 290 819 265 842 q 335 714 343 775 q 210 522 310 600 q 108 511 160 489 q 56 538 67 531 q 1 628 4 563 m 128 596 q 219 688 193 626 q 215 800 246 749 q 128 596 146 682 m 446 113 q 536 279 454 208 q 617 304 565 304 q 701 282 668 304 l 735 257 q 763 186 772 228 q 657 22 733 85 q 598 -6 622 -3 q 535 13 574 -8 q 482 47 510 28 q 446 113 446 68 m 624 81 q 688 171 667 113 q 664 231 708 232 q 658 231 661 231 q 640 221 649 226 q 625 206 632 215 q 614 193 618 197 q 604 176 610 189 q 597 160 599 164 q 590 141 596 157 q 585 124 585 125 q 582 76 574 93 q 624 81 590 60 z "},"&":{"ha":996,"x_min":-44,"x_max":919,"o":"m 185 421 q 135 649 129 539 q 207 839 142 756 q 372 950 272 922 q 551 928 461 974 q 667 800 640 883 q 667 702 681 751 q 617 607 654 653 q 544 526 579 561 q 456 446 508 490 q 383 379 404 401 q 557 158 478 232 q 628 278 604 204 q 629 418 651 353 q 564 381 600 408 q 517 328 528 354 q 475 365 492 349 q 471 422 447 392 q 808 533 590 553 q 919 447 890 529 q 799 453 843 454 q 682 440 756 451 q 633 100 771 269 q 701 37 664 63 q 794 -16 739 11 q 868 -54 849 -43 q 821 -72 864 -78 q 575 38 682 -44 q 103 -7 351 -136 q 19 207 -44 71 q 64 280 38 244 q 130 359 90 315 q 185 421 169 403 m 481 86 q 286 276 390 154 q 267 253 282 271 q 248 228 253 235 q 231 206 243 221 q 213 182 219 190 q 198 159 207 174 q 183 134 189 144 q 171 110 178 124 q 160 83 164 96 q 167 19 149 44 q 225 -8 185 -6 q 481 86 361 -10 m 314 533 q 343 558 322 540 q 379 588 364 575 q 417 622 394 601 q 457 661 440 643 q 492 701 474 679 q 521 745 510 724 q 540 789 532 767 q 546 833 547 811 q 535 876 544 856 q 446 872 518 917 q 318 732 367 822 q 314 533 254 614 z "},"'":{"ha":251,"x_min":94,"x_max":190,"o":"m 185 951 q 152 869 175 910 q 114 832 129 828 q 96 885 97 838 q 106 971 94 932 q 127 1010 114 1006 q 157 1007 140 1015 q 166 1006 160 1007 q 174 1003 172 1004 q 181 999 176 1001 q 186 994 185 997 q 189 985 188 990 q 189 971 190 979 q 185 951 188 963 z "},"(":{"ha":356,"x_min":-14,"x_max":438,"o":"m 282 -68 q 98 62 167 -26 q 13 258 29 150 q 58 667 -14 444 q 265 1003 129 889 q 337 1030 294 1028 q 408 1015 379 1032 q 438 976 438 999 q 242 722 314 876 q 154 396 171 567 q 154 243 149 322 q 194 77 160 164 q 289 -40 228 -10 q 310 -56 304 -47 q 308 -69 315 -65 q 282 -68 301 -72 z "},")":{"ha":471,"x_min":-21,"x_max":431,"o":"m 135 1024 q 319 894 250 982 q 404 697 388 806 q 359 289 431 511 q 151 -47 288 67 q 80 -74 122 -72 q 8 -60 38 -76 q -21 -21 -21 -43 q 174 234 103 79 q 263 560 246 389 q 263 713 268 633 q 223 878 257 792 q 128 996 189 965 q 107 1012 113 1003 q 108 1024 101 1021 q 135 1024 115 1028 z "},"*":{"ha":557,"x_min":54,"x_max":474,"o":"m 318 807 q 348 817 325 810 q 383 828 371 825 q 431 835 419 839 q 474 794 442 831 q 390 753 446 781 q 304 710 333 725 q 413 567 374 617 q 358 581 381 567 q 314 620 336 596 q 275 654 292 644 q 251 542 251 547 q 241 513 247 517 q 213 517 235 508 q 175 538 182 526 q 172 581 168 549 q 174 599 172 585 q 176 628 175 614 q 142 598 168 621 q 103 564 117 575 q 59 610 64 582 q 78 656 54 638 q 200 751 100 678 q 179 778 196 757 q 154 813 163 799 q 142 869 114 872 q 213 825 171 868 l 222 815 q 253 892 235 838 q 292 971 272 947 q 344 942 338 953 q 339 888 350 931 q 318 807 331 864 z "},"+":{"ha":561,"x_min":32,"x_max":479,"o":"m 479 310 q 301 292 378 299 q 253 158 265 199 q 185 193 194 175 q 186 289 176 211 q 146 287 174 289 q 102 285 118 285 q 65 297 86 286 q 32 333 44 308 q 124 357 63 353 q 206 368 185 361 q 224 416 207 371 q 260 481 242 461 q 324 442 313 463 q 329 367 336 422 q 408 365 382 367 q 479 310 442 361 z "},",":{"ha":210,"x_min":56,"x_max":157,"o":"m 156 60 q 153 31 157 51 q 124 -42 144 -6 q 90 -76 103 -79 q 76 -50 72 -72 q 78 18 85 -4 q 56 58 56 32 q 70 94 56 81 q 106 108 85 108 q 140 94 126 108 q 156 60 154 81 z "},"-":{"ha":514,"x_min":1,"x_max":433,"o":"m 351 286 q 90 285 264 285 q 35 310 64 285 q 53 343 1 338 q 64 344 58 344 q 311 358 256 357 q 383 349 357 358 q 431 313 408 339 q 431 298 433 303 q 410 290 428 293 q 380 287 392 288 q 351 286 368 286 z "},".":{"ha":201,"x_min":42,"x_max":142,"o":"m 142 49 q 126 13 142 28 q 92 -1 111 -1 q 56 13 71 -1 q 42 49 42 28 q 56 83 42 68 q 92 99 71 99 q 126 83 111 99 q 142 49 142 68 z "},"/":{"ha":519,"x_min":-3,"x_max":490,"o":"m 464 1008 q 489 971 488 992 q 474 915 490 950 q 160 158 325 592 q 131 85 149 133 q 106 17 113 36 q 82 -19 93 -15 q 36 -11 71 -24 q 0 24 3 -6 q 7 83 -3 53 q 162 581 35 279 q 396 1000 289 882 q 428 1026 418 1025 q 464 1008 439 1028 z "},":":{"ha":267,"x_min":58,"x_max":199,"o":"m 186 151 q 167 106 186 125 q 122 88 147 88 q 76 106 94 88 q 58 151 58 125 q 77 196 58 176 q 122 215 96 215 q 167 196 147 215 q 186 151 186 176 m 199 368 q 179 323 199 342 q 135 304 160 304 q 90 323 108 304 q 71 368 71 342 q 90 413 71 393 q 135 432 108 432 q 179 413 160 432 q 199 368 199 393 z "},";":{"ha":267,"x_min":56,"x_max":199,"o":"m 199 368 q 179 323 199 342 q 135 304 160 304 q 90 323 108 304 q 71 368 71 342 q 90 413 71 393 q 135 432 108 432 q 179 413 160 432 q 199 368 199 393 m 181 94 q 176 58 182 83 q 140 -33 165 13 q 99 -75 114 -79 q 85 -65 92 -74 q 82 -43 79 -56 q 83 43 90 19 q 56 93 56 58 q 74 138 56 119 q 118 156 92 156 q 162 138 144 156 q 181 94 179 121 z "},"<":{"ha":557,"x_min":11,"x_max":488,"o":"m 128 242 q 248 197 161 231 q 364 154 335 163 q 444 81 426 133 q 431 74 438 74 q 283 118 392 83 q 136 161 175 153 q 31 231 74 175 q 18 283 11 256 q 42 331 25 310 q 85 365 60 351 q 400 594 222 467 q 453 583 429 614 l 474 561 q 486 529 488 540 q 465 504 485 518 q 317 388 442 485 q 128 242 192 292 z "},"=":{"ha":517,"x_min":-12,"x_max":446,"o":"m 364 374 q 103 372 276 372 q 47 397 76 372 q 65 431 14 425 q 76 432 71 432 q 324 446 268 444 q 395 436 369 446 q 443 400 421 426 q 443 385 446 390 q 422 378 440 381 q 392 374 404 375 q 364 374 381 374 m 338 250 q 76 249 250 249 q 21 274 50 249 q 39 307 -12 301 q 50 308 44 308 q 297 322 242 321 q 369 313 343 322 q 417 276 394 303 q 417 262 419 267 q 396 254 414 257 q 366 251 378 251 q 338 250 354 250 z "},">":{"ha":590,"x_min":-6,"x_max":535,"o":"m 422 340 q 319 417 394 360 q 219 490 244 475 q 163 583 164 529 q 178 586 172 589 q 308 503 214 567 q 436 421 401 440 q 518 324 493 390 q 505 253 535 283 q 429 210 475 222 q 63 78 213 131 q 15 103 29 67 l 1 131 q -1 164 -6 154 q 25 182 3 174 q 221 260 88 207 q 422 340 354 313 z "},"?":{"ha":699,"x_min":13,"x_max":667,"o":"m 190 825 q 133 749 153 793 q 133 672 114 706 q 154 649 140 658 q 116 624 128 625 q 79 639 104 622 q 22 728 31 672 q 36 838 13 785 q 100 925 60 890 q 461 1017 260 1068 q 651 808 596 982 q 631 697 667 763 q 532 601 600 664 q 414 489 464 538 q 308 356 364 440 q 222 176 253 271 q 139 215 203 114 q 135 221 136 218 q 153 384 108 296 q 267 532 199 472 q 326 583 283 547 q 408 654 369 619 q 475 722 447 689 q 497 890 582 850 q 308 885 431 921 q 190 825 231 863 m 176 -18 q 143 -10 149 -12 q 108 26 117 0 q 117 75 100 53 q 211 78 139 97 q 222 69 218 76 q 228 56 226 63 q 230 37 229 49 q 231 21 231 25 q 176 -18 231 -18 z "},"@":{"ha":815,"x_min":-22,"x_max":757,"o":"m 658 168 q 692 142 681 157 q 701 113 703 126 q 697 91 700 100 q 689 78 693 82 q 558 -30 646 29 q 396 -111 469 -89 q 119 -51 265 -153 q 13 84 47 -3 q -18 266 -22 171 q 23 456 -14 361 q 119 619 60 550 q 263 720 178 689 q 442 724 349 751 q 668 596 579 699 q 728 365 757 493 q 613 169 704 257 q 538 132 578 138 q 466 151 499 126 q 422 228 433 176 q 349 113 360 126 q 340 102 347 111 q 330 91 332 93 q 322 82 328 89 q 311 73 315 75 q 300 68 307 71 q 286 66 293 65 q 272 69 279 67 q 231 85 244 79 q 201 108 217 92 q 183 149 185 125 q 183 286 176 217 q 276 493 199 399 q 413 525 333 561 q 456 502 426 518 q 503 478 486 486 q 529 415 538 456 q 503 261 513 347 q 518 185 496 199 q 546 199 531 181 q 620 344 600 257 q 622 515 640 431 q 566 624 606 593 q 457 653 526 654 q 290 610 364 651 q 172 503 215 569 q 108 357 129 438 q 92 190 86 276 q 129 28 99 104 q 193 -51 153 -29 q 296 -62 233 -72 q 344 -49 318 -60 q 391 -29 369 -39 q 444 1 413 -19 q 492 33 475 22 q 542 71 508 44 q 585 106 575 97 q 626 142 594 114 l 658 168 m 453 425 q 320 317 376 410 q 276 140 264 224 q 453 425 349 232 z "},"A":{"ha":847,"x_min":-6,"x_max":924,"o":"m 650 364 q 706 350 707 369 q 664 321 706 332 l 635 315 q 617 0 606 171 q 667 -140 626 -147 q 708 -96 685 -136 q 826 190 785 33 q 835 240 831 207 q 842 282 840 272 q 850 324 847 307 q 897 306 869 317 q 921 269 924 296 q 913 197 914 201 q 828 -46 888 60 q 769 -132 801 -93 q 656 -189 715 -201 q 504 -86 526 -162 q 483 50 486 -26 q 483 174 479 126 q 496 301 486 222 q 219 133 347 261 q 178 -14 194 107 q 101 13 118 -14 q 89 100 68 67 q 143 233 115 144 q 179 342 171 322 q 381 761 279 599 q 408 801 386 771 q 446 865 454 864 q 442 864 444 865 q 298 760 382 836 q 153 591 214 683 q 113 446 92 499 q 107 426 121 426 q 83 433 93 426 q 18 501 42 457 q 3 586 -6 544 q 100 767 24 690 q 231 875 182 846 q 501 1025 282 907 q 556 1042 525 1038 q 589 1033 582 1044 q 609 1010 597 1021 q 630 994 621 1000 q 656 980 639 989 q 679 967 672 971 q 738 865 742 933 q 719 713 731 779 q 657 407 717 694 q 650 364 654 400 m 500 353 q 545 590 515 432 q 590 828 575 749 q 579 831 582 831 q 267 276 389 604 q 500 353 394 332 z "},"B":{"ha":931,"x_min":-8,"x_max":968,"o":"m 728 504 q 814 306 811 400 q 910 315 861 313 q 947 308 938 315 q 968 264 956 300 q 811 239 818 240 q 801 221 801 224 q 646 -17 768 81 q 379 -124 524 -114 q 358 -122 368 -124 q 340 -117 347 -119 q 323 -110 332 -115 q 308 -101 314 -104 q 294 -89 303 -97 q 282 -76 286 -81 q 269 -61 278 -72 q 258 -47 261 -50 q 247 -30 256 -43 q 236 -14 238 -17 q 258 36 250 19 q 217 151 217 69 q 219 358 207 236 q 258 640 231 479 q 290 844 285 800 q 250 794 282 833 q 202 733 218 754 q 160 667 186 711 q 121 585 133 622 q 99 494 108 549 q 90 383 89 440 q 88 358 92 361 q 64 365 85 354 q -8 489 -8 407 q 53 692 -7 592 q 354 992 154 864 q 470 985 403 1021 q 579 900 538 949 q 479 764 494 863 q 786 971 629 942 q 851 960 811 981 q 911 884 893 936 q 917 781 929 832 q 836 628 897 697 q 778 561 817 604 q 728 504 739 518 m 853 879 q 590 724 740 869 q 400 449 439 578 q 694 615 568 499 q 853 879 821 731 m 385 297 q 376 213 381 268 q 369 142 371 158 l 385 142 q 675 275 525 232 q 704 303 696 281 q 668 460 763 457 q 475 381 590 463 q 385 297 415 339 m 361 19 q 631 182 533 68 q 481 121 572 175 q 361 19 390 67 z "},"C":{"ha":821,"x_min":-25,"x_max":939,"o":"m 289 525 q 72 269 7 440 q 69 232 83 231 q 51 246 63 232 q -22 401 -19 332 q 26 512 -25 469 q 143 578 78 554 q 285 613 208 603 q 349 656 314 617 q 436 769 386 699 q 533 894 486 839 q 640 992 581 949 q 751 1053 686 1028 q 865 1028 817 1081 q 872 1018 868 1024 q 879 1010 876 1013 q 926 955 913 979 q 933 894 939 931 q 894 813 928 858 q 826 738 863 769 q 738 681 790 707 q 649 639 686 654 q 536 596 611 624 q 497 569 522 590 q 465 533 472 547 q 368 182 364 329 q 414 29 371 71 q 547 33 457 -12 q 833 308 676 97 q 874 283 861 297 q 881 251 886 269 q 867 218 875 232 q 840 178 860 204 q 583 -39 724 15 q 404 -18 492 -79 q 291 97 332 31 q 243 238 250 164 q 248 382 236 311 q 289 525 260 453 m 535 669 q 763 781 656 678 q 836 899 838 851 q 817 925 836 919 q 767 918 794 933 q 723 884 747 906 q 670 831 699 863 q 622 775 642 799 q 572 715 601 751 q 535 669 543 679 z "},"D":{"ha":1013,"x_min":-26,"x_max":1053,"o":"m 292 786 q 153 603 185 654 q 93 400 83 489 l 85 397 q -4 480 18 422 q 8 600 -26 538 q 56 667 33 647 q 167 776 108 718 q 299 905 226 835 q 411 1014 371 975 q 535 992 456 1050 q 596 919 589 953 q 589 903 597 907 q 550 895 564 907 q 521 856 536 883 q 451 614 460 749 q 733 942 611 872 q 846 924 793 975 q 936 726 935 840 q 900 406 940 572 q 886 342 894 389 q 969 344 931 344 q 1031 325 1008 343 q 1043 272 1053 307 q 1013 275 1038 272 q 978 278 989 278 q 944 279 967 279 q 908 276 921 279 q 878 268 894 274 q 853 252 863 263 q 838 226 843 242 q 700 8 790 99 q 529 -81 628 -64 q 260 63 351 -104 q 313 121 289 92 q 308 125 311 122 l 307 129 q 246 218 243 144 q 248 312 246 238 q 251 411 250 386 q 255 498 251 436 q 263 596 258 560 q 274 685 267 632 q 292 786 282 738 m 719 790 q 396 231 475 529 q 385 164 392 213 q 706 308 532 256 q 725 319 717 311 q 737 335 733 328 q 746 356 740 342 q 838 714 819 529 q 835 813 843 779 q 799 844 828 846 q 719 790 771 842 m 346 40 q 517 94 428 42 q 632 207 606 147 q 346 40 476 144 z "},"E":{"ha":821,"x_min":1,"x_max":882,"o":"m 361 531 q 546 568 465 546 q 594 572 583 576 q 628 535 606 568 q 639 511 629 533 q 599 481 604 483 q 535 435 581 467 q 465 386 489 404 q 324 196 372 313 q 329 24 272 71 q 518 32 382 -18 q 829 311 636 74 q 851 292 839 304 q 881 251 879 264 q 857 208 882 239 q 729 67 786 124 q 601 -28 672 11 q 406 -69 501 -90 q 263 19 339 -56 q 169 158 186 93 q 185 281 156 221 q 293 417 219 353 q 332 450 307 428 q 299 480 321 461 q 267 508 276 499 q 201 497 250 506 q 126 485 153 488 q 6 546 40 475 q 6 561 1 558 q 24 560 11 564 q 43 557 38 557 q 224 576 144 547 q 230 588 228 578 q 233 610 232 597 q 235 628 233 624 q 365 852 274 761 q 594 1007 456 943 q 667 1022 629 1022 q 736 1006 719 1022 q 839 879 779 963 q 842 853 850 871 q 824 822 835 836 q 796 792 814 808 q 767 766 778 775 q 746 750 756 757 q 357 539 586 635 l 361 531 m 407 631 q 576 711 446 639 q 740 826 707 783 q 744 874 756 844 q 704 906 733 903 q 571 832 654 899 q 485 741 538 804 q 407 631 432 678 z "},"F":{"ha":671,"x_min":10,"x_max":1219,"o":"m 1171 863 q 1040 938 1132 906 q 843 969 947 969 q 536 871 575 969 q 425 438 457 688 q 463 435 451 435 q 501 438 475 436 q 539 440 528 440 q 592 425 578 442 q 610 358 607 408 q 517 344 583 354 q 414 329 451 335 q 408 -100 388 133 q 300 -94 350 -125 q 247 -20 263 -74 q 233 88 232 33 q 233 202 235 142 q 218 290 231 263 q 203 292 210 290 q 191 299 197 294 q 181 307 185 304 q 170 318 176 310 q 163 328 164 326 q 155 342 161 331 q 147 354 149 353 q 167 396 128 385 q 218 410 181 403 q 267 648 233 482 q 313 871 300 814 q 222 820 268 863 q 149 723 176 778 q 119 610 122 668 q 157 515 115 553 q 172 458 193 479 q 125 461 153 442 q 121 465 124 464 q 19 638 31 544 q 72 819 10 736 q 146 885 104 856 q 210 926 188 915 q 295 962 233 938 q 369 992 357 986 q 443 1025 411 1004 q 510 1039 481 1049 q 592 1040 536 1032 q 986 1081 863 1086 q 1110 1056 1043 1079 q 1179 997 1157 1038 q 1214 890 1201 956 q 1204 855 1219 865 q 1171 863 1189 844 z "},"G":{"ha":889,"x_min":-29,"x_max":857,"o":"m 604 382 q 476 301 525 339 q 393 210 428 264 q 366 222 379 213 q 347 239 353 232 q 328 264 340 246 q 311 286 315 282 q 315 318 303 297 q 339 346 321 331 q 668 529 514 492 q 757 539 711 539 q 857 429 849 539 q 779 438 846 431 q 761 358 774 410 q 743 279 749 306 q 730 201 738 253 q 724 122 722 149 q 731 42 726 96 q 586 139 653 33 q 543 90 575 126 q 493 35 511 53 q 331 -72 419 -43 q 214 -61 267 -89 q 0 346 -29 64 q 125 679 17 514 q 356 921 228 828 q 475 986 408 963 q 657 942 581 1026 q 717 876 707 889 q 738 840 735 853 q 731 799 743 811 q 714 796 726 794 q 696 803 701 797 q 593 817 658 842 q 550 799 567 808 q 149 299 236 610 q 153 75 119 196 q 314 4 189 -57 q 513 190 414 54 q 604 382 593 301 z "},"H":{"ha":985,"x_min":-11,"x_max":986,"o":"m 172 128 q 122 167 131 149 q 131 197 113 185 q 174 215 150 208 q 232 228 199 222 q 333 857 232 601 q 240 749 301 835 q 133 562 179 664 q 104 414 88 460 q 101 394 110 400 q 79 392 92 389 q 6 451 22 410 q 8 546 -11 493 q 59 654 26 599 q 138 765 92 710 q 216 856 183 821 q 274 915 249 892 q 426 988 378 1014 q 484 954 446 975 q 538 924 522 933 q 571 890 558 907 q 561 814 601 847 q 460 625 478 746 q 424 275 428 447 q 674 297 621 292 q 681 363 679 339 q 768 744 700 586 q 846 888 794 814 q 883 919 865 917 q 925 903 900 922 q 961 878 939 896 q 986 857 983 860 q 854 290 885 639 q 883 281 865 285 q 908 271 901 278 q 919 244 915 264 l 853 244 q 861 -60 831 108 q 706 28 731 -97 q 689 141 699 58 q 678 233 679 224 q 422 199 611 231 q 435 -83 410 58 q 321 -74 367 -100 q 260 15 275 -47 q 252 81 257 26 q 243 153 247 135 q 212 142 236 150 q 172 128 188 135 z "},"I":{"ha":524,"x_min":-14,"x_max":528,"o":"m 310 890 q 164 666 217 818 q 156 422 111 514 q 110 419 135 397 q 24 501 50 472 q 4 624 -14 544 q 42 710 17 665 q 310 985 149 878 q 355 1003 336 1003 q 406 983 374 1004 q 451 953 418 974 q 501 919 485 933 q 517 861 528 894 q 443 307 439 614 l 447 28 q 397 -85 443 -42 q 285 -96 350 -128 q 204 -49 215 -58 q 210 -8 179 -25 q 242 18 229 3 q 259 56 254 33 q 265 94 264 79 q 265 142 265 110 q 273 517 258 283 q 310 890 288 751 z "},"J":{"ha":626,"x_min":-24,"x_max":583,"o":"m 217 333 q 199 315 211 328 q 182 296 188 303 q 106 146 126 231 q 114 35 88 86 q 156 10 126 8 q 247 51 201 14 q 339 200 314 107 q 369 372 367 311 q 382 869 382 726 q 294 779 342 839 q 215 640 247 719 q 224 504 183 561 q 219 482 233 492 q 193 481 206 472 q 135 534 156 513 q 100 593 115 556 q 92 672 85 631 q 121 753 97 711 q 168 807 135 779 q 389 981 347 949 q 429 1000 418 1001 q 467 972 440 999 q 525 922 496 940 q 565 811 583 882 q 540 560 532 689 q 547 468 542 531 q 554 374 551 406 q 504 65 565 197 q 303 -97 440 -67 q 181 -86 232 -111 q 86 -33 118 -57 q 10 163 -24 38 q 110 343 38 267 q 162 376 143 378 q 217 333 181 375 z "},"K":{"ha":942,"x_min":-3,"x_max":990,"o":"m 544 349 q 588 297 553 339 q 642 157 642 239 q 644 110 642 131 q 654 67 647 89 q 678 35 661 44 q 721 32 696 25 q 799 77 761 42 q 857 145 836 113 q 908 233 878 178 q 949 306 939 289 q 963 292 956 299 q 974 282 971 285 q 982 275 978 279 q 988 269 986 271 q 990 263 989 267 q 990 255 990 258 q 988 244 989 251 q 913 80 972 163 q 779 -37 853 -3 q 638 -44 693 -78 q 557 53 583 -10 q 535 179 531 115 q 523 249 538 226 q 463 267 508 271 q 423 255 431 264 q 415 213 415 246 q 432 -58 422 78 q 426 -85 432 -79 q 404 -89 421 -92 q 314 -64 349 -79 q 243 69 260 -40 q 247 480 221 224 q 274 808 274 736 q 147 580 188 704 q 135 367 107 456 q 134 345 139 353 q 124 338 129 338 q 114 338 119 338 q 27 401 57 356 q -1 510 -3 447 q 42 651 1 594 q 349 985 183 846 q 433 992 397 1022 q 481 960 442 986 q 538 918 519 933 q 557 891 557 901 q 540 861 557 881 q 517 825 524 842 q 428 417 446 657 q 814 961 714 644 q 838 1013 829 1013 q 886 974 847 1013 q 928 804 951 907 q 661 429 881 590 q 603 390 643 415 q 544 349 564 364 z "},"L":{"ha":738,"x_min":0,"x_max":708,"o":"m 386 90 q 532 78 450 44 q 628 183 589 101 q 697 127 685 157 q 682 49 708 97 q 586 -34 649 -14 q 460 -25 524 -54 q 417 -3 424 -7 q 285 -1 349 33 q 219 -20 244 -24 q 160 13 193 -17 q 156 65 129 38 q 210 107 178 92 q 260 157 249 124 q 296 525 311 301 q 184 444 225 481 q 117 351 143 408 q 104 225 92 293 q 36 253 63 231 q 6 308 10 275 q 13 391 0 354 q 59 457 26 428 q 122 506 92 486 q 201 553 153 526 q 274 597 250 581 q 291 620 286 606 q 296 660 296 635 q 297 693 296 686 q 414 996 317 908 q 543 999 481 1050 q 560 984 544 997 q 578 968 575 971 q 593 954 581 965 q 610 937 606 943 q 622 920 614 931 q 633 899 629 910 q 640 878 638 889 q 597 713 669 781 q 490 636 553 672 q 454 578 456 615 q 447 328 453 489 q 386 90 443 188 m 567 872 q 501 797 536 856 q 461 701 467 738 q 579 817 553 754 q 567 872 599 860 z "},"M":{"ha":1374,"x_min":-8,"x_max":1444,"o":"m 114 374 q 113 370 114 372 q 111 364 113 368 q 110 358 110 360 q 32 397 64 364 q -3 475 0 429 q 50 657 -8 572 q 143 774 99 728 q 361 996 250 885 q 394 1020 383 1019 q 432 1003 404 1021 q 485 970 449 992 q 539 938 521 949 q 576 902 574 914 q 563 851 579 890 q 468 474 492 690 q 467 346 461 404 q 486 381 478 363 q 583 557 574 540 q 639 628 601 588 q 659 649 651 642 q 683 661 667 656 q 714 656 700 667 q 776 572 781 624 q 767 481 774 542 q 757 390 760 421 q 761 331 750 336 q 796 376 772 326 q 845 480 806 396 q 899 592 885 564 q 949 687 913 619 q 1011 790 986 754 q 1075 874 1036 825 q 1154 961 1114 922 q 1239 1020 1213 1018 q 1333 975 1265 1022 l 1363 954 q 1396 871 1407 924 q 1368 774 1379 804 q 1308 607 1351 725 q 1244 425 1265 489 q 1164 89 1174 215 q 1183 -22 1157 -14 q 1226 13 1200 -26 q 1378 297 1289 114 q 1391 293 1382 296 q 1406 288 1400 290 q 1422 281 1413 286 q 1434 273 1431 276 q 1441 263 1438 269 q 1439 249 1444 256 q 1314 -19 1378 76 q 1243 -87 1275 -76 q 1150 -76 1211 -99 q 1052 -15 1082 -54 q 1019 99 1022 25 q 1058 407 1011 244 q 1084 496 1067 435 q 1116 603 1101 557 q 1149 692 1131 650 q 1157 756 1185 774 q 1024 582 1115 728 l 969 489 q 875 315 961 471 q 846 264 857 279 q 839 254 844 263 q 832 244 833 246 q 825 235 831 242 q 817 226 819 228 q 808 219 814 224 q 798 215 803 215 q 787 214 793 214 q 774 215 781 214 q 733 228 747 222 q 701 250 718 235 q 678 289 685 265 q 669 469 657 358 q 671 519 675 501 q 647 489 654 500 q 478 18 526 274 q 454 -37 469 -28 q 392 -37 439 -46 q 317 0 342 -29 q 279 83 292 29 q 288 624 221 344 q 311 719 289 633 q 336 815 333 806 q 292 755 331 807 q 224 660 253 703 q 162 560 194 617 q 116 454 129 503 q 114 374 103 406 z "},"N":{"ha":1032,"x_min":-44,"x_max":1110,"o":"m 1036 299 q 1082 282 1079 283 q 1101 244 1110 271 q 1010 -12 1060 63 q 908 -81 961 -85 q 740 38 779 -64 q 714 292 700 146 q 818 725 731 479 q 828 783 844 786 q 804 764 821 782 q 618 492 693 644 q 478 143 543 340 q 454 80 469 122 q 432 17 439 38 q 412 -13 422 -8 q 375 -11 401 -18 q 361 -8 369 -11 q 349 -6 353 -6 q 263 82 279 6 q 293 808 196 396 q 167 635 219 765 q 128 410 115 504 q 108 385 135 375 q 26 451 74 396 q 10 476 13 468 q 124 772 -44 638 q 336 997 256 886 q 368 1028 357 1026 q 411 1011 379 1031 q 524 943 490 968 q 549 916 549 926 q 532 881 550 906 q 497 808 513 847 q 425 474 435 642 l 425 321 q 440 351 436 340 q 500 476 447 365 q 582 644 553 588 q 794 901 665 803 q 869 938 844 938 q 947 906 894 939 q 1003 783 1015 864 q 978 657 1003 779 q 935 448 969 613 q 885 193 901 283 q 872 4 860 54 q 925 22 882 -37 q 961 88 947 53 q 1018 243 982 138 q 1036 299 1024 257 z "},"O":{"ha":794,"x_min":-22,"x_max":842,"o":"m 622 904 q 731 731 701 847 q 744 488 760 614 q 683 238 729 363 q 799 294 768 268 q 803 214 842 247 q 639 132 743 161 q 526 -24 585 26 q 357 -54 449 -87 q 161 182 196 11 q 121 243 158 208 q -2 483 18 340 q 43 760 -22 626 q 239 964 108 893 q 496 979 372 1038 q 622 904 556 953 m 157 392 q 172 484 161 435 q 204 587 183 533 q 260 664 225 640 q 339 664 296 688 q 414 622 378 644 q 439 596 436 607 q 432 557 442 585 q 406 486 425 538 q 377 406 386 435 q 358 332 368 376 q 346 249 347 288 q 421 195 364 211 q 556 201 478 179 q 626 735 681 508 q 574 851 607 801 q 490 899 540 900 q 301 813 389 896 q 174 613 214 731 q 157 392 133 494 m 368 1 q 444 37 400 0 q 517 121 489 74 q 431 126 472 114 q 364 156 390 139 q 333 172 338 172 q 335 65 325 132 q 368 1 346 -1 z "},"P":{"ha":922,"x_min":-25,"x_max":969,"o":"m 142 346 q 23 452 71 369 q 10 606 -25 535 q 72 708 43 674 q 367 988 168 832 q 381 997 374 993 q 398 1003 389 1001 q 413 1005 407 1004 q 429 1003 419 1006 q 443 1001 439 1001 q 458 997 447 1000 q 472 993 469 993 q 498 982 485 990 q 519 967 511 974 q 543 946 528 960 q 564 928 558 932 q 572 912 568 925 q 578 896 576 899 q 750 900 671 939 q 856 758 829 861 q 861 550 876 675 q 731 222 832 360 q 722 173 711 197 q 767 161 732 149 q 860 224 807 175 q 926 299 913 274 q 968 256 967 290 q 942 193 969 222 q 856 119 908 156 q 738 107 799 79 q 654 147 701 121 q 569 115 614 115 q 493 131 525 115 q 410 183 461 147 q 400 -101 406 75 q 315 -94 354 -108 q 265 -42 275 -79 q 251 56 253 11 q 317 728 233 414 q 340 842 356 843 q 326 829 336 842 q 281 776 304 804 q 224 703 257 747 q 169 618 192 660 q 129 534 146 576 q 115 455 113 492 q 139 394 117 418 q 164 350 165 368 q 142 346 163 338 m 460 525 q 596 472 547 529 q 622 435 610 456 q 649 388 635 415 q 672 346 664 360 q 751 532 721 417 q 773 640 765 581 q 770 765 781 699 q 724 854 760 831 q 652 810 686 838 q 597 762 618 783 q 548 693 576 740 q 510 628 519 646 q 472 550 501 610 q 460 525 464 533 m 528 468 q 458 358 476 446 q 477 227 440 269 q 586 236 514 185 q 599 252 593 240 q 603 271 604 264 q 528 468 575 407 z "},"Q":{"ha":672,"x_min":-21,"x_max":658,"o":"m 447 93 q 495 -37 461 6 q 603 -101 529 -81 q 478 -144 538 -154 q 377 -87 419 -133 q 325 18 335 -40 q 287 13 306 13 q 255 17 268 14 q 224 29 242 19 q 197 45 206 39 q 168 67 189 51 q 139 89 147 83 q 21 325 24 176 q 7 447 19 376 q 65 756 -21 617 q 265 957 136 874 q 278 965 268 958 q 296 975 289 972 q 465 1000 385 1013 q 600 922 544 988 q 657 764 656 857 q 607 409 658 569 q 447 93 556 249 m 417 274 q 563 774 546 439 q 558 847 561 821 q 535 899 554 874 q 478 925 515 924 q 313 874 401 926 q 189 753 225 822 q 292 792 256 799 q 360 725 328 786 q 151 310 175 547 q 181 306 163 303 q 211 310 200 308 q 240 320 222 311 q 267 335 257 329 q 293 350 276 340 q 318 364 310 360 q 385 368 354 385 q 417 310 415 351 l 417 274 m 307 125 q 299 193 304 151 q 293 249 294 235 q 144 249 225 204 q 158 190 154 207 q 172 150 163 172 q 190 122 181 128 q 215 112 199 117 q 253 111 232 107 q 307 125 274 115 z "},"R":{"ha":1025,"x_min":1,"x_max":1099,"o":"m 794 36 q 924 126 850 35 q 1029 288 997 218 q 1071 211 1099 274 q 985 78 1042 144 q 869 -14 928 13 q 725 -22 815 -40 q 597 53 635 -4 q 490 258 563 104 q 453 92 458 185 q 458 -71 449 0 q 331 -12 367 -104 q 386 883 242 222 q 199 656 303 828 q 136 404 96 485 l 142 394 q 147 381 147 386 q 138 376 146 376 q 43 431 85 383 q 3 529 1 478 q 83 739 8 647 q 275 906 143 815 q 453 1040 407 997 q 572 1032 483 1069 q 701 944 660 994 q 708 935 706 939 q 708 927 710 931 q 706 922 707 924 q 699 917 704 919 q 692 915 694 915 q 683 913 689 914 q 676 911 678 911 q 632 888 650 906 q 592 839 614 871 q 499 576 511 721 q 526 622 501 582 q 556 668 551 661 q 583 708 561 675 q 613 751 604 742 q 642 788 622 761 q 676 826 663 814 q 712 858 690 838 q 755 892 733 878 q 800 919 776 906 q 896 917 840 943 q 1025 722 1015 854 q 875 343 1039 501 q 790 280 828 299 q 718 263 751 261 q 643 271 685 264 q 794 36 697 36 m 781 779 q 681 667 728 735 q 611 558 633 600 q 543 422 589 515 q 676 373 610 354 q 794 456 742 392 q 877 605 846 521 q 906 753 908 689 q 898 808 904 789 q 883 835 892 828 q 856 834 874 842 q 824 815 839 826 q 781 779 808 803 z "},"S":{"ha":738,"x_min":-10,"x_max":771,"o":"m 428 464 q 517 378 458 438 q 606 294 576 319 q 718 313 696 313 q 735 313 729 313 q 747 310 742 313 q 755 306 753 307 q 760 299 757 306 q 763 289 763 292 q 767 274 764 286 q 771 254 769 261 q 615 226 675 246 q 614 206 615 221 q 611 182 613 192 q 543 -17 600 69 q 393 -156 486 -104 q 283 -156 336 -183 q 144 -61 190 -99 q 143 64 76 -4 q 421 243 249 168 q 472 288 467 264 q 449 334 476 313 q 394 369 421 356 q 340 393 367 383 q 315 389 326 397 q 263 356 306 382 q 199 315 219 331 q 147 273 178 300 q 103 218 117 246 q 89 160 89 190 q 13 196 35 167 q 2 261 -10 225 q 50 329 14 297 q 236 463 93 367 q 206 521 210 489 q 209 575 201 553 q 235 635 217 597 q 464 943 314 799 q 533 980 503 979 q 603 949 564 981 q 682 876 647 915 q 708 831 706 853 q 693 778 710 808 q 428 464 586 603 m 553 813 q 413 656 468 743 q 379 526 357 569 q 567 722 493 613 q 589 819 629 814 q 553 813 576 821 m 444 186 q 356 135 413 178 q 256 47 300 93 q 219 -28 214 3 q 276 -22 224 -60 l 296 -7 q 444 186 371 60 z "},"T":{"ha":615,"x_min":-24,"x_max":990,"o":"m 525 -101 q 421 -95 464 -118 q 361 -15 378 -72 q 325 199 332 83 q 324 388 318 314 q 346 592 331 461 q 226 514 274 538 q 168 490 192 497 q 113 487 144 482 q 57 518 82 492 q -9 617 6 571 q 0 740 -24 664 q 7 756 1 749 q 154 926 56 857 q 363 1009 253 994 q 578 979 472 1024 q 781 928 699 925 q 954 988 864 932 q 981 963 975 1000 q 971 882 989 911 q 967 876 969 878 q 688 810 850 775 q 607 833 686 810 q 525 -101 471 371 m 74 579 q 108 581 90 579 q 138 586 125 583 q 169 597 151 589 q 197 608 188 604 q 226 624 207 613 q 251 640 244 635 q 278 658 258 644 q 304 675 299 671 q 449 874 414 749 q 203 788 328 885 q 74 579 79 690 z "},"U":{"ha":1110,"x_min":-14,"x_max":1172,"o":"m 517 21 q 606 160 565 89 q 672 283 647 232 q 725 419 696 333 q 765 541 754 504 q 806 685 776 578 q 846 828 836 793 q 870 896 861 872 q 896 945 879 919 q 930 976 913 971 q 974 974 947 982 q 1035 938 1000 965 q 1044 894 1047 925 q 1028 819 1042 865 q 975 576 997 713 q 945 367 953 440 q 922 119 938 294 q 943 -31 908 -40 q 1039 131 976 -21 q 1115 299 1079 229 q 1164 264 1158 275 q 1157 210 1172 249 q 1120 106 1131 136 q 1084 22 1110 76 q 1031 -74 1058 -33 q 982 -113 1006 -107 q 922 -106 958 -119 q 774 72 801 -69 q 750 214 761 119 l 724 161 q 628 -28 657 15 q 513 -128 567 -118 q 372 -76 458 -137 q 243 175 260 0 q 269 477 232 296 q 358 811 306 658 q 206 622 292 775 q 119 396 119 469 q 115 367 121 374 q 88 372 110 360 q 38 411 78 378 q -8 491 -1 446 q 11 585 -14 536 q 72 681 36 633 q 163 777 108 728 q 260 862 218 826 q 349 935 301 897 q 410 983 397 972 q 449 1001 428 999 q 495 990 469 1003 q 533 970 521 978 q 569 946 546 963 q 586 882 600 921 q 463 515 508 679 q 406 188 417 351 q 426 -12 394 39 q 517 21 454 -58 z "},"V":{"ha":972,"x_min":0,"x_max":1013,"o":"m 285 853 q 254 799 276 836 q 210 726 232 761 q 167 644 189 690 q 132 561 144 599 q 121 488 119 524 q 142 429 122 451 q 158 400 153 413 q 159 381 163 388 q 149 373 156 375 q 132 375 143 371 q 110 388 121 379 q 15 534 29 447 q 49 711 0 621 q 215 917 104 818 q 321 1003 228 926 q 375 1004 351 1028 q 421 974 397 981 q 467 890 471 957 q 458 583 454 715 q 539 6 464 307 q 588 -22 565 -86 q 639 140 606 25 q 689 299 672 256 q 692 336 697 317 q 692 656 657 461 q 801 969 726 851 q 813 990 804 974 q 828 1014 822 1006 q 844 1033 835 1022 q 863 1050 853 1044 q 885 1054 874 1056 q 935 1032 913 1051 q 960 988 958 1013 q 956 882 964 932 q 938 787 949 835 q 913 681 928 739 q 889 592 897 622 q 858 488 881 563 q 831 396 836 414 l 801 304 q 851 243 783 242 q 950 271 908 244 q 962 278 954 274 q 972 285 969 283 q 980 290 975 288 q 986 293 985 293 q 991 294 988 293 q 996 292 994 294 q 999 287 997 289 q 1003 279 1001 285 q 1008 269 1006 274 q 1013 256 1010 264 q 933 189 981 207 q 846 178 886 171 q 769 204 806 185 q 721 74 739 118 q 658 -61 685 -17 q 620 -104 639 -96 q 561 -110 601 -112 q 365 38 429 -99 q 282 354 314 140 q 285 853 250 593 m 767 539 q 860 876 839 731 q 767 539 785 724 z "},"W":{"ha":1349,"x_min":-3,"x_max":1397,"o":"m 365 843 q 327 806 347 826 q 275 748 307 785 q 216 675 243 711 q 164 595 189 639 q 126 513 139 551 q 114 434 113 474 q 136 365 115 394 q 143 322 157 336 q 113 329 132 310 q 28 407 58 372 q -3 497 -3 439 q 69 718 -3 632 q 414 997 207 881 q 481 989 447 1018 q 529 953 497 975 q 568 925 561 931 q 599 894 596 904 q 589 850 603 883 q 574 809 582 831 q 555 761 565 788 q 539 721 544 735 q 392 106 419 415 q 406 -21 381 -19 q 451 24 421 -22 q 594 261 526 144 q 642 351 606 279 q 681 340 669 344 q 717 318 711 328 q 721 271 724 308 q 733 104 714 174 q 813 -44 772 -35 q 915 63 854 -54 q 981 207 925 81 q 919 314 928 297 q 861 765 831 518 q 910 974 872 863 q 976 1099 931 1036 q 1031 1138 1003 1133 q 1097 1125 1060 1143 q 1283 803 1276 1046 q 1194 289 1289 557 q 1179 245 1190 275 q 1165 206 1168 215 q 1340 276 1272 221 q 1372 293 1364 294 q 1388 275 1381 292 q 1392 226 1397 240 q 1354 189 1386 213 q 1135 131 1290 144 q 1103 79 1126 118 q 1065 21 1079 40 q 996 -56 1024 -36 q 915 -92 954 -90 q 822 -84 869 -96 q 724 -33 774 -72 q 651 67 675 6 q 635 104 644 83 q 621 84 629 96 q 610 67 613 72 q 513 -78 535 -49 q 371 -121 461 -143 q 214 75 238 -85 q 235 424 192 235 q 303 647 247 474 q 365 843 358 819 m 1086 1024 q 1040 984 1054 1001 q 1010 932 1025 967 q 983 342 883 642 q 1007 297 986 335 q 1026 374 1015 329 q 1101 835 1086 613 q 1086 1024 1111 949 z "},"X":{"ha":890,"x_min":-1,"x_max":942,"o":"m 533 576 q 601 654 554 593 q 688 769 647 715 q 776 857 728 824 q 854 868 824 890 q 872 852 867 858 q 878 837 878 846 q 865 818 878 828 q 563 458 735 693 q 542 388 538 419 q 610 76 565 208 q 767 69 656 -61 q 892 279 842 156 l 894 288 q 942 244 942 282 q 799 8 907 117 q 689 -54 739 -54 q 506 -3 554 -54 q 418 222 457 49 q 351 101 408 204 q 283 -24 293 -1 q 231 -146 268 -57 q 166 -125 178 -144 q 176 -60 154 -106 q 274 121 197 -18 q 368 297 350 260 q 378 353 378 322 q 378 550 376 408 q 365 828 383 803 q 340 818 356 840 q 299 767 325 794 q 247 715 272 739 q 195 664 222 692 q 149 608 168 636 q 117 549 129 579 q 107 482 106 518 q 125 407 108 446 q 117 396 131 394 q 88 404 100 396 q 15 496 31 435 q 17 617 -1 557 q 74 721 35 678 q 207 867 133 797 q 376 1004 260 915 q 409 1023 399 1024 q 438 1001 419 1022 q 459 982 447 989 q 490 968 471 975 q 515 958 510 961 q 549 935 544 944 q 550 893 553 926 q 532 628 543 799 q 533 576 531 619 z "},"Y":{"ha":1050,"x_min":-8,"x_max":1085,"o":"m 314 856 q 178 660 250 803 q 111 436 107 517 q 108 406 113 414 q 85 407 103 399 q -5 565 -1 472 q 63 743 -8 658 q 357 1026 175 885 q 418 1024 390 1051 q 479 965 436 1001 q 515 923 513 935 q 496 872 517 911 q 361 499 399 683 q 397 371 335 360 q 569 510 458 383 q 596 543 583 528 q 810 846 654 618 q 824 883 817 857 q 833 914 832 910 q 837 923 835 917 q 840 933 839 929 q 844 941 842 936 q 849 949 847 946 q 855 956 851 953 q 862 962 858 960 q 870 965 865 964 q 881 967 875 967 q 993 869 986 971 q 919 258 1006 683 q 955 263 928 260 q 998 269 982 267 q 1032 279 1014 272 q 1058 297 1050 286 q 1080 262 1075 285 q 1067 222 1085 239 q 1035 206 1053 211 q 986 198 1018 201 q 950 194 954 194 q 886 164 893 185 q 690 -112 833 -4 q 411 -72 533 -226 q 378 38 369 -22 q 420 149 386 97 q 513 233 454 200 q 631 265 571 267 l 724 265 q 797 665 772 408 q 724 574 771 633 q 650 479 678 514 q 581 399 622 444 q 500 319 539 354 q 386 290 446 279 q 279 351 326 301 q 232 454 232 400 q 249 574 232 492 q 288 744 265 656 q 314 856 310 832 m 703 197 q 518 134 592 218 q 478 -58 444 50 q 551 -17 518 -42 q 613 48 583 8 q 658 115 642 88 q 703 197 674 143 z "},"Z":{"ha":888,"x_min":-8,"x_max":924,"o":"m 897 289 q 903 208 924 236 q 754 131 865 158 q 675 68 703 114 q 477 -117 586 -61 q 222 -158 368 -174 q 141 -119 175 -154 q 71 -22 107 -83 q 76 39 56 3 q 181 128 111 103 q 299 156 236 147 q 437 168 361 164 q 554 178 513 172 q 588 203 572 181 q 626 264 610 233 q 652 330 642 294 q 644 386 663 365 q 575 404 625 407 q 471 399 496 397 q 400 427 431 399 q 357 503 369 456 q 379 604 343 557 q 469 707 400 631 q 556 803 526 769 q 589 842 586 838 q 590 847 592 847 q 424 807 504 839 q 283 724 344 775 q 194 596 221 672 q 189 432 167 519 q 292 268 207 368 q 267 240 289 246 q 222 253 246 235 q 100 376 150 313 q 21 510 50 439 q 7 653 -8 581 q 85 790 22 726 q 294 924 174 881 q 589 968 463 990 q 658 926 633 958 q 699 840 682 894 q 640 719 714 796 q 564 649 626 706 q 475 558 501 592 q 443 514 444 519 q 463 501 439 499 q 469 501 465 501 q 503 508 481 503 q 539 514 526 513 q 694 453 635 525 q 744 263 753 381 q 744 245 744 258 q 743 222 743 232 q 897 289 846 247 m 419 68 q 293 76 351 82 q 199 46 235 71 q 178 -12 164 21 q 265 -1 218 -14 q 338 26 313 13 q 419 68 364 39 z "},"[":{"ha":315,"x_min":-31,"x_max":318,"o":"m 261 978 q 192 971 204 981 q 171 911 179 961 q 128 -14 76 400 q 236 -8 215 -4 q 233 -57 306 -17 q 56 -76 146 -97 q 10 49 22 -68 q 67 968 -31 474 q 85 1026 74 1000 q 133 1058 96 1058 q 301 1007 229 1054 q 310 994 308 1003 q 288 978 318 981 q 261 978 283 978 z "},"\\":{"ha":519,"x_min":-8,"x_max":485,"o":"m 18 1008 q 53 1026 43 1028 q 86 1000 64 1025 q 320 581 193 882 q 475 83 447 279 q 482 24 485 53 q 446 -11 479 -6 q 400 -19 411 -24 q 376 17 389 -15 q 351 85 369 36 q 322 158 333 133 q 8 915 157 592 q -7 971 -8 950 q 18 1008 -6 992 z "},"]":{"ha":363,"x_min":-17,"x_max":332,"o":"m 40 -11 q 110 -4 97 -14 q 131 56 122 6 q 174 981 225 567 q 65 975 86 971 q 68 1024 -4 983 q 246 1043 156 1064 q 292 918 279 1035 q 235 -1 332 493 q 217 -60 228 -33 q 168 -92 206 -92 q 0 -40 72 -87 q -8 -28 -6 -36 q 14 -11 -17 -14 q 40 -11 18 -11 z "},"^":{"ha":551,"x_min":63,"x_max":458,"o":"m 458 686 q 399 703 424 690 q 362 728 375 715 q 338 770 349 742 q 324 816 328 799 q 315 872 321 833 q 313 898 314 881 q 310 925 311 915 q 133 703 208 842 q 98 713 113 706 q 73 738 83 719 q 88 788 63 757 q 194 933 122 847 q 307 1044 265 1019 q 323 1059 314 1049 q 340 1074 332 1069 q 361 1074 349 1078 q 440 1025 401 1064 q 451 972 451 1014 q 446 897 450 950 q 441 824 442 844 q 444 764 440 803 q 458 686 449 725 z "},"_":{"ha":663,"x_min":15,"x_max":597,"o":"m 468 -29 q 128 -31 354 -31 q 56 -3 94 -31 q 69 33 15 25 q 93 36 79 36 q 417 51 378 51 q 510 40 476 51 q 572 0 543 29 q 468 -29 597 -29 z "},"`":{"ha":317,"x_min":46,"x_max":251,"o":"m 251 853 q 137 878 199 839 q 46 982 75 917 q 131 968 88 1003 q 250 863 172 935 q 251 853 251 861 z "},"a":{"ha":597,"x_min":-26,"x_max":650,"o":"m 232 39 q 136 -1 206 -17 q -7 167 1 29 q 111 513 -26 372 q 281 554 181 582 q 329 541 297 550 q 375 528 361 532 q 385 555 378 536 q 396 582 393 574 q 440 604 408 613 q 460 599 446 603 q 479 593 474 596 q 513 574 507 583 q 514 535 518 564 q 483 121 492 332 q 485 92 483 104 q 490 71 486 79 q 502 69 493 63 q 525 101 511 76 q 603 290 561 172 q 633 281 615 296 q 646 242 650 267 q 623 151 638 200 q 577 49 608 101 q 511 -7 546 -4 q 434 -6 472 -14 q 378 22 396 1 q 351 92 356 46 q 351 197 347 138 q 354 274 356 257 q 331 261 354 311 q 284 153 314 229 q 232 39 254 78 m 161 56 q 259 254 207 122 q 349 442 311 386 q 206 389 268 501 q 149 153 150 290 q 161 56 149 94 z "},"b":{"ha":699,"x_min":-15,"x_max":636,"o":"m 140 93 q 147 14 147 15 q 142 -20 150 -12 q 106 -28 133 -28 q 35 -17 49 -28 q 10 51 21 -6 q -14 378 -12 207 q 18 733 -15 549 q 124 1026 51 917 q 235 1092 175 1110 q 342 969 343 1064 q 331 843 342 911 q 299 702 321 775 q 235 577 278 629 q 136 517 193 525 l 136 299 q 163 339 142 307 q 325 538 222 451 q 506 550 410 606 q 629 331 636 481 q 561 106 626 201 q 431 -1 513 32 q 303 -1 358 -28 q 140 93 185 61 m 153 136 q 407 156 288 47 q 517 433 529 267 q 490 494 513 478 q 436 501 467 510 q 377 475 406 492 q 326 436 349 458 q 153 136 217 324 m 139 572 q 260 853 228 649 q 254 1019 274 957 q 172 813 196 918 q 139 572 149 708 z "},"c":{"ha":451,"x_min":-14,"x_max":508,"o":"m 299 515 q 204 413 242 497 q 156 245 167 329 q 149 101 144 161 q 149 92 149 99 q 150 85 150 86 q 275 46 172 -25 q 379 155 332 85 q 456 297 426 225 q 501 258 494 276 q 499 229 508 240 q 469 166 488 199 q 422 93 451 133 q 360 24 393 53 q 282 -20 326 -6 q 193 -24 238 -35 q 51 62 103 0 q -8 214 -1 124 q 1 354 -14 276 q 50 501 15 432 q 141 601 85 571 q 275 596 197 631 q 299 586 292 588 q 367 576 354 586 q 389 478 390 531 q 356 390 388 426 q 281 368 324 354 q 291 392 281 369 q 306 442 301 415 q 299 515 310 468 z "},"d":{"ha":588,"x_min":-22,"x_max":644,"o":"m 589 289 q 631 218 644 264 q 556 21 592 65 q 467 -11 536 -4 q 383 1 418 -17 q 326 54 347 18 q 293 124 304 90 q 274 203 282 157 q 232 71 233 75 q 147 -6 203 -3 q 35 29 72 -10 q -11 156 -3 68 q 14 401 -22 268 q 122 588 50 533 q 275 596 169 622 q 433 1083 294 939 q 565 1085 479 1131 q 625 993 633 1053 q 567 768 603 851 q 440 553 531 685 q 453 61 396 172 q 490 47 468 26 q 589 289 528 78 m 124 44 q 212 203 165 35 q 258 519 258 372 q 179 440 226 565 q 113 147 126 301 q 124 44 104 58 m 563 1011 q 497 851 539 982 q 446 650 454 721 q 524 828 485 707 q 563 1011 564 949 z "},"e":{"ha":411,"x_min":-29,"x_max":468,"o":"m 415 290 q 450 226 468 274 q 325 28 406 108 q 231 -8 285 -8 q 13 135 61 -6 q 2 369 -29 249 q 122 560 33 490 q 188 591 156 585 q 247 590 219 597 q 328 564 275 583 q 369 503 367 547 q 275 274 367 363 q 150 215 236 231 q 161 86 138 156 q 249 39 192 0 q 275 61 261 47 q 415 290 343 135 m 157 261 q 262 372 224 289 q 271 506 300 456 q 194 397 226 465 q 157 261 163 328 z "},"f":{"ha":389,"x_min":-19,"x_max":426,"o":"m 393 286 q 415 231 426 253 q 263 181 368 160 q 288 72 275 158 q 304 -115 301 -15 q 278 -291 307 -215 q 188 -362 249 -367 q 107 -335 142 -360 q 51 -271 72 -311 q 19 -193 31 -231 q 0 -106 8 -156 q -18 141 -17 15 q 10 397 -19 267 q 96 611 40 528 q 145 650 113 636 q 208 656 178 664 q 253 641 236 649 q 288 615 271 633 q 310 571 306 597 q 242 242 336 397 q 393 286 311 190 m 168 211 q 153 -63 139 126 q 206 -297 168 -253 q 244 -199 233 -299 q 236 28 256 -99 q 168 211 217 154 m 239 575 q 233 574 240 589 q 176 376 201 503 q 167 283 165 319 q 240 425 218 351 q 239 575 261 499 z "},"g":{"ha":532,"x_min":-29,"x_max":565,"o":"m 536 289 q 558 236 565 260 q 449 89 544 181 q 421 15 421 61 q 411 -196 421 -114 q 363 -328 403 -268 q 267 -417 322 -387 q 144 -440 211 -447 q 18 -381 76 -433 q -17 -307 -12 -354 q 115 -54 -29 -143 q 251 19 164 -22 q 306 90 297 40 q 292 181 314 140 q 258 138 285 172 q 215 85 232 104 q 176 51 197 67 q 85 49 136 17 q -14 208 3 96 q 2 330 -21 251 q 68 481 25 408 q 172 587 111 554 q 304 571 233 619 q 385 497 350 538 q 402 443 415 467 q 356 446 389 419 q 333 469 344 454 q 301 485 319 486 q 272 478 283 485 q 242 456 261 471 q 99 150 108 353 q 140 132 99 97 q 161 154 153 143 q 240 265 186 188 q 325 381 293 343 q 381 394 349 418 q 425 311 428 361 q 411 147 415 232 q 451 181 428 156 q 503 245 474 207 q 536 289 532 283 m 307 -21 q 250 -49 292 -29 q 183 -85 208 -69 q 136 -118 158 -100 q 49 -304 44 -199 q 69 -354 50 -340 q 115 -361 89 -368 q 167 -340 142 -354 q 208 -307 192 -325 q 307 -21 304 -203 z "},"h":{"ha":565,"x_min":-28,"x_max":621,"o":"m 171 238 q 315 451 225 346 q 390 464 342 483 q 438 404 438 444 q 435 296 439 356 q 431 206 433 265 q 429 118 429 147 q 450 38 424 32 q 482 65 464 40 q 535 175 510 104 q 567 294 560 246 q 610 277 600 289 q 614 238 621 265 q 544 36 572 89 q 431 -11 513 -26 q 344 15 378 -3 q 296 75 311 33 q 293 258 279 103 q 293 325 299 322 q 281 310 289 326 q 276 301 279 306 q 183 44 204 174 q 126 4 178 -8 q 97 13 108 10 q 74 23 85 17 q 56 31 63 29 q 44 42 50 32 q 35 53 38 51 q 29 70 33 56 q 24 89 25 85 q 18 116 22 93 q 13 147 14 139 q -5 566 -28 336 q 107 968 18 796 q 178 1050 135 1022 q 274 1061 222 1078 q 374 958 353 1026 q 334 746 399 878 q 197 536 269 614 q 164 463 164 503 q 163 400 164 438 q 161 340 161 363 q 163 289 161 318 q 171 238 165 260 m 179 594 q 292 799 246 686 q 301 982 338 913 q 226 820 261 933 q 179 594 190 707 z "},"i":{"ha":243,"x_min":-28,"x_max":290,"o":"m 188 125 q 217 207 201 156 q 246 288 233 258 q 283 268 275 282 q 281 226 290 254 q 215 40 240 101 q 183 5 201 11 q 131 6 165 -1 q 109 9 125 7 q 88 13 93 11 q 70 17 83 14 q 52 22 57 19 q 38 30 47 25 q 24 40 28 35 q 15 54 19 46 q 7 72 10 63 q 6 483 -28 193 q 48 517 10 515 q 133 488 86 518 q 140 450 140 483 q 135 340 139 418 q 129 221 131 263 q 154 75 125 63 q 188 125 168 81 m 74 506 q 40 522 57 508 q 24 549 24 535 q 31 693 26 644 q 90 713 35 722 q 142 688 131 704 q 149 631 154 671 q 132 522 146 599 q 126 500 131 506 q 117 494 121 494 q 99 499 113 494 q 74 506 85 503 z "},"j":{"ha":235,"x_min":-178,"x_max":265,"o":"m 236 286 q 253 269 246 278 q 263 256 260 261 q 265 247 265 251 q 265 240 265 242 q 263 233 265 238 l 260 229 q 188 132 225 169 q 150 31 146 96 q 151 -148 160 -51 q 104 -306 143 -244 q 34 -358 82 -343 q -57 -364 -14 -374 q -158 -247 -146 -343 q -39 31 -178 -76 q -6 52 -28 39 q 25 72 15 65 q 1 211 11 121 q -6 410 -10 301 q 25 572 -3 518 q 49 594 36 593 q 85 583 63 596 q 113 572 97 578 q 133 565 129 567 q 144 556 136 563 q 149 540 151 549 q 147 511 146 531 q 144 174 122 299 q 236 286 201 225 m 28 18 q -69 -72 -29 -10 q -117 -203 -110 -135 q -83 -317 -126 -303 q 8 -235 -40 -331 q 33 -114 32 -187 q 28 18 35 -40 m 97 574 q 68 588 82 578 q 56 611 54 599 q 67 735 58 651 q 121 753 72 758 q 165 731 156 746 q 168 681 175 717 q 149 588 163 651 q 143 569 147 574 q 135 564 139 564 q 119 568 132 564 q 97 574 107 572 z "},"k":{"ha":524,"x_min":-12,"x_max":578,"o":"m 176 225 q 154 24 129 143 q 156 -8 160 -3 q 125 -12 151 -12 q 13 46 22 -12 q -10 384 -7 201 q 23 744 -12 567 q 124 985 58 922 q 190 1031 154 1015 q 263 1036 225 1046 q 326 988 301 1026 q 345 926 344 964 q 333 847 346 889 q 299 763 319 806 q 254 680 279 721 q 209 609 229 639 q 172 558 189 579 q 150 497 150 531 q 151 374 150 385 q 347 568 244 531 q 444 556 406 592 q 469 461 483 519 q 444 408 463 433 q 410 367 426 383 q 362 331 394 351 q 314 303 329 311 q 260 276 299 296 q 267 253 261 274 q 275 226 272 233 q 283 200 278 218 q 294 171 289 182 q 306 146 299 160 q 319 122 313 132 q 335 104 326 113 q 435 128 385 60 q 469 178 451 149 q 504 242 486 208 q 526 283 522 275 q 558 272 539 288 q 571 238 578 257 q 335 33 474 -3 q 267 77 300 42 q 217 143 233 113 q 176 225 200 174 m 165 617 q 283 856 261 789 q 282 971 314 946 q 211 833 249 944 q 165 617 174 721 m 368 497 q 210 299 281 442 q 314 355 254 314 q 401 438 374 396 q 415 504 431 482 q 368 497 403 521 z "},"l":{"ha":332,"x_min":-11,"x_max":386,"o":"m 335 288 q 379 231 386 275 q 311 42 356 115 q 216 -19 278 -10 q 104 3 154 -28 q 46 56 69 21 q 12 130 22 90 q -5 215 1 169 q -10 300 -11 260 q -10 376 -8 340 q 35 726 -7 558 q 146 965 76 894 q 288 965 197 1018 q 358 789 372 906 q 181 454 333 607 q 157 418 157 436 l 154 365 q 152 263 151 313 q 157 158 153 214 q 176 72 161 101 q 218 50 192 42 q 279 117 250 61 q 335 288 307 169 m 178 565 q 276 729 247 636 q 276 885 304 822 q 213 738 246 846 q 178 565 179 629 z "},"m":{"ha":824,"x_min":-24,"x_max":882,"o":"m 167 44 q 111 11 153 6 q 28 47 54 19 q -8 133 1 74 q 3 356 -24 238 q 72 528 31 474 q 126 542 92 558 q 140 533 131 539 q 153 525 149 528 q 165 517 158 522 q 174 508 171 513 q 179 498 176 504 q 182 484 182 492 q 179 468 182 476 q 143 307 160 385 q 139 213 133 253 q 190 298 158 242 q 236 376 222 354 q 313 406 265 422 q 358 338 354 392 q 372 235 361 271 q 459 382 396 267 q 582 556 522 497 q 665 564 619 593 q 680 555 668 563 q 696 544 692 547 q 709 535 700 542 q 722 522 718 528 q 730 509 725 517 q 736 492 735 501 q 738 472 738 483 q 724 371 733 414 q 695 244 714 324 q 672 144 676 165 q 672 52 660 79 q 709 44 685 25 q 754 118 733 64 q 825 288 804 256 q 865 232 882 274 q 796 43 828 118 q 706 -21 768 -26 q 550 54 574 -11 q 539 115 540 83 q 540 164 538 147 q 549 225 542 181 q 585 392 554 268 q 581 421 588 410 q 458 236 522 339 q 414 175 436 203 q 339 156 386 143 q 294 214 300 168 q 276 308 288 307 q 263 290 271 308 q 167 44 219 192 z "},"n":{"ha":593,"x_min":-14,"x_max":653,"o":"m 160 343 q 186 385 167 354 q 216 431 206 415 q 244 469 226 446 q 281 508 263 492 q 319 536 299 524 q 410 551 354 561 q 478 499 465 540 q 492 376 493 450 q 483 235 492 303 q 476 114 474 167 q 501 53 479 61 q 596 288 542 39 q 635 274 618 285 q 649 239 653 263 q 567 22 621 68 q 460 0 526 -12 q 344 174 344 21 q 369 436 344 222 q 357 489 374 492 q 338 476 349 488 q 209 271 260 399 q 143 21 158 143 q 115 -10 140 -4 q 47 3 76 -15 q 8 58 18 22 q -7 315 -14 178 q 29 561 0 451 q 74 593 38 593 q 144 572 111 593 q 174 531 176 551 q 160 343 158 410 z "},"o":{"ha":503,"x_min":-17,"x_max":518,"o":"m 313 1 q 171 -23 242 -42 q 43 57 100 -4 q -14 200 -11 115 q 90 519 -17 406 q 182 546 122 561 q 200 547 188 544 q 313 540 242 574 q 418 444 382 503 q 433 263 450 392 q 504 286 481 269 q 516 262 514 276 q 506 231 518 247 q 418 182 481 206 q 313 1 383 47 m 294 265 q 356 260 336 254 q 360 356 358 306 q 347 449 363 406 q 299 503 332 493 q 285 504 290 501 q 272 502 281 507 q 260 497 264 497 q 250 490 257 497 q 240 479 243 482 q 231 468 238 476 q 223 457 225 460 q 216 446 221 454 q 210 436 211 438 q 151 303 175 375 q 128 152 126 232 q 175 32 129 72 q 272 64 215 -3 q 331 183 329 131 q 260 244 269 211 q 278 268 253 267 q 294 265 285 268 z "},"p":{"ha":583,"x_min":-39,"x_max":599,"o":"m 381 539 q 419 520 394 531 q 453 503 443 510 q 472 481 463 497 q 483 442 482 465 q 483 377 483 428 q 485 314 483 326 q 519 313 500 314 q 547 312 539 313 q 567 311 556 311 q 581 308 578 311 q 590 302 585 306 q 596 291 594 299 q 598 275 597 283 q 599 253 599 267 q 567 255 594 253 q 516 256 540 257 q 472 249 492 256 q 435 142 467 208 q 365 35 404 75 q 128 7 267 -68 q 103 -337 92 -194 q 98 -364 104 -360 q 61 -368 92 -368 q 46 -368 51 -368 q -39 -96 -39 -358 q -13 302 -39 88 q 69 611 13 517 q 95 630 79 629 q 140 615 111 631 q 174 596 151 610 q 207 576 196 582 q 214 536 225 567 q 194 476 199 494 q 228 502 208 485 q 263 530 249 519 q 297 549 278 540 q 338 555 317 557 q 381 539 358 553 m 394 306 q 399 441 407 378 q 357 507 390 504 q 238 395 296 486 q 178 238 181 304 q 394 306 243 290 m 165 40 q 297 100 239 43 q 364 233 356 157 q 219 169 275 224 q 165 40 164 115 z "},"q":{"ha":579,"x_min":-26,"x_max":618,"o":"m 581 286 q 615 266 611 272 q 613 231 618 260 q 435 -78 567 43 q 445 -137 438 -97 q 456 -195 453 -178 q 463 -244 458 -212 q 469 -294 468 -275 q 469 -339 469 -314 q 464 -387 468 -364 q 442 -435 458 -424 q 386 -443 426 -446 q 349 -440 357 -442 q 328 -433 340 -439 q 300 -411 315 -426 q 251 -286 261 -372 q 249 -121 240 -200 q 276 71 257 -42 q 238 32 264 61 q 190 -12 213 3 q 144 -19 167 -28 q 106 -6 114 -10 q 19 34 43 14 q -11 103 -6 54 q 21 389 -26 242 q 181 586 68 536 q 329 583 249 617 q 431 524 368 567 q 458 478 456 506 q 444 465 458 458 q 414 492 432 469 q 319 506 378 532 q 185 347 233 465 q 139 124 138 229 q 144 80 139 99 q 156 50 149 61 q 178 46 164 39 q 211 79 193 53 q 371 378 288 189 q 404 430 396 426 q 453 414 413 433 q 484 389 481 397 q 481 350 488 381 q 449 223 471 306 q 415 84 428 140 q 397 -22 403 28 q 581 286 508 88 m 388 -124 q 386 -404 354 -282 q 410 -269 410 -349 q 388 -124 410 -189 z "},"r":{"ha":486,"x_min":-22,"x_max":511,"o":"m 489 281 q 502 274 496 283 q 510 251 508 264 q 508 228 511 238 q 457 190 496 204 q 393 183 418 175 q 271 297 288 215 q 268 323 269 306 q 265 350 267 340 q 188 202 219 285 q 154 51 156 119 q 135 -22 151 -3 q 81 -33 119 -42 q 50 -22 64 -29 q 27 -10 36 -15 q 11 9 18 -4 q 1 28 4 22 q -6 51 -3 33 q -8 75 -8 69 q -10 103 -8 81 q -11 131 -11 126 q 28 549 -22 393 q 108 581 47 614 q 136 566 119 575 q 157 554 153 557 q 170 544 161 551 q 180 534 179 538 q 182 521 181 531 q 182 502 183 511 q 178 476 181 493 q 165 292 161 375 q 299 522 194 363 q 360 558 326 568 q 419 489 421 538 q 408 375 418 442 q 397 285 399 308 q 402 238 396 256 q 426 224 408 221 q 474 261 444 228 l 489 281 z "},"s":{"ha":368,"x_min":-39,"x_max":399,"o":"m 299 69 q 228 -9 274 18 q 131 -24 182 -36 q 97 -7 122 -21 q 64 10 71 7 q 22 101 1 39 q 92 185 33 150 q 200 217 150 219 q 46 257 211 300 q -20 308 -1 244 q -17 435 -39 372 q 100 571 10 513 q 236 604 188 628 q 263 571 256 592 q 260 471 279 515 q 231 457 247 446 q 149 444 208 475 q 67 382 90 414 q 50 351 54 364 q 47 333 46 339 q 58 326 47 328 q 73 324 68 324 q 94 326 78 324 q 114 329 111 329 q 228 308 178 336 q 303 231 279 281 q 369 283 358 257 q 380 278 372 282 q 390 272 388 274 q 395 265 392 269 q 398 256 399 261 q 394 244 397 251 q 317 188 376 210 q 299 69 328 128 m 85 56 q 204 183 200 86 q 110 145 154 182 q 85 56 65 108 z "},"t":{"ha":311,"x_min":-207,"x_max":522,"o":"m 317 299 q 363 273 354 282 q 368 246 371 264 q 335 131 363 196 q 278 24 308 65 q 208 -21 251 -18 q 124 -4 165 -24 q 78 24 99 6 q 44 72 58 42 q 20 126 31 103 q 4 194 10 150 q -4 257 -1 238 q -8 325 -7 276 q -10 380 -10 374 q -10 428 -10 386 q 18 746 -8 582 q -45 722 -3 738 q -108 697 -87 706 q -201 732 -175 667 q -202 749 -207 739 q -194 765 -197 758 q -181 779 -192 771 q -163 792 -169 788 q -147 803 -157 796 q -133 811 -136 810 q -106 815 -112 825 q -97 808 -101 811 q -87 804 -92 806 q -78 803 -83 803 q -69 803 -72 803 q -58 805 -65 803 q -49 808 -51 807 q -40 812 -47 808 q -31 815 -32 815 q 2 825 -19 818 q 35 835 24 832 q 78 964 50 878 q 119 1019 100 1011 q 183 1006 138 1026 q 208 954 218 994 q 205 932 207 947 q 200 901 203 917 q 193 872 197 886 q 457 878 321 882 q 522 819 514 878 q 178 788 354 835 q 139 308 132 494 q 190 67 146 107 q 274 150 226 33 q 294 204 283 174 q 317 299 301 222 z "},"u":{"ha":579,"x_min":-29,"x_max":632,"o":"m 582 293 q 628 242 632 260 q 602 153 615 192 q 568 70 589 114 q 519 3 547 26 q 457 -17 490 -19 q 347 38 369 -8 q 325 201 324 83 q 314 179 321 194 q 303 158 307 164 q 229 44 239 56 q 173 -1 203 11 q 120 -8 143 -12 q 65 13 97 -3 q -18 153 -7 46 q 0 367 -29 260 q 72 550 29 474 q 106 583 92 579 q 151 572 121 588 q 189 557 164 565 q 220 540 214 549 q 218 511 226 532 q 119 161 126 319 q 153 63 115 60 q 300 303 208 67 q 321 358 310 329 q 340 441 331 386 q 358 528 349 496 q 386 558 368 560 q 483 529 468 542 q 496 463 508 510 q 440 161 449 288 q 460 39 435 61 q 506 83 479 22 q 582 293 538 154 z "},"v":{"ha":522,"x_min":-14,"x_max":547,"o":"m 522 281 q 545 251 543 268 q 533 226 547 235 q 509 211 522 218 q 488 201 496 204 q 464 195 479 197 q 443 193 449 193 q 422 192 438 193 q 403 192 406 192 q 384 147 400 185 q 357 88 368 110 q 322 38 346 67 q 267 -4 297 10 q 158 -8 215 -24 q 64 43 100 7 q 0 185 14 94 q -1 358 -14 275 q 42 515 13 440 q 70 549 53 546 q 122 533 88 551 q 167 513 156 515 q 193 461 201 499 q 180 402 192 456 q 164 322 168 349 q 154 249 160 296 q 152 166 149 203 q 167 100 156 129 q 224 49 192 40 q 325 208 267 60 q 252 288 269 242 q 235 403 235 335 q 281 569 240 507 q 367 626 314 628 q 471 567 453 624 q 418 244 499 481 q 470 249 429 239 q 522 281 511 260 m 350 268 q 383 575 433 508 q 322 423 332 522 q 350 268 311 324 z "},"w":{"ha":808,"x_min":-29,"x_max":833,"o":"m 606 18 q 451 -26 550 -44 l 431 -22 q 322 3 350 -14 q 257 160 265 40 q 223 78 250 149 q 175 -4 196 7 q 90 -10 147 -22 q 14 63 35 0 q -6 146 -3 126 q 26 533 -29 350 q 70 606 43 594 q 163 589 97 617 q 165 587 164 589 q 169 583 167 585 q 175 578 172 581 q 163 504 171 551 q 150 418 156 457 q 142 344 144 379 q 139 104 131 236 q 149 71 138 64 q 246 292 167 82 q 260 291 250 292 q 279 289 271 290 q 337 270 308 285 q 361 238 365 256 q 358 85 340 165 q 432 31 376 6 q 544 228 510 67 q 458 342 486 258 q 436 516 431 425 q 471 672 442 607 q 497 716 485 701 q 522 732 508 731 q 549 730 536 733 q 583 720 561 726 q 626 714 606 714 q 718 670 683 713 q 760 561 753 628 q 760 417 768 494 q 729 260 753 339 q 815 289 781 271 q 811 217 833 231 q 707 193 775 193 q 606 18 663 71 m 556 271 q 567 458 571 303 q 535 653 564 614 q 481 569 493 643 q 489 406 468 494 q 556 271 510 318 z "},"x":{"ha":444,"x_min":-42,"x_max":506,"o":"m 447 289 q 486 215 506 254 q 301 -8 408 60 q 190 -7 265 -31 q 123 33 147 6 q 81 108 99 61 q 38 42 67 89 q 3 -12 8 -4 q -31 13 -21 -8 q -28 54 -42 35 l 56 181 q 18 400 26 283 q 31 594 10 517 q 88 613 42 631 q 124 598 104 606 q 153 588 144 590 q 172 579 161 585 q 184 571 182 574 q 188 560 186 568 q 189 545 190 553 q 185 524 188 538 q 171 324 160 400 q 274 426 208 361 q 374 525 340 492 q 407 467 428 500 q 302 360 369 424 q 208 268 235 296 q 185 217 189 247 q 184 173 181 188 q 197 122 188 158 q 332 96 235 -12 q 447 289 401 172 z "},"y":{"ha":665,"x_min":-51,"x_max":704,"o":"m 667 281 q 696 257 688 275 q 699 228 704 239 q 575 88 647 128 q 565 83 569 85 q 558 78 560 81 q 553 76 556 76 q 551 72 551 76 q 551 66 551 68 q 550 56 550 64 q 488 -196 539 -76 q 350 -382 438 -315 q 131 -421 249 -461 q 81 -401 114 -412 q -25 -307 1 -376 q -29 -165 -51 -237 q 60 -40 -4 -89 q 140 9 93 -14 q 215 41 188 32 q 310 68 242 50 q 390 90 378 86 q 424 124 422 101 q 432 365 432 229 q 249 153 340 229 q 120 137 193 113 q 18 217 47 161 q -7 285 0 251 q -9 360 -14 319 q 1 423 -4 400 q 22 495 6 446 q 42 561 38 544 q 47 584 44 576 q 57 601 49 592 q 78 610 65 611 q 165 582 113 608 q 183 567 175 579 q 190 547 192 556 q 260 246 43 14 q 265 253 263 250 q 454 556 346 342 q 498 580 468 581 q 558 564 528 579 q 588 533 589 549 q 581 459 588 522 q 567 307 575 396 q 554 149 558 218 q 667 281 617 179 m 410 43 q 349 26 394 39 q 286 8 304 14 q 233 -10 268 3 q 177 -34 197 -22 q 132 -64 157 -46 q 88 -103 107 -82 q 41 -247 29 -169 q 111 -340 53 -325 q 249 -285 169 -354 q 410 43 361 -167 z "},"z":{"ha":611,"x_min":-85,"x_max":664,"o":"m 135 288 q 28 376 57 346 q 25 479 -15 424 q 111 567 64 532 q 336 631 208 639 q 460 533 419 625 q 449 454 478 496 q 401 398 435 435 q 356 346 367 361 q 356 305 342 326 q 396 266 369 283 q 447 222 422 249 q 476 167 472 194 q 617 288 578 192 q 640 278 628 286 q 658 254 651 271 q 646 214 664 238 q 488 100 583 125 q 271 -239 460 -99 q 210 -276 251 -256 q 120 -303 160 -299 q 47 -292 81 -307 q -10 -257 14 -276 q -67 -200 -33 -237 q -74 -132 -85 -179 q 50 32 -39 -39 q 326 128 150 106 q 413 144 332 129 q 374 233 428 196 q 293 299 328 264 q 290 382 258 335 q 361 458 311 408 q 404 550 406 511 q 266 530 338 572 q 163 424 194 488 q 174 315 125 357 q 167 284 179 293 q 135 288 154 275 m 4 -183 q 156 -157 69 -196 q 310 -51 243 -118 q 390 79 378 15 q 139 7 236 64 q 35 -90 74 -31 q 4 -183 1 -144 z "},"{":{"ha":372,"x_min":8,"x_max":379,"o":"m 163 367 q 221 203 224 299 q 220 150 221 192 q 222 87 219 108 q 232 33 225 65 q 256 -17 239 1 q 303 -43 274 -35 q 317 -65 333 -53 q 278 -75 301 -76 q 197 -66 232 -76 q 142 -31 163 -56 q 107 19 121 -6 q 87 84 93 43 q 78 152 81 125 q 74 224 76 179 q 71 289 72 269 q 8 389 60 369 q 36 438 8 419 q 107 557 100 483 q 112 649 108 579 q 117 757 115 719 q 126 854 114 801 q 164 955 139 907 q 230 1028 189 1003 q 319 1042 271 1054 q 367 1015 347 1032 q 377 1002 375 1010 q 375 988 379 994 q 361 978 371 981 q 284 884 308 963 q 254 729 260 806 q 252 645 253 706 q 249 551 251 585 q 163 367 246 432 z "},"|":{"ha":274,"x_min":6,"x_max":267,"o":"m 225 1015 q 260 985 253 1004 q 260 928 267 967 q 156 114 199 556 q 147 35 151 88 q 142 -36 143 -17 q 128 -78 138 -71 q 82 -82 118 -85 q 63 -81 71 -83 q 50 -74 56 -79 q 41 -65 44 -68 q 35 -50 38 -61 q 33 -35 33 -39 q 31 -17 32 -31 q 29 1 29 -3 q 49 522 6 199 q 163 989 92 846 q 187 1023 178 1019 q 225 1015 196 1026 z "},"}":{"ha":439,"x_min":13,"x_max":383,"o":"m 229 589 q 171 753 168 657 q 172 806 171 764 q 169 869 172 847 q 160 922 167 890 q 135 972 153 954 q 89 999 118 990 q 75 1021 58 1008 q 114 1031 89 1033 q 194 1022 160 1032 q 250 986 229 1011 q 285 937 271 961 q 305 872 299 913 q 313 803 311 831 q 317 731 315 776 q 321 667 319 686 q 383 567 332 586 q 356 518 383 536 q 285 399 292 472 q 280 306 283 376 q 275 199 276 236 q 265 101 278 154 q 228 1 253 49 q 162 -73 203 -47 q 72 -86 121 -99 q 25 -60 44 -76 q 15 -47 17 -54 q 17 -32 13 -39 q 31 -22 21 -25 q 108 72 83 -7 q 138 226 132 150 q 140 310 139 250 q 143 404 140 371 q 229 589 146 524 z "},"~":{"ha":574,"x_min":11,"x_max":486,"o":"m 61 226 q 15 283 19 250 q 33 347 11 317 q 83 401 56 378 q 131 435 110 425 q 248 422 194 464 q 306 315 301 379 q 383 313 310 253 q 449 383 431 350 q 482 335 478 361 q 473 286 486 308 q 435 243 460 264 q 372 213 408 221 q 303 218 335 204 q 231 322 256 244 q 107 283 208 397 q 61 226 79 254 z "},"":{"ha":225,"x_min":-79,"x_max":174,"o":"m 86 -167 q 43 -193 76 -197 q -58 -166 -36 -183 q -65 -99 -79 -149 q 35 599 -12 200 q 36 622 36 610 q 36 641 36 635 q 38 653 36 647 q 40 662 39 660 q 47 666 42 664 q 60 668 53 668 q 78 667 67 668 q 158 615 157 657 q 135 176 163 460 q 86 -167 107 -107 m 97 853 q 131 844 125 847 q 165 808 157 835 q 157 760 174 782 q 63 757 135 738 q 51 765 56 758 q 46 779 47 772 q 44 798 44 786 q 43 814 43 810 q 97 853 43 853 z "},"":{"ha":468,"x_min":-14,"x_max":429,"o":"m 279 89 l 278 74 q 278 47 278 61 q 278 27 278 32 q 276 14 278 22 q 271 6 275 6 q 258 3 267 7 q 238 4 250 0 q 156 51 158 11 q 151 104 156 53 q -4 317 18 158 q 1 476 -14 388 q 62 640 15 565 q 176 724 108 715 q 193 836 185 813 q 236 864 203 868 q 338 841 315 857 q 347 775 360 825 l 339 699 q 356 694 350 699 q 382 597 382 650 q 351 507 382 544 q 278 482 321 469 q 288 508 278 483 q 300 558 297 532 q 290 631 303 583 q 178 460 219 604 q 161 215 136 317 q 260 151 185 119 q 331 206 306 171 q 374 294 356 242 q 422 258 414 276 q 419 229 429 240 q 279 89 378 106 z "},"":{"ha":738,"x_min":0,"x_max":706,"o":"m 526 386 q 447 385 500 385 q 447 358 447 375 q 446 333 446 342 q 385 118 442 206 q 531 106 449 76 q 625 201 588 131 q 694 151 682 178 q 679 81 706 124 q 584 5 646 24 q 458 13 522 -14 l 415 33 q 283 35 347 68 q 217 17 243 14 q 160 47 192 21 q 156 96 128 68 q 208 132 179 122 q 258 178 247 149 q 299 385 294 268 l 265 385 q 210 407 239 385 q 226 438 178 432 q 239 439 232 439 l 299 443 l 294 513 q 138 391 188 451 q 104 240 88 331 q 36 265 63 244 q 6 315 10 285 q 13 390 0 357 q 59 451 26 424 q 122 496 92 478 q 200 538 153 514 q 272 578 247 563 q 290 598 285 585 q 294 635 294 611 q 296 664 294 658 q 413 940 314 858 q 540 942 481 989 q 622 867 604 893 q 638 832 632 850 q 594 683 667 744 q 489 614 543 642 q 453 560 454 593 l 450 451 q 486 453 461 453 q 604 410 565 453 q 526 386 625 386 m 564 826 q 500 758 535 811 q 460 672 465 704 q 578 778 551 721 q 564 826 594 817 z "},"":{"ha":554,"x_min":0,"x_max":513,"o":"m 365 324 q 425 319 404 322 q 471 302 446 317 q 513 258 496 288 l 401 258 q 358 248 365 257 q 339 189 350 239 q 369 183 349 186 q 401 177 389 181 q 429 161 414 174 q 456 128 444 149 q 391 119 438 125 q 321 110 344 114 q 290 -31 304 42 q 222 1 239 -21 q 196 90 204 22 q 153 88 183 92 q 102 90 124 83 q 64 122 81 96 q 77 143 68 135 q 92 153 86 151 q 113 157 99 156 q 131 160 126 158 q 169 167 143 163 q 207 174 194 171 q 217 229 207 179 q 167 224 201 231 q 109 224 133 218 q 64 260 85 231 q 148 288 90 279 q 229 308 206 296 q 244 400 233 336 q 239 404 243 400 q 190 351 236 401 q 147 322 163 325 q 97 338 131 319 q 17 423 35 379 q 11 556 0 467 q 125 878 32 718 q 159 914 146 911 q 199 896 172 917 q 219 876 207 888 q 236 860 232 865 q 245 848 240 856 q 249 833 250 840 q 247 814 249 825 q 240 785 246 803 q 135 531 165 628 q 131 408 103 424 q 215 479 158 392 q 279 587 246 526 q 353 723 313 647 q 415 839 393 799 q 426 860 419 846 q 434 876 432 874 q 442 880 436 878 q 456 877 449 882 q 475 861 463 872 q 507 828 504 835 q 501 782 510 821 q 435 558 479 710 q 365 324 390 406 z "},"":{"ha":285,"x_min":40,"x_max":239,"o":"m 115 963 q 122 957 115 963 q 128 932 128 950 q 115 901 128 914 q 85 889 103 889 q 53 901 67 889 q 40 932 40 914 q 53 963 40 950 q 85 976 67 976 q 115 963 103 976 m 226 963 q 232 957 226 963 q 239 932 239 950 q 226 901 239 914 q 194 889 213 889 q 163 901 176 889 q 150 932 150 914 q 163 963 150 950 q 194 976 175 976 q 226 963 213 976 z "},"":{"ha":561,"x_min":3,"x_max":479,"o":"m 479 310 q 301 292 378 299 q 253 158 265 199 q 185 193 194 175 q 186 289 176 211 q 146 287 174 289 q 102 285 118 285 q 65 297 86 286 q 32 333 44 308 q 124 357 63 353 q 206 368 185 361 q 224 416 207 371 q 260 481 242 461 q 324 442 313 463 q 329 367 336 422 q 408 365 382 367 q 479 310 442 361 m 353 69 q 92 68 265 68 q 36 93 65 68 q 54 126 3 121 q 65 128 60 128 q 313 142 257 140 q 384 132 358 142 q 432 96 410 122 q 432 81 435 86 q 411 74 429 76 q 381 70 393 71 q 353 69 369 69 z "},"":{"ha":249,"x_min":36,"x_max":211,"o":"m 211 988 q 146 888 167 918 q 101 845 119 850 q 36 857 83 840 q 77 932 43 883 q 133 996 111 981 q 211 988 168 1019 z "},"":{"ha":367,"x_min":42,"x_max":307,"o":"m 42 160 q 85 155 58 163 q 133 147 111 147 q 171 167 154 147 q 185 181 172 168 q 204 205 199 194 q 211 231 210 215 q 140 239 143 238 q 81 268 89 251 q 96 332 74 285 q 168 460 113 364 q 249 425 218 438 q 215 354 236 400 q 183 286 194 308 q 243 263 229 269 q 291 228 275 246 q 306 179 307 210 q 279 118 303 147 q 226 85 256 89 q 53 133 135 69 q 42 160 49 136 z "},"":{"ha":665,"x_min":-32,"x_max":622,"o":"m 444 175 q 501 251 482 207 q 501 328 521 294 q 481 351 494 342 q 519 376 507 375 q 556 361 531 378 q 613 272 604 328 q 599 163 622 215 q 535 75 575 110 q 174 -17 375 -68 q -17 192 39 18 q 4 303 -32 238 q 103 399 35 336 q 221 511 171 463 q 326 644 271 560 q 413 824 382 729 q 496 785 432 886 q 500 779 499 782 q 481 616 526 704 q 368 468 436 528 q 308 417 351 453 q 226 346 265 381 q 160 278 188 311 q 138 110 53 150 q 326 115 204 79 q 444 175 404 138 m 458 1018 q 492 1010 486 1013 q 526 974 518 1000 q 518 925 535 947 q 424 922 496 903 q 413 931 417 924 q 407 944 408 938 q 405 963 406 951 q 404 979 404 975 q 458 1018 404 1018 z "},"":{"ha":847,"x_min":-6,"x_max":924,"o":"m 650 364 q 706 350 707 369 q 664 321 706 332 l 635 315 q 617 0 606 171 q 667 -140 626 -147 q 708 -96 685 -136 q 826 190 785 33 q 835 240 831 207 q 842 282 840 272 q 850 324 847 307 q 897 306 869 317 q 921 269 924 296 q 913 197 914 201 q 828 -46 888 60 q 769 -132 801 -93 q 656 -189 715 -201 q 504 -86 526 -162 q 483 50 486 -26 q 483 174 479 126 q 496 301 486 222 q 219 133 347 261 q 178 -14 194 107 q 101 13 118 -14 q 89 100 68 67 q 143 233 115 144 q 179 342 171 322 q 381 761 279 599 q 408 801 386 771 q 446 865 454 864 q 442 864 444 865 q 298 760 382 836 q 153 591 214 683 q 113 446 92 499 q 107 426 121 426 q 83 433 93 426 q 18 501 42 457 q 3 586 -6 544 q 100 767 24 690 q 231 875 182 846 q 501 1025 282 907 q 556 1042 525 1038 q 589 1033 582 1044 q 609 1010 597 1021 q 630 994 621 1000 q 656 980 639 989 q 679 967 672 971 q 738 865 742 933 q 719 713 731 779 q 657 407 717 694 q 650 364 654 400 m 500 353 q 545 590 515 432 q 590 828 575 749 q 579 831 582 831 q 267 276 389 604 q 500 353 394 332 m 721 1092 q 606 1117 668 1078 q 515 1221 544 1156 q 600 1207 557 1242 q 719 1101 642 1174 q 721 1092 721 1100 z "},"":{"ha":847,"x_min":-6,"x_max":924,"o":"m 650 364 q 706 350 707 369 q 664 321 706 332 l 635 315 q 617 0 606 171 q 667 -140 626 -147 q 708 -96 685 -136 q 826 190 785 33 q 835 240 831 207 q 842 282 840 272 q 850 324 847 307 q 897 306 869 317 q 921 269 924 296 q 913 197 914 201 q 828 -46 888 60 q 769 -132 801 -93 q 656 -189 715 -201 q 504 -86 526 -162 q 483 50 486 -26 q 483 174 479 126 q 496 301 486 222 q 219 133 347 261 q 178 -14 194 107 q 101 13 118 -14 q 89 100 68 67 q 143 233 115 144 q 179 342 171 322 q 381 761 279 599 q 408 801 386 771 q 446 865 454 864 q 442 864 444 865 q 298 760 382 836 q 153 591 214 683 q 113 446 92 499 q 107 426 121 426 q 83 433 93 426 q 18 501 42 457 q 3 586 -6 544 q 100 767 24 690 q 231 875 182 846 q 501 1025 282 907 q 556 1042 525 1038 q 589 1033 582 1044 q 609 1010 597 1021 q 630 994 621 1000 q 656 980 639 989 q 679 967 672 971 q 738 865 742 933 q 719 713 731 779 q 657 407 717 694 q 650 364 654 400 m 500 353 q 545 590 515 432 q 590 828 575 749 q 579 831 582 831 q 267 276 389 604 q 500 353 394 332 m 765 1232 q 700 1132 721 1163 q 656 1090 674 1094 q 590 1101 638 1085 q 631 1177 597 1129 q 688 1240 665 1225 q 765 1232 722 1264 z "},"":{"ha":847,"x_min":-6,"x_max":924,"o":"m 650 364 q 706 350 707 369 q 664 321 706 332 l 635 315 q 617 0 606 171 q 667 -140 626 -147 q 708 -96 685 -136 q 826 190 785 33 q 835 240 831 207 q 842 282 840 272 q 850 324 847 307 q 897 306 869 317 q 921 269 924 296 q 913 197 914 201 q 828 -46 888 60 q 769 -132 801 -93 q 656 -189 715 -201 q 504 -86 526 -162 q 483 50 486 -26 q 483 174 479 126 q 496 301 486 222 q 219 133 347 261 q 178 -14 194 107 q 101 13 118 -14 q 89 100 68 67 q 143 233 115 144 q 179 342 171 322 q 381 761 279 599 q 408 801 386 771 q 446 865 454 864 q 442 864 444 865 q 298 760 382 836 q 153 591 214 683 q 113 446 92 499 q 107 426 121 426 q 83 433 93 426 q 18 501 42 457 q 3 586 -6 544 q 100 767 24 690 q 231 875 182 846 q 501 1025 282 907 q 556 1042 525 1038 q 589 1033 582 1044 q 609 1010 597 1021 q 630 994 621 1000 q 656 980 639 989 q 679 967 672 971 q 738 865 742 933 q 719 713 731 779 q 657 407 717 694 q 650 364 654 400 m 500 353 q 545 590 515 432 q 590 828 575 749 q 579 831 582 831 q 267 276 389 604 q 500 353 394 332 m 560 1113 q 650 1261 599 1210 q 701 1269 669 1281 q 736 1233 732 1258 q 742 1160 739 1208 q 746 1094 744 1113 q 663 1153 679 1079 q 615 1103 628 1108 q 560 1113 601 1097 z "},"":{"ha":847,"x_min":-6,"x_max":924,"o":"m 650 364 q 706 350 707 369 q 664 321 706 332 l 635 315 q 617 0 606 171 q 667 -140 626 -147 q 708 -96 685 -136 q 826 190 785 33 q 835 240 831 207 q 842 282 840 272 q 850 324 847 307 q 897 306 869 317 q 921 269 924 296 q 913 197 914 201 q 828 -46 888 60 q 769 -132 801 -93 q 656 -189 715 -201 q 504 -86 526 -162 q 483 50 486 -26 q 483 174 479 126 q 496 301 486 222 q 219 133 347 261 q 178 -14 194 107 q 101 13 118 -14 q 89 100 68 67 q 143 233 115 144 q 179 342 171 322 q 381 761 279 599 q 408 801 386 771 q 446 865 454 864 q 442 864 444 865 q 298 760 382 836 q 153 591 214 683 q 113 446 92 499 q 107 426 121 426 q 83 433 93 426 q 18 501 42 457 q 3 586 -6 544 q 100 767 24 690 q 231 875 182 846 q 501 1025 282 907 q 556 1042 525 1038 q 589 1033 582 1044 q 609 1010 597 1021 q 630 994 621 1000 q 656 980 639 989 q 679 967 672 971 q 738 865 742 933 q 719 713 731 779 q 657 407 717 694 q 650 364 654 400 m 500 353 q 545 590 515 432 q 590 828 575 749 q 579 831 582 831 q 267 276 389 604 q 500 353 394 332 m 740 1272 q 792 1253 782 1265 q 797 1203 801 1242 q 758 1120 789 1153 q 679 1101 726 1088 q 640 1127 663 1107 q 600 1154 618 1147 q 591 1137 599 1151 q 576 1115 583 1122 q 561 1107 569 1107 q 511 1135 518 1118 q 528 1189 504 1151 q 534 1198 531 1193 q 542 1209 538 1203 q 549 1218 546 1215 q 617 1247 581 1253 q 671 1196 654 1240 q 682 1168 675 1183 q 684 1165 682 1167 q 686 1163 686 1164 q 708 1186 701 1172 q 740 1272 715 1200 z "},"":{"ha":847,"x_min":-6,"x_max":924,"o":"m 650 364 q 706 350 707 369 q 664 321 706 332 l 635 315 q 617 0 606 171 q 667 -140 626 -147 q 708 -96 685 -136 q 826 190 785 33 q 835 240 831 207 q 842 282 840 272 q 850 324 847 307 q 897 306 869 317 q 921 269 924 296 q 913 197 914 201 q 828 -46 888 60 q 769 -132 801 -93 q 656 -189 715 -201 q 504 -86 526 -162 q 483 50 486 -26 q 483 174 479 126 q 496 301 486 222 q 219 133 347 261 q 178 -14 194 107 q 101 13 118 -14 q 89 100 68 67 q 143 233 115 144 q 179 342 171 322 q 381 761 279 599 q 408 801 386 771 q 446 865 454 864 q 442 864 444 865 q 298 760 382 836 q 153 591 214 683 q 113 446 92 499 q 107 426 121 426 q 83 433 93 426 q 18 501 42 457 q 3 586 -6 544 q 100 767 24 690 q 231 875 182 846 q 501 1025 282 907 q 556 1042 525 1038 q 589 1033 582 1044 q 609 1010 597 1021 q 630 994 621 1000 q 656 980 639 989 q 679 967 672 971 q 738 865 742 933 q 719 713 731 779 q 657 407 717 694 q 650 364 654 400 m 500 353 q 545 590 515 432 q 590 828 575 749 q 579 831 582 831 q 267 276 389 604 q 500 353 394 332 m 625 1174 q 631 1168 625 1174 q 638 1143 638 1161 q 625 1113 638 1125 q 594 1100 613 1100 q 563 1113 576 1100 q 550 1143 550 1125 q 563 1174 550 1161 q 594 1188 575 1188 q 625 1174 613 1188 m 735 1174 q 742 1168 735 1174 q 749 1143 749 1161 q 735 1113 749 1125 q 704 1100 722 1100 q 673 1113 686 1100 q 660 1143 660 1125 q 673 1174 660 1161 q 704 1188 686 1188 q 735 1174 722 1188 z "},"":{"ha":847,"x_min":-6,"x_max":924,"o":"m 650 364 q 706 350 707 369 q 664 321 706 332 l 635 315 q 617 0 606 171 q 667 -140 626 -147 q 708 -96 685 -136 q 826 190 785 33 q 835 240 831 207 q 842 282 840 272 q 850 324 847 307 q 897 306 869 317 q 921 269 924 296 q 913 197 914 201 q 828 -46 888 60 q 769 -132 801 -93 q 656 -189 715 -201 q 504 -86 526 -162 q 483 50 486 -26 q 483 174 479 126 q 496 301 486 222 q 219 133 347 261 q 178 -14 194 107 q 101 13 118 -14 q 89 100 68 67 q 143 233 115 144 q 179 342 171 322 q 381 761 279 599 q 408 801 386 771 q 446 865 454 864 q 442 864 444 865 q 298 760 382 836 q 153 591 214 683 q 113 446 92 499 q 107 426 121 426 q 83 433 93 426 q 18 501 42 457 q 3 586 -6 544 q 100 767 24 690 q 231 875 182 846 q 501 1025 282 907 q 556 1042 525 1038 q 589 1033 582 1044 q 609 1010 597 1021 q 630 994 621 1000 q 656 980 639 989 q 679 967 672 971 q 738 865 742 933 q 719 713 731 779 q 657 407 717 694 q 650 364 654 400 m 500 353 q 545 590 515 432 q 590 828 575 749 q 579 831 582 831 q 267 276 389 604 q 500 353 394 332 m 682 1067 q 661 1075 678 1068 q 630 1089 644 1082 q 604 1104 615 1096 q 582 1153 582 1119 q 627 1232 583 1199 q 715 1240 671 1265 q 739 1231 722 1236 q 792 1153 804 1200 q 752 1091 782 1115 q 682 1067 722 1067 m 718 1188 q 674 1166 683 1181 q 674 1117 665 1151 q 718 1188 724 1143 z "},"":{"ha":1154,"x_min":-7,"x_max":1215,"o":"m 928 1007 q 1000 1022 963 1022 q 1069 1006 1053 1022 q 1172 879 1113 963 q 1176 853 1183 871 q 1158 822 1168 836 q 1129 792 1147 808 q 1100 766 1111 775 q 1079 750 1089 757 q 690 539 919 635 l 694 531 q 879 568 799 546 q 928 572 917 576 q 961 535 939 568 q 972 511 963 533 q 932 481 938 483 q 868 435 914 467 q 799 386 822 404 q 657 196 706 313 q 663 24 606 71 q 851 32 717 -18 q 1163 311 969 74 q 1185 292 1172 304 q 1214 251 1213 264 q 1190 208 1215 239 q 1063 67 1119 124 q 935 -28 1006 11 q 739 -69 835 -90 q 596 19 672 -56 q 503 158 519 93 q 499 307 486 222 q 345 231 424 279 q 218 133 267 182 q 176 -14 193 107 q 100 13 117 -14 q 88 100 67 67 q 142 233 114 144 q 178 342 169 322 q 379 761 278 599 q 407 801 385 771 q 444 865 453 864 q 440 864 443 865 q 297 760 381 836 q 151 591 213 683 q 111 446 90 499 q 106 426 119 426 q 82 433 92 426 q 17 501 40 457 q 1 586 -7 544 q 99 767 22 690 q 229 875 181 846 q 500 1025 281 907 q 554 1042 524 1038 q 588 1033 581 1044 q 608 1010 596 1021 q 628 994 619 1000 q 654 980 638 989 q 678 967 671 971 q 735 888 729 939 q 928 1007 813 954 m 499 353 l 589 828 q 578 831 581 831 q 265 276 388 604 q 499 353 393 332 m 740 631 q 910 711 779 639 q 1074 826 1040 783 q 1078 874 1089 844 q 1038 906 1067 903 q 904 832 988 899 q 818 741 871 804 q 740 631 765 678 m 649 393 l 715 460 l 663 453 l 649 393 z "},"":{"ha":821,"x_min":-25,"x_max":939,"o":"m 289 525 q 72 269 7 440 q 69 232 83 231 q 51 246 63 232 q -22 401 -19 332 q 26 512 -25 469 q 143 578 78 554 q 285 613 208 603 q 349 656 314 617 q 436 769 386 699 q 533 894 486 839 q 640 992 581 949 q 751 1053 686 1028 q 865 1028 817 1081 q 872 1018 868 1024 q 879 1010 876 1013 q 926 955 913 979 q 933 894 939 931 q 894 813 928 858 q 826 738 863 769 q 738 681 790 707 q 649 639 686 654 q 536 596 611 624 q 497 569 522 590 q 465 533 472 547 q 368 182 364 329 q 414 29 371 71 q 547 33 457 -12 q 833 308 676 97 q 874 283 861 297 q 881 251 886 269 q 867 218 875 232 q 840 178 860 204 q 583 -39 724 15 q 499 -54 538 -58 l 488 -78 l 519 -90 q 551 -133 553 -108 q 538 -166 550 -150 q 510 -183 525 -182 q 419 -158 461 -192 q 417 -156 418 -157 q 416 -151 417 -154 q 414 -144 415 -147 q 437 -147 424 -143 q 461 -150 450 -150 q 481 -140 472 -150 q 489 -133 482 -139 q 499 -121 496 -126 q 503 -107 501 -115 q 465 -103 468 -103 q 435 -88 439 -97 q 442 -54 431 -79 l 447 -42 q 404 -18 425 -33 q 291 97 332 31 q 243 238 250 164 q 248 382 236 311 q 289 525 260 453 m 535 669 q 763 781 656 678 q 836 899 838 851 q 817 925 836 919 q 767 918 794 933 q 723 884 747 906 q 670 831 699 863 q 622 775 642 799 q 572 715 601 751 q 535 669 543 679 z "},"":{"ha":821,"x_min":1,"x_max":882,"o":"m 361 531 q 546 568 465 546 q 594 572 583 576 q 628 535 606 568 q 639 511 629 533 q 599 481 604 483 q 535 435 581 467 q 465 386 489 404 q 324 196 372 313 q 329 24 272 71 q 518 32 382 -18 q 829 311 636 74 q 851 292 839 304 q 881 251 879 264 q 857 208 882 239 q 729 67 786 124 q 601 -28 672 11 q 406 -69 501 -90 q 263 19 339 -56 q 169 158 186 93 q 185 281 156 221 q 293 417 219 353 q 332 450 307 428 q 299 480 321 461 q 267 508 276 499 q 201 497 250 506 q 126 485 153 488 q 6 546 40 475 q 6 561 1 558 q 24 560 11 564 q 43 557 38 557 q 224 576 144 547 q 230 588 228 578 q 233 610 232 597 q 235 628 233 624 q 365 852 274 761 q 594 1007 456 943 q 667 1022 629 1022 q 736 1006 719 1022 q 839 879 779 963 q 842 853 850 871 q 824 822 835 836 q 796 792 814 808 q 767 766 778 775 q 746 750 756 757 q 357 539 586 635 l 361 531 m 407 631 q 576 711 446 639 q 740 826 707 783 q 744 874 756 844 q 704 906 733 903 q 571 832 654 899 q 485 741 538 804 q 407 631 432 678 m 579 1097 q 465 1122 526 1083 q 374 1226 403 1161 q 458 1213 415 1247 q 578 1107 500 1179 q 579 1097 579 1106 z "},"":{"ha":821,"x_min":1,"x_max":882,"o":"m 361 531 q 546 568 465 546 q 594 572 583 576 q 628 535 606 568 q 639 511 629 533 q 599 481 604 483 q 535 435 581 467 q 465 386 489 404 q 324 196 372 313 q 329 24 272 71 q 518 32 382 -18 q 829 311 636 74 q 851 292 839 304 q 881 251 879 264 q 857 208 882 239 q 729 67 786 124 q 601 -28 672 11 q 406 -69 501 -90 q 263 19 339 -56 q 169 158 186 93 q 185 281 156 221 q 293 417 219 353 q 332 450 307 428 q 299 480 321 461 q 267 508 276 499 q 201 497 250 506 q 126 485 153 488 q 6 546 40 475 q 6 561 1 558 q 24 560 11 564 q 43 557 38 557 q 224 576 144 547 q 230 588 228 578 q 233 610 232 597 q 235 628 233 624 q 365 852 274 761 q 594 1007 456 943 q 667 1022 629 1022 q 736 1006 719 1022 q 839 879 779 963 q 842 853 850 871 q 824 822 835 836 q 796 792 814 808 q 767 766 778 775 q 746 750 756 757 q 357 539 586 635 l 361 531 m 407 631 q 576 711 446 639 q 740 826 707 783 q 744 874 756 844 q 704 906 733 903 q 571 832 654 899 q 485 741 538 804 q 407 631 432 678 m 567 1207 q 501 1107 522 1138 q 457 1065 475 1069 q 392 1076 439 1060 q 433 1151 399 1103 q 489 1215 467 1200 q 567 1207 524 1239 z "},"":{"ha":821,"x_min":1,"x_max":882,"o":"m 361 531 q 546 568 465 546 q 594 572 583 576 q 628 535 606 568 q 639 511 629 533 q 599 481 604 483 q 535 435 581 467 q 465 386 489 404 q 324 196 372 313 q 329 24 272 71 q 518 32 382 -18 q 829 311 636 74 q 851 292 839 304 q 881 251 879 264 q 857 208 882 239 q 729 67 786 124 q 601 -28 672 11 q 406 -69 501 -90 q 263 19 339 -56 q 169 158 186 93 q 185 281 156 221 q 293 417 219 353 q 332 450 307 428 q 299 480 321 461 q 267 508 276 499 q 201 497 250 506 q 126 485 153 488 q 6 546 40 475 q 6 561 1 558 q 24 560 11 564 q 43 557 38 557 q 224 576 144 547 q 230 588 228 578 q 233 610 232 597 q 235 628 233 624 q 365 852 274 761 q 594 1007 456 943 q 667 1022 629 1022 q 736 1006 719 1022 q 839 879 779 963 q 842 853 850 871 q 824 822 835 836 q 796 792 814 808 q 767 766 778 775 q 746 750 756 757 q 357 539 586 635 l 361 531 m 407 631 q 576 711 446 639 q 740 826 707 783 q 744 874 756 844 q 704 906 733 903 q 571 832 654 899 q 485 741 538 804 q 407 631 432 678 m 374 1074 q 464 1222 413 1171 q 515 1231 483 1242 q 550 1194 546 1219 q 556 1122 553 1169 q 560 1056 558 1074 q 476 1114 493 1040 q 428 1064 440 1069 q 374 1074 415 1058 z "},"":{"ha":821,"x_min":1,"x_max":882,"o":"m 361 531 q 546 568 465 546 q 594 572 583 576 q 628 535 606 568 q 639 511 629 533 q 599 481 604 483 q 535 435 581 467 q 465 386 489 404 q 324 196 372 313 q 329 24 272 71 q 518 32 382 -18 q 829 311 636 74 q 851 292 839 304 q 881 251 879 264 q 857 208 882 239 q 729 67 786 124 q 601 -28 672 11 q 406 -69 501 -90 q 263 19 339 -56 q 169 158 186 93 q 185 281 156 221 q 293 417 219 353 q 332 450 307 428 q 299 480 321 461 q 267 508 276 499 q 201 497 250 506 q 126 485 153 488 q 6 546 40 475 q 6 561 1 558 q 24 560 11 564 q 43 557 38 557 q 224 576 144 547 q 230 588 228 578 q 233 610 232 597 q 235 628 233 624 q 365 852 274 761 q 594 1007 456 943 q 667 1022 629 1022 q 736 1006 719 1022 q 839 879 779 963 q 842 853 850 871 q 824 822 835 836 q 796 792 814 808 q 767 766 778 775 q 746 750 756 757 q 357 539 586 635 l 361 531 m 407 631 q 576 711 446 639 q 740 826 707 783 q 744 874 756 844 q 704 906 733 903 q 571 832 654 899 q 485 741 538 804 q 407 631 432 678 m 442 1160 q 448 1154 442 1160 q 454 1129 454 1147 q 442 1099 454 1111 q 411 1086 429 1086 q 380 1099 393 1086 q 367 1129 367 1111 q 379 1160 367 1147 q 411 1174 392 1174 q 442 1160 429 1174 m 552 1160 q 559 1154 552 1160 q 565 1129 565 1147 q 552 1099 565 1111 q 521 1086 539 1086 q 490 1099 503 1086 q 476 1129 476 1111 q 490 1160 476 1147 q 521 1174 503 1174 q 552 1160 539 1174 z "},"":{"ha":524,"x_min":-14,"x_max":528,"o":"m 310 890 q 164 666 217 818 q 156 422 111 514 q 110 419 135 397 q 24 501 50 472 q 4 624 -14 544 q 42 710 17 665 q 310 985 149 878 q 355 1003 336 1003 q 406 983 374 1004 q 451 953 418 974 q 501 919 485 933 q 517 861 528 894 q 443 307 439 614 l 447 28 q 397 -85 443 -42 q 285 -96 350 -128 q 204 -49 215 -58 q 210 -8 179 -25 q 242 18 229 3 q 259 56 254 33 q 265 94 264 79 q 265 142 265 110 q 273 517 258 283 q 310 890 288 751 m 526 1051 q 412 1076 474 1038 q 321 1181 350 1115 q 406 1167 363 1201 q 525 1061 447 1133 q 526 1051 526 1061 z "},"":{"ha":524,"x_min":-14,"x_max":542,"o":"m 310 890 q 164 666 217 818 q 156 422 111 514 q 110 419 135 397 q 24 501 50 472 q 4 624 -14 544 q 42 710 17 665 q 310 985 149 878 q 355 1003 336 1003 q 406 983 374 1004 q 451 953 418 974 q 501 919 485 933 q 517 861 528 894 q 443 307 439 614 l 447 28 q 397 -85 443 -42 q 285 -96 350 -128 q 204 -49 215 -58 q 210 -8 179 -25 q 242 18 229 3 q 259 56 254 33 q 265 94 264 79 q 265 142 265 110 q 273 517 258 283 q 310 890 288 751 m 542 1204 q 476 1104 497 1135 q 432 1062 450 1067 q 367 1074 414 1057 q 408 1149 374 1100 q 464 1213 442 1197 q 542 1204 499 1236 z "},"":{"ha":524,"x_min":-14,"x_max":529,"o":"m 310 890 q 164 666 217 818 q 156 422 111 514 q 110 419 135 397 q 24 501 50 472 q 4 624 -14 544 q 42 710 17 665 q 310 985 149 878 q 355 1003 336 1003 q 406 983 374 1004 q 451 953 418 974 q 501 919 485 933 q 517 861 528 894 q 443 307 439 614 l 447 28 q 397 -85 443 -42 q 285 -96 350 -128 q 204 -49 215 -58 q 210 -8 179 -25 q 242 18 229 3 q 259 56 254 33 q 265 94 264 79 q 265 142 265 110 q 273 517 258 283 q 310 890 288 751 m 343 1081 q 433 1229 382 1178 q 484 1238 453 1249 q 519 1201 515 1226 q 525 1128 522 1176 q 529 1063 528 1081 q 446 1121 463 1047 q 397 1072 410 1076 q 343 1081 385 1067 z "},"":{"ha":524,"x_min":-14,"x_max":529,"o":"m 310 890 q 164 666 217 818 q 156 422 111 514 q 110 419 135 397 q 24 501 50 472 q 4 624 -14 544 q 42 710 17 665 q 310 985 149 878 q 355 1003 336 1003 q 406 983 374 1004 q 451 953 418 974 q 501 919 485 933 q 517 861 528 894 q 443 307 439 614 l 447 28 q 397 -85 443 -42 q 285 -96 350 -128 q 204 -49 215 -58 q 210 -8 179 -25 q 242 18 229 3 q 259 56 254 33 q 265 94 264 79 q 265 142 265 110 q 273 517 258 283 q 310 890 288 751 m 406 1141 q 412 1134 406 1141 q 418 1110 418 1128 q 406 1079 418 1092 q 375 1067 393 1067 q 344 1079 357 1067 q 331 1110 331 1092 q 343 1141 331 1128 q 375 1154 356 1154 q 406 1141 393 1154 m 516 1141 q 523 1134 516 1141 q 529 1110 529 1128 q 516 1079 529 1092 q 485 1067 503 1067 q 453 1079 467 1067 q 440 1110 440 1092 q 453 1141 440 1128 q 485 1154 467 1154 q 516 1141 503 1154 z "},"":{"ha":1013,"x_min":-26,"x_max":1053,"o":"m 292 786 q 153 603 185 654 q 93 400 83 489 l 85 397 q -4 480 18 422 q 8 600 -26 538 q 56 667 33 647 q 167 776 108 718 q 299 905 226 835 q 411 1014 371 975 q 535 992 456 1050 q 596 919 589 953 q 589 903 597 907 q 550 895 564 907 q 521 856 536 883 q 451 614 460 749 q 733 942 611 872 q 846 924 793 975 q 936 726 935 840 q 900 406 940 572 q 886 342 894 389 q 969 344 931 344 q 1031 325 1008 343 q 1043 272 1053 307 q 1013 275 1038 272 q 978 278 989 278 q 944 279 967 279 q 908 276 921 279 q 878 268 894 274 q 853 252 863 263 q 838 226 843 242 q 700 8 790 99 q 529 -81 628 -64 q 260 63 351 -104 q 313 121 289 92 q 308 125 311 122 l 307 129 q 246 218 243 144 l 249 374 q 193 399 222 374 q 211 432 160 426 q 222 433 217 433 q 238 434 228 433 q 251 435 247 435 q 292 786 258 629 m 510 375 q 443 374 488 374 q 396 231 413 297 q 385 164 392 213 q 706 308 532 256 q 725 319 717 311 q 737 335 733 328 q 746 356 740 342 q 838 714 819 529 q 835 813 843 779 q 799 844 828 846 q 719 790 771 842 q 476 447 564 626 q 589 401 553 446 q 589 387 592 392 q 568 379 586 382 q 538 376 550 376 q 510 375 526 375 m 346 40 q 517 94 428 42 q 632 207 606 147 q 346 40 476 144 z "},"":{"ha":1032,"x_min":-44,"x_max":1110,"o":"m 1036 299 q 1082 282 1079 283 q 1101 244 1110 271 q 1010 -12 1060 63 q 908 -81 961 -85 q 740 38 779 -64 q 714 292 700 146 q 818 725 731 479 q 828 783 844 786 q 804 764 821 782 q 618 492 693 644 q 478 143 543 340 q 454 80 469 122 q 432 17 439 38 q 412 -13 422 -8 q 375 -11 401 -18 q 361 -8 369 -11 q 349 -6 353 -6 q 263 82 279 6 q 293 808 196 396 q 167 635 219 765 q 128 410 115 504 q 108 385 135 375 q 26 451 74 396 q 10 476 13 468 q 124 772 -44 638 q 336 997 256 886 q 368 1028 357 1026 q 411 1011 379 1031 q 524 943 490 968 q 549 916 549 926 q 532 881 550 906 q 497 808 513 847 q 425 474 435 642 l 425 321 q 440 351 436 340 q 500 476 447 365 q 582 644 553 588 q 794 901 665 803 q 869 938 844 938 q 947 906 894 939 q 1003 783 1015 864 q 978 657 1003 779 q 935 448 969 613 q 885 193 901 283 q 872 4 860 54 q 925 22 882 -37 q 961 88 947 53 q 1018 243 982 138 q 1036 299 1024 257 m 800 1192 q 851 1173 842 1185 q 857 1122 861 1161 q 817 1040 849 1072 q 739 1021 786 1007 q 700 1047 722 1026 q 660 1074 678 1067 q 651 1056 658 1071 q 636 1034 643 1042 q 621 1026 629 1026 q 571 1054 578 1038 q 588 1108 564 1071 q 594 1117 590 1113 q 601 1128 597 1122 q 608 1138 606 1135 q 677 1166 640 1172 q 731 1115 714 1160 q 742 1088 735 1103 q 744 1085 742 1086 q 746 1082 746 1083 q 768 1106 761 1092 q 800 1192 775 1119 z "},"":{"ha":846,"x_min":-22,"x_max":842,"o":"m 622 904 q 731 731 701 847 q 744 488 760 614 q 683 238 729 363 q 799 294 768 268 q 803 214 842 247 q 639 132 743 161 q 526 -24 585 26 q 357 -54 449 -87 q 161 182 196 11 q 121 243 158 208 q -2 483 18 340 q 43 760 -22 626 q 239 964 108 893 q 496 979 372 1038 q 622 904 556 953 m 157 392 q 172 484 161 435 q 204 587 183 533 q 260 664 225 640 q 339 664 296 688 q 414 622 378 644 q 439 596 436 607 q 432 557 442 585 q 406 486 425 538 q 377 406 386 435 q 358 332 368 376 q 346 249 347 288 q 421 195 364 211 q 556 201 478 179 q 626 735 681 508 q 574 851 607 801 q 490 899 540 900 q 301 813 389 896 q 174 613 214 731 q 157 392 133 494 m 368 1 q 444 37 400 0 q 517 121 489 74 q 431 126 472 114 q 364 156 390 139 q 333 172 338 172 q 335 65 325 132 q 368 1 346 -1 m 640 1051 q 526 1076 588 1038 q 435 1181 464 1115 q 519 1167 476 1201 q 639 1061 561 1133 q 640 1051 640 1061 z "},"":{"ha":846,"x_min":-22,"x_max":842,"o":"m 622 904 q 731 731 701 847 q 744 488 760 614 q 683 238 729 363 q 799 294 768 268 q 803 214 842 247 q 639 132 743 161 q 526 -24 585 26 q 357 -54 449 -87 q 161 182 196 11 q 121 243 158 208 q -2 483 18 340 q 43 760 -22 626 q 239 964 108 893 q 496 979 372 1038 q 622 904 556 953 m 157 392 q 172 484 161 435 q 204 587 183 533 q 260 664 225 640 q 339 664 296 688 q 414 622 378 644 q 439 596 436 607 q 432 557 442 585 q 406 486 425 538 q 377 406 386 435 q 358 332 368 376 q 346 249 347 288 q 421 195 364 211 q 556 201 478 179 q 626 735 681 508 q 574 851 607 801 q 490 899 540 900 q 301 813 389 896 q 174 613 214 731 q 157 392 133 494 m 368 1 q 444 37 400 0 q 517 121 489 74 q 431 126 472 114 q 364 156 390 139 q 333 172 338 172 q 335 65 325 132 q 368 1 346 -1 m 656 1204 q 590 1104 611 1135 q 546 1062 564 1067 q 481 1074 528 1057 q 522 1149 488 1100 q 578 1213 556 1197 q 656 1204 613 1236 z "},"":{"ha":846,"x_min":-22,"x_max":842,"o":"m 622 904 q 731 731 701 847 q 744 488 760 614 q 683 238 729 363 q 799 294 768 268 q 803 214 842 247 q 639 132 743 161 q 526 -24 585 26 q 357 -54 449 -87 q 161 182 196 11 q 121 243 158 208 q -2 483 18 340 q 43 760 -22 626 q 239 964 108 893 q 496 979 372 1038 q 622 904 556 953 m 157 392 q 172 484 161 435 q 204 587 183 533 q 260 664 225 640 q 339 664 296 688 q 414 622 378 644 q 439 596 436 607 q 432 557 442 585 q 406 486 425 538 q 377 406 386 435 q 358 332 368 376 q 346 249 347 288 q 421 195 364 211 q 556 201 478 179 q 626 735 681 508 q 574 851 607 801 q 490 899 540 900 q 301 813 389 896 q 174 613 214 731 q 157 392 133 494 m 368 1 q 444 37 400 0 q 517 121 489 74 q 431 126 472 114 q 364 156 390 139 q 333 172 338 172 q 335 65 325 132 q 368 1 346 -1 m 457 1071 q 547 1219 496 1168 q 598 1228 567 1239 q 633 1192 629 1217 q 639 1119 636 1167 q 643 1053 642 1071 q 560 1111 576 1038 q 512 1061 525 1067 q 457 1071 499 1056 z "},"":{"ha":846,"x_min":-22,"x_max":842,"o":"m 622 904 q 731 731 701 847 q 744 488 760 614 q 683 238 729 363 q 799 294 768 268 q 803 214 842 247 q 639 132 743 161 q 526 -24 585 26 q 357 -54 449 -87 q 161 182 196 11 q 121 243 158 208 q -2 483 18 340 q 43 760 -22 626 q 239 964 108 893 q 496 979 372 1038 q 622 904 556 953 m 157 392 q 172 484 161 435 q 204 587 183 533 q 260 664 225 640 q 339 664 296 688 q 414 622 378 644 q 439 596 436 607 q 432 557 442 585 q 406 486 425 538 q 377 406 386 435 q 358 332 368 376 q 346 249 347 288 q 421 195 364 211 q 556 201 478 179 q 626 735 681 508 q 574 851 607 801 q 490 899 540 900 q 301 813 389 896 q 174 613 214 731 q 157 392 133 494 m 368 1 q 444 37 400 0 q 517 121 489 74 q 431 126 472 114 q 364 156 390 139 q 333 172 338 172 q 335 65 325 132 q 368 1 346 -1 m 628 1231 q 679 1212 669 1224 q 685 1161 689 1200 q 645 1078 676 1111 q 567 1060 614 1046 q 528 1085 550 1065 q 488 1113 506 1106 q 478 1095 486 1110 q 464 1073 471 1081 q 449 1065 457 1065 q 399 1093 406 1076 q 415 1147 392 1110 q 422 1156 418 1151 q 429 1167 425 1161 q 436 1176 433 1174 q 505 1205 468 1211 q 558 1154 542 1199 q 569 1126 563 1142 q 572 1124 569 1125 q 574 1121 574 1122 q 596 1144 589 1131 q 628 1231 603 1158 z "},"":{"ha":846,"x_min":-22,"x_max":842,"o":"m 622 904 q 731 731 701 847 q 744 488 760 614 q 683 238 729 363 q 799 294 768 268 q 803 214 842 247 q 639 132 743 161 q 526 -24 585 26 q 357 -54 449 -87 q 161 182 196 11 q 121 243 158 208 q -2 483 18 340 q 43 760 -22 626 q 239 964 108 893 q 496 979 372 1038 q 622 904 556 953 m 157 392 q 172 484 161 435 q 204 587 183 533 q 260 664 225 640 q 339 664 296 688 q 414 622 378 644 q 439 596 436 607 q 432 557 442 585 q 406 486 425 538 q 377 406 386 435 q 358 332 368 376 q 346 249 347 288 q 421 195 364 211 q 556 201 478 179 q 626 735 681 508 q 574 851 607 801 q 490 899 540 900 q 301 813 389 896 q 174 613 214 731 q 157 392 133 494 m 368 1 q 444 37 400 0 q 517 121 489 74 q 431 126 472 114 q 364 156 390 139 q 333 172 338 172 q 335 65 325 132 q 368 1 346 -1 m 507 1141 q 513 1134 507 1141 q 519 1110 519 1128 q 507 1079 519 1092 q 476 1067 494 1067 q 445 1079 458 1067 q 432 1110 432 1092 q 445 1141 432 1128 q 476 1154 458 1154 q 507 1141 494 1154 m 617 1141 q 624 1134 617 1141 q 631 1110 631 1128 q 617 1079 631 1092 q 586 1067 604 1067 q 555 1079 568 1067 q 542 1110 542 1092 q 554 1141 542 1128 q 586 1154 567 1154 q 617 1141 604 1154 z "},"":{"ha":450,"x_min":-54,"x_max":363,"o":"m 106 343 q 79 365 100 349 q 54 388 58 382 q 51 415 42 406 q 79 418 60 424 q 97 409 86 417 q 122 392 108 401 q 142 378 135 382 q 186 406 158 386 q 235 439 214 425 q 280 460 256 453 q 325 454 304 468 q 363 404 346 440 q 246 313 343 389 q 322 242 300 271 q 333 210 342 217 q 299 218 325 204 q 278 231 293 221 q 241 253 263 240 q 196 275 219 265 q 140 224 179 258 q 81 169 101 190 q 106 343 -54 196 z "},"":{"ha":847,"x_min":-7,"x_max":874,"o":"m 697 889 l 685 863 q 758 633 750 793 q 700 306 765 464 q 681 263 697 297 q 661 221 664 229 q 757 247 694 224 q 853 293 819 269 q 872 253 871 271 q 863 224 874 235 q 829 199 853 213 q 618 126 778 168 q 544 35 589 83 q 464 -36 499 -14 q 299 -47 381 -89 q 297 -50 297 -47 q 273 -73 290 -68 q 245 -64 256 -78 q 243 -24 235 -50 q 246 -14 243 -19 q 128 214 138 68 q 94 279 128 243 q 10 467 28 361 q 22 672 -7 574 q 124 855 50 771 q 301 981 197 939 q 558 964 443 1038 q 646 900 607 933 l 654 915 q 688 921 667 939 q 697 889 706 908 m 149 422 q 175 475 172 465 q 288 654 217 572 q 326 683 311 679 q 364 669 340 686 q 433 619 403 644 q 455 590 453 601 q 443 553 457 579 q 372 410 383 433 q 310 214 322 304 q 328 208 325 208 q 613 838 457 532 q 543 885 585 881 q 403 856 469 892 q 163 567 228 765 q 149 422 138 497 m 526 194 q 657 704 683 475 q 643 769 651 743 q 399 196 528 510 q 526 194 461 189 m 472 110 l 368 124 l 326 22 q 472 110 413 33 z "},"":{"ha":1110,"x_min":-14,"x_max":1172,"o":"m 517 21 q 606 160 565 89 q 672 283 647 232 q 725 419 696 333 q 765 541 754 504 q 806 685 776 578 q 846 828 836 793 q 870 896 861 872 q 896 945 879 919 q 930 976 913 971 q 974 974 947 982 q 1035 938 1000 965 q 1044 894 1047 925 q 1028 819 1042 865 q 975 576 997 713 q 945 367 953 440 q 922 119 938 294 q 943 -31 908 -40 q 1039 131 976 -21 q 1115 299 1079 229 q 1164 264 1158 275 q 1157 210 1172 249 q 1120 106 1131 136 q 1084 22 1110 76 q 1031 -74 1058 -33 q 982 -113 1006 -107 q 922 -106 958 -119 q 774 72 801 -69 q 750 214 761 119 l 724 161 q 628 -28 657 15 q 513 -128 567 -118 q 372 -76 458 -137 q 243 175 260 0 q 269 477 232 296 q 358 811 306 658 q 206 622 292 775 q 119 396 119 469 q 115 367 121 374 q 88 372 110 360 q 38 411 78 378 q -8 491 -1 446 q 11 585 -14 536 q 72 681 36 633 q 163 777 108 728 q 260 862 218 826 q 349 935 301 897 q 410 983 397 972 q 449 1001 428 999 q 495 990 469 1003 q 533 970 521 978 q 569 946 546 963 q 586 882 600 921 q 463 515 508 679 q 406 188 417 351 q 426 -12 394 39 q 517 21 454 -58 m 793 1029 q 678 1054 740 1015 q 588 1158 617 1093 q 672 1144 629 1179 q 792 1039 714 1111 q 793 1029 793 1039 z "},"":{"ha":1110,"x_min":-14,"x_max":1172,"o":"m 517 21 q 606 160 565 89 q 672 283 647 232 q 725 419 696 333 q 765 541 754 504 q 806 685 776 578 q 846 828 836 793 q 870 896 861 872 q 896 945 879 919 q 930 976 913 971 q 974 974 947 982 q 1035 938 1000 965 q 1044 894 1047 925 q 1028 819 1042 865 q 975 576 997 713 q 945 367 953 440 q 922 119 938 294 q 943 -31 908 -40 q 1039 131 976 -21 q 1115 299 1079 229 q 1164 264 1158 275 q 1157 210 1172 249 q 1120 106 1131 136 q 1084 22 1110 76 q 1031 -74 1058 -33 q 982 -113 1006 -107 q 922 -106 958 -119 q 774 72 801 -69 q 750 214 761 119 l 724 161 q 628 -28 657 15 q 513 -128 567 -118 q 372 -76 458 -137 q 243 175 260 0 q 269 477 232 296 q 358 811 306 658 q 206 622 292 775 q 119 396 119 469 q 115 367 121 374 q 88 372 110 360 q 38 411 78 378 q -8 491 -1 446 q 11 585 -14 536 q 72 681 36 633 q 163 777 108 728 q 260 862 218 826 q 349 935 301 897 q 410 983 397 972 q 449 1001 428 999 q 495 990 469 1003 q 533 970 521 978 q 569 946 546 963 q 586 882 600 921 q 463 515 508 679 q 406 188 417 351 q 426 -12 394 39 q 517 21 454 -58 m 854 1157 q 789 1057 810 1088 q 744 1015 763 1019 q 679 1026 726 1010 q 720 1101 686 1053 q 776 1165 754 1150 q 854 1157 811 1189 z "},"":{"ha":1110,"x_min":-14,"x_max":1172,"o":"m 517 21 q 606 160 565 89 q 672 283 647 232 q 725 419 696 333 q 765 541 754 504 q 806 685 776 578 q 846 828 836 793 q 870 896 861 872 q 896 945 879 919 q 930 976 913 971 q 974 974 947 982 q 1035 938 1000 965 q 1044 894 1047 925 q 1028 819 1042 865 q 975 576 997 713 q 945 367 953 440 q 922 119 938 294 q 943 -31 908 -40 q 1039 131 976 -21 q 1115 299 1079 229 q 1164 264 1158 275 q 1157 210 1172 249 q 1120 106 1131 136 q 1084 22 1110 76 q 1031 -74 1058 -33 q 982 -113 1006 -107 q 922 -106 958 -119 q 774 72 801 -69 q 750 214 761 119 l 724 161 q 628 -28 657 15 q 513 -128 567 -118 q 372 -76 458 -137 q 243 175 260 0 q 269 477 232 296 q 358 811 306 658 q 206 622 292 775 q 119 396 119 469 q 115 367 121 374 q 88 372 110 360 q 38 411 78 378 q -8 491 -1 446 q 11 585 -14 536 q 72 681 36 633 q 163 777 108 728 q 260 862 218 826 q 349 935 301 897 q 410 983 397 972 q 449 1001 428 999 q 495 990 469 1003 q 533 970 521 978 q 569 946 546 963 q 586 882 600 921 q 463 515 508 679 q 406 188 417 351 q 426 -12 394 39 q 517 21 454 -58 m 644 1044 q 735 1193 683 1142 q 785 1201 754 1213 q 821 1165 817 1190 q 826 1092 824 1140 q 831 1026 829 1044 q 747 1085 764 1011 q 699 1035 711 1040 q 644 1044 686 1031 z "},"":{"ha":1110,"x_min":-14,"x_max":1172,"o":"m 517 21 q 606 160 565 89 q 672 283 647 232 q 725 419 696 333 q 765 541 754 504 q 806 685 776 578 q 846 828 836 793 q 870 896 861 872 q 896 945 879 919 q 930 976 913 971 q 974 974 947 982 q 1035 938 1000 965 q 1044 894 1047 925 q 1028 819 1042 865 q 975 576 997 713 q 945 367 953 440 q 922 119 938 294 q 943 -31 908 -40 q 1039 131 976 -21 q 1115 299 1079 229 q 1164 264 1158 275 q 1157 210 1172 249 q 1120 106 1131 136 q 1084 22 1110 76 q 1031 -74 1058 -33 q 982 -113 1006 -107 q 922 -106 958 -119 q 774 72 801 -69 q 750 214 761 119 l 724 161 q 628 -28 657 15 q 513 -128 567 -118 q 372 -76 458 -137 q 243 175 260 0 q 269 477 232 296 q 358 811 306 658 q 206 622 292 775 q 119 396 119 469 q 115 367 121 374 q 88 372 110 360 q 38 411 78 378 q -8 491 -1 446 q 11 585 -14 536 q 72 681 36 633 q 163 777 108 728 q 260 862 218 826 q 349 935 301 897 q 410 983 397 972 q 449 1001 428 999 q 495 990 469 1003 q 533 970 521 978 q 569 946 546 963 q 586 882 600 921 q 463 515 508 679 q 406 188 417 351 q 426 -12 394 39 q 517 21 454 -58 m 717 1091 q 723 1084 717 1091 q 729 1060 729 1078 q 717 1029 729 1042 q 686 1017 704 1017 q 655 1029 668 1017 q 642 1060 642 1042 q 654 1091 642 1078 q 686 1104 667 1104 q 717 1091 704 1104 m 827 1091 q 834 1084 827 1091 q 840 1060 840 1078 q 827 1029 840 1042 q 796 1017 814 1017 q 765 1029 778 1017 q 751 1060 751 1042 q 765 1091 751 1078 q 796 1104 778 1104 q 827 1091 814 1104 z "},"":{"ha":1050,"x_min":-8,"x_max":1085,"o":"m 314 856 q 178 660 250 803 q 111 436 107 517 q 108 406 113 414 q 85 407 103 399 q -5 565 -1 472 q 63 743 -8 658 q 357 1026 175 885 q 418 1024 390 1051 q 479 965 436 1001 q 515 923 513 935 q 496 872 517 911 q 361 499 399 683 q 397 371 335 360 q 569 510 458 383 q 596 543 583 528 q 810 846 654 618 q 824 883 817 857 q 833 914 832 910 q 837 923 835 917 q 840 933 839 929 q 844 941 842 936 q 849 949 847 946 q 855 956 851 953 q 862 962 858 960 q 870 965 865 964 q 881 967 875 967 q 993 869 986 971 q 919 258 1006 683 q 955 263 928 260 q 998 269 982 267 q 1032 279 1014 272 q 1058 297 1050 286 q 1080 262 1075 285 q 1067 222 1085 239 q 1035 206 1053 211 q 986 198 1018 201 q 950 194 954 194 q 886 164 893 185 q 690 -112 833 -4 q 411 -72 533 -226 q 378 38 369 -22 q 420 149 386 97 q 513 233 454 200 q 631 265 571 267 l 724 265 q 797 665 772 408 q 724 574 771 633 q 650 479 678 514 q 581 399 622 444 q 500 319 539 354 q 386 290 446 279 q 279 351 326 301 q 232 454 232 400 q 249 574 232 492 q 288 744 265 656 q 314 856 310 832 m 703 197 q 518 134 592 218 q 478 -58 444 50 q 551 -17 518 -42 q 613 48 583 8 q 658 115 642 88 q 703 197 674 143 m 794 1146 q 729 1046 750 1076 q 685 1003 703 1008 q 619 1015 667 999 q 660 1091 626 1042 q 717 1154 694 1140 q 794 1146 751 1178 z "},"":{"ha":597,"x_min":-51,"x_max":568,"o":"m 192 613 q 132 38 113 321 q 140 -175 144 -135 q 29 -96 46 -171 q 42 661 -51 279 q 140 897 76 803 q 236 1006 178 953 q 368 1024 293 1058 q 406 1004 382 1017 q 438 988 431 992 q 553 760 568 919 q 486 536 540 639 q 438 438 453 464 q 436 339 410 389 q 499 200 472 268 q 517 108 514 158 q 488 15 518 53 q 403 -32 457 -24 q 319 -31 358 -39 q 208 24 274 -22 q 183 100 125 82 q 210 106 194 104 q 279 116 251 110 q 326 128 307 122 q 353 146 346 133 q 363 167 360 158 q 358 197 365 175 q 343 232 350 218 q 319 278 336 246 q 292 332 303 310 q 283 350 288 340 q 274 372 279 360 q 267 390 269 383 q 267 501 242 444 q 299 563 278 524 q 325 613 319 603 q 417 904 438 831 q 354 908 404 946 q 217 686 279 850 q 192 613 203 651 z "},"":{"ha":597,"x_min":-26,"x_max":650,"o":"m 232 39 q 136 -1 206 -17 q -7 167 1 29 q 111 513 -26 372 q 281 554 181 582 q 329 541 297 550 q 375 528 361 532 q 385 555 378 536 q 396 582 393 574 q 440 604 408 613 q 460 599 446 603 q 479 593 474 596 q 513 574 507 583 q 514 535 518 564 q 483 121 492 332 q 485 92 483 104 q 490 71 486 79 q 502 69 493 63 q 525 101 511 76 q 603 290 561 172 q 633 281 615 296 q 646 242 650 267 q 623 151 638 200 q 577 49 608 101 q 511 -7 546 -4 q 434 -6 472 -14 q 378 22 396 1 q 351 92 356 46 q 351 197 347 138 q 354 274 356 257 q 331 261 354 311 q 284 153 314 229 q 232 39 254 78 m 161 56 q 259 254 207 122 q 349 442 311 386 q 206 389 268 501 q 149 153 150 290 q 161 56 149 94 m 446 672 q 331 697 393 658 q 240 801 269 736 q 325 788 282 822 q 444 682 367 754 q 446 672 446 681 z "},"":{"ha":597,"x_min":-26,"x_max":650,"o":"m 232 39 q 136 -1 206 -17 q -7 167 1 29 q 111 513 -26 372 q 281 554 181 582 q 329 541 297 550 q 375 528 361 532 q 385 555 378 536 q 396 582 393 574 q 440 604 408 613 q 460 599 446 603 q 479 593 474 596 q 513 574 507 583 q 514 535 518 564 q 483 121 492 332 q 485 92 483 104 q 490 71 486 79 q 502 69 493 63 q 525 101 511 76 q 603 290 561 172 q 633 281 615 296 q 646 242 650 267 q 623 151 638 200 q 577 49 608 101 q 511 -7 546 -4 q 434 -6 472 -14 q 378 22 396 1 q 351 92 356 46 q 351 197 347 138 q 354 274 356 257 q 331 261 354 311 q 284 153 314 229 q 232 39 254 78 m 161 56 q 259 254 207 122 q 349 442 311 386 q 206 389 268 501 q 149 153 150 290 q 161 56 149 94 m 457 789 q 392 689 413 719 q 347 647 365 651 q 282 658 329 642 q 323 735 289 686 q 379 797 357 783 q 457 789 414 821 z "},"":{"ha":597,"x_min":-26,"x_max":650,"o":"m 232 39 q 136 -1 206 -17 q -7 167 1 29 q 111 513 -26 372 q 281 554 181 582 q 329 541 297 550 q 375 528 361 532 q 385 555 378 536 q 396 582 393 574 q 440 604 408 613 q 460 599 446 603 q 479 593 474 596 q 513 574 507 583 q 514 535 518 564 q 483 121 492 332 q 485 92 483 104 q 490 71 486 79 q 502 69 493 63 q 525 101 511 76 q 603 290 561 172 q 633 281 615 296 q 646 242 650 267 q 623 151 638 200 q 577 49 608 101 q 511 -7 546 -4 q 434 -6 472 -14 q 378 22 396 1 q 351 92 356 46 q 351 197 347 138 q 354 274 356 257 q 331 261 354 311 q 284 153 314 229 q 232 39 254 78 m 161 56 q 259 254 207 122 q 349 442 311 386 q 206 389 268 501 q 149 153 150 290 q 161 56 149 94 m 261 679 q 351 828 300 776 q 402 836 371 847 q 438 800 433 825 q 443 727 440 775 q 447 661 446 679 q 364 719 381 646 q 315 670 328 675 q 261 679 303 665 z "},"":{"ha":597,"x_min":-26,"x_max":650,"o":"m 232 39 q 136 -1 206 -17 q -7 167 1 29 q 111 513 -26 372 q 281 554 181 582 q 329 541 297 550 q 375 528 361 532 q 385 555 378 536 q 396 582 393 574 q 440 604 408 613 q 460 599 446 603 q 479 593 474 596 q 513 574 507 583 q 514 535 518 564 q 483 121 492 332 q 485 92 483 104 q 490 71 486 79 q 502 69 493 63 q 525 101 511 76 q 603 290 561 172 q 633 281 615 296 q 646 242 650 267 q 623 151 638 200 q 577 49 608 101 q 511 -7 546 -4 q 434 -6 472 -14 q 378 22 396 1 q 351 92 356 46 q 351 197 347 138 q 354 274 356 257 q 331 261 354 311 q 284 153 314 229 q 232 39 254 78 m 161 56 q 259 254 207 122 q 349 442 311 386 q 206 389 268 501 q 149 153 150 290 q 161 56 149 94 m 422 839 q 474 820 464 832 q 479 769 483 808 q 440 687 471 719 q 361 668 408 654 q 322 694 344 674 q 282 721 300 714 q 273 703 281 718 q 258 681 265 689 q 243 674 251 674 q 193 701 200 685 q 210 756 186 718 q 216 765 213 760 q 224 776 219 769 q 231 785 228 782 q 299 813 263 819 q 353 763 336 807 q 364 735 357 750 q 366 732 364 733 q 368 729 368 731 q 390 753 383 739 q 422 839 397 767 z "},"":{"ha":597,"x_min":-26,"x_max":650,"o":"m 232 39 q 136 -1 206 -17 q -7 167 1 29 q 111 513 -26 372 q 281 554 181 582 q 329 541 297 550 q 375 528 361 532 q 385 555 378 536 q 396 582 393 574 q 440 604 408 613 q 460 599 446 603 q 479 593 474 596 q 513 574 507 583 q 514 535 518 564 q 483 121 492 332 q 485 92 483 104 q 490 71 486 79 q 502 69 493 63 q 525 101 511 76 q 603 290 561 172 q 633 281 615 296 q 646 242 650 267 q 623 151 638 200 q 577 49 608 101 q 511 -7 546 -4 q 434 -6 472 -14 q 378 22 396 1 q 351 92 356 46 q 351 197 347 138 q 354 274 356 257 q 331 261 354 311 q 284 153 314 229 q 232 39 254 78 m 161 56 q 259 254 207 122 q 349 442 311 386 q 206 389 268 501 q 149 153 150 290 q 161 56 149 94 m 300 726 q 306 719 300 726 q 313 694 313 713 q 300 664 313 676 q 269 651 288 651 q 238 664 251 651 q 225 694 225 676 q 238 726 225 714 q 269 739 250 739 q 300 726 288 739 m 410 726 q 417 719 410 726 q 424 694 424 713 q 410 664 424 676 q 379 651 397 651 q 348 664 361 651 q 335 694 335 676 q 348 726 335 714 q 379 739 361 739 q 410 726 397 739 z "},"":{"ha":597,"x_min":-26,"x_max":650,"o":"m 232 39 q 136 -1 206 -17 q -7 167 1 29 q 111 513 -26 372 q 281 554 181 582 q 329 541 297 550 q 375 528 361 532 q 385 555 378 536 q 396 582 393 574 q 440 604 408 613 q 460 599 446 603 q 479 593 474 596 q 513 574 507 583 q 514 535 518 564 q 483 121 492 332 q 485 92 483 104 q 490 71 486 79 q 502 69 493 63 q 525 101 511 76 q 603 290 561 172 q 633 281 615 296 q 646 242 650 267 q 623 151 638 200 q 577 49 608 101 q 511 -7 546 -4 q 434 -6 472 -14 q 378 22 396 1 q 351 92 356 46 q 351 197 347 138 q 354 274 356 257 q 331 261 354 311 q 284 153 314 229 q 232 39 254 78 m 161 56 q 259 254 207 122 q 349 442 311 386 q 206 389 268 501 q 149 153 150 290 q 161 56 149 94 m 331 636 q 310 644 326 638 q 278 658 293 651 q 253 674 264 665 q 231 722 231 689 q 276 801 232 768 q 364 810 319 835 q 388 800 371 806 q 440 722 453 769 q 401 660 431 685 q 331 636 371 636 m 367 757 q 323 735 332 750 q 322 686 314 721 q 367 757 372 713 z "},"":{"ha":753,"x_min":-31,"x_max":810,"o":"m 757 290 q 792 226 810 274 q 667 28 747 108 q 572 -8 626 -8 q 354 135 403 -6 q 331 271 331 201 l 326 261 q 281 153 311 229 q 228 39 250 78 q 132 -1 201 -17 q -11 167 -3 29 q 107 513 -31 372 q 276 554 176 582 q 325 541 293 550 q 371 528 357 532 q 452 622 419 601 q 550 629 485 642 q 660 581 611 618 q 711 503 710 543 q 617 274 708 363 q 492 215 578 231 q 503 86 479 156 q 590 39 533 0 q 617 61 603 47 q 757 290 685 135 m 157 56 q 255 254 203 122 q 344 442 307 386 q 201 389 264 501 q 144 153 146 290 q 157 56 144 94 m 499 261 q 603 372 565 289 q 613 506 642 456 q 536 397 568 465 q 499 261 504 328 z "},"":{"ha":451,"x_min":-14,"x_max":508,"o":"m 299 515 q 204 413 242 497 q 156 245 167 329 q 149 101 144 161 q 149 92 149 99 q 150 85 150 86 q 275 46 172 -25 q 379 155 332 85 q 456 297 426 225 q 501 258 494 276 q 499 229 508 240 q 460 152 483 192 q 402 67 438 113 q 318 -5 367 22 q 218 -28 269 -32 l 207 -53 l 239 -65 q 271 -108 272 -83 q 257 -141 269 -125 q 229 -158 244 -157 q 139 -133 181 -167 l 133 -119 q 156 -122 143 -118 q 181 -125 169 -125 q 200 -115 192 -125 q 208 -108 201 -114 q 218 -96 215 -101 q 222 -82 221 -90 q 185 -78 188 -78 q 154 -63 158 -72 q 161 -29 150 -54 l 168 -15 q 43 71 89 13 q -8 214 -3 129 q 1 354 -14 276 q 50 501 15 432 q 141 601 85 571 q 275 596 197 631 q 299 586 292 588 q 367 576 354 586 q 389 478 390 531 q 356 390 388 426 q 281 368 324 354 q 291 392 281 369 q 306 442 301 415 q 299 515 310 468 z "},"":{"ha":411,"x_min":-29,"x_max":468,"o":"m 415 290 q 450 226 468 274 q 325 28 406 108 q 231 -8 285 -8 q 13 135 61 -6 q 2 369 -29 249 q 122 560 33 490 q 188 591 156 585 q 247 590 219 597 q 328 564 275 583 q 369 503 367 547 q 275 274 367 363 q 150 215 236 231 q 161 86 138 156 q 249 39 192 0 q 275 61 261 47 q 415 290 343 135 m 157 261 q 262 372 224 289 q 271 506 300 456 q 194 397 226 465 q 157 261 163 328 m 353 639 q 238 664 300 625 q 147 768 176 703 q 232 754 189 789 q 351 649 274 721 q 353 639 353 647 z "},"":{"ha":411,"x_min":-29,"x_max":468,"o":"m 415 290 q 450 226 468 274 q 325 28 406 108 q 231 -8 285 -8 q 13 135 61 -6 q 2 369 -29 249 q 122 560 33 490 q 188 591 156 585 q 247 590 219 597 q 328 564 275 583 q 369 503 367 547 q 275 274 367 363 q 150 215 236 231 q 161 86 138 156 q 249 39 192 0 q 275 61 261 47 q 415 290 343 135 m 157 261 q 262 372 224 289 q 271 506 300 456 q 194 397 226 465 q 157 261 163 328 m 342 790 q 276 690 297 721 q 232 648 250 653 q 167 660 214 643 q 208 735 174 688 q 264 799 242 783 q 342 790 299 822 z "},"":{"ha":411,"x_min":-29,"x_max":468,"o":"m 415 290 q 450 226 468 274 q 325 28 406 108 q 231 -8 285 -8 q 13 135 61 -6 q 2 369 -29 249 q 122 560 33 490 q 188 591 156 585 q 247 590 219 597 q 328 564 275 583 q 369 503 367 547 q 275 274 367 363 q 150 215 236 231 q 161 86 138 156 q 249 39 192 0 q 275 61 261 47 q 415 290 343 135 m 157 261 q 262 372 224 289 q 271 506 300 456 q 194 397 226 465 q 157 261 163 328 m 156 663 q 246 811 194 760 q 297 819 265 831 q 332 783 328 808 q 338 710 335 758 q 342 644 340 663 q 258 703 275 629 q 210 653 224 658 q 156 663 197 647 z "},"":{"ha":411,"x_min":-29,"x_max":468,"o":"m 415 290 q 450 226 468 274 q 325 28 406 108 q 231 -8 285 -8 q 13 135 61 -6 q 2 369 -29 249 q 122 560 33 490 q 188 591 156 585 q 247 590 219 597 q 328 564 275 583 q 369 503 367 547 q 275 274 367 363 q 150 215 236 231 q 161 86 138 156 q 249 39 192 0 q 275 61 261 47 q 415 290 343 135 m 157 261 q 262 372 224 289 q 271 506 300 456 q 194 397 226 465 q 157 261 163 328 m 224 735 q 230 729 224 735 q 236 704 236 722 q 224 674 236 686 q 193 661 211 661 q 162 674 175 661 q 149 704 149 686 q 162 735 149 722 q 193 749 175 749 q 224 735 211 749 m 334 735 q 341 729 334 735 q 347 704 347 722 q 334 674 347 686 q 303 661 321 661 q 272 674 285 661 q 258 704 258 686 q 271 735 258 722 q 303 749 283 749 q 334 735 321 749 z "},"":{"ha":243,"x_min":-26,"x_max":290,"o":"m 188 125 q 217 207 201 156 q 246 288 233 258 q 283 268 275 282 q 281 226 290 254 q 215 40 240 101 q 183 5 201 11 q 131 6 165 -1 q 109 9 125 7 q 88 13 93 11 q 70 17 83 14 q 52 22 57 19 q 38 30 47 25 q 24 40 28 35 q 15 54 19 46 q 7 72 10 63 q 13 529 -26 189 q 55 563 17 561 q 140 533 93 564 q 147 496 147 529 q 138 360 146 460 q 129 221 131 261 q 154 75 125 63 q 188 125 168 81 m 185 621 q 70 646 132 607 q -21 750 8 685 q 64 736 21 771 q 183 631 106 703 q 185 621 185 631 z "},"":{"ha":243,"x_min":-26,"x_max":290,"o":"m 188 125 q 217 207 201 156 q 246 288 233 258 q 283 268 275 282 q 281 226 290 254 q 215 40 240 101 q 183 5 201 11 q 131 6 165 -1 q 109 9 125 7 q 88 13 93 11 q 70 17 83 14 q 52 22 57 19 q 38 30 47 25 q 24 40 28 35 q 15 54 19 46 q 7 72 10 63 q 13 529 -26 189 q 55 563 17 561 q 140 533 93 564 q 147 496 147 529 q 138 360 146 460 q 129 221 131 261 q 154 75 125 63 q 188 125 168 81 m 186 774 q 121 674 142 704 q 76 631 94 636 q 11 643 58 626 q 52 719 18 671 q 108 782 86 767 q 186 774 143 806 z "},"":{"ha":243,"x_min":-26,"x_max":290,"o":"m 188 125 q 217 207 201 156 q 246 288 233 258 q 283 268 275 282 q 281 226 290 254 q 215 40 240 101 q 183 5 201 11 q 131 6 165 -1 q 109 9 125 7 q 88 13 93 11 q 70 17 83 14 q 52 22 57 19 q 38 30 47 25 q 24 40 28 35 q 15 54 19 46 q 7 72 10 63 q 13 529 -26 189 q 55 563 17 561 q 140 533 93 564 q 147 496 147 529 q 138 360 146 460 q 129 221 131 261 q 154 75 125 63 q 188 125 168 81 m -7 643 q 83 792 32 740 q 134 800 103 811 q 169 764 165 789 q 175 691 172 739 q 179 625 178 643 q 96 683 113 610 q 47 633 60 639 q -7 643 35 628 z "},"":{"ha":243,"x_min":-26,"x_max":290,"o":"m 188 125 q 217 207 201 156 q 246 288 233 258 q 283 268 275 282 q 281 226 290 254 q 215 40 240 101 q 183 5 201 11 q 131 6 165 -1 q 109 9 125 7 q 88 13 93 11 q 70 17 83 14 q 52 22 57 19 q 38 30 47 25 q 24 40 28 35 q 15 54 19 46 q 7 72 10 63 q 13 529 -26 189 q 55 563 17 561 q 140 533 93 564 q 147 496 147 529 q 138 360 146 460 q 129 221 131 261 q 154 75 125 63 q 188 125 168 81 m 69 701 q 76 694 69 701 q 82 669 82 688 q 69 639 82 651 q 39 626 57 626 q 8 639 21 626 q -6 669 -6 651 q 7 701 -6 689 q 39 714 19 714 q 69 701 57 714 m 180 701 q 186 694 180 701 q 193 669 193 688 q 180 639 193 651 q 149 626 167 626 q 117 639 131 626 q 104 669 104 651 q 117 701 104 689 q 149 714 131 714 q 180 701 167 714 z "},"":{"ha":588,"x_min":-22,"x_max":661,"o":"m 589 289 q 631 218 644 264 q 556 21 592 65 q 467 -11 536 -4 q 383 1 418 -17 q 326 54 347 18 q 293 124 304 90 q 274 203 282 157 q 232 71 233 75 q 147 -6 203 -3 q 35 29 72 -10 q -11 156 -3 68 q 14 401 -22 268 q 122 588 50 533 q 275 596 169 622 q 300 792 282 707 q 244 824 263 800 q 269 850 229 846 l 282 851 q 298 852 288 851 q 314 853 308 853 q 433 1083 356 1001 q 565 1085 479 1131 q 625 993 633 1053 q 597 857 614 925 q 649 819 625 847 q 637 799 661 804 q 576 793 613 793 q 440 553 544 708 q 453 61 396 172 q 490 47 468 26 q 589 289 528 78 m 124 44 q 212 203 165 35 q 258 519 258 372 q 179 440 226 565 q 113 147 126 301 q 124 44 104 58 m 563 1011 q 500 864 542 986 q 515 865 506 864 q 529 865 525 865 l 536 865 q 563 1011 564 963 m 446 650 q 513 792 478 697 l 478 792 q 446 650 453 713 z "},"":{"ha":593,"x_min":-14,"x_max":653,"o":"m 160 343 q 186 385 167 354 q 216 431 206 415 q 244 469 226 446 q 281 508 263 492 q 319 536 299 524 q 410 551 354 561 q 478 499 465 540 q 492 376 493 450 q 483 235 492 303 q 476 114 474 167 q 501 53 479 61 q 596 288 542 39 q 635 274 618 285 q 649 239 653 263 q 567 22 621 68 q 460 0 526 -12 q 344 174 344 21 q 369 436 344 222 q 357 489 374 492 q 338 476 349 488 q 209 271 260 399 q 143 21 158 143 q 115 -10 140 -4 q 47 3 76 -15 q 8 58 18 22 q -7 315 -14 178 q 29 561 0 451 q 74 593 38 593 q 144 572 111 593 q 174 531 176 551 q 160 343 158 410 m 375 829 q 426 810 417 822 q 432 760 436 799 q 392 677 424 710 q 314 658 361 644 q 275 684 297 664 q 235 711 253 704 q 226 694 233 708 q 211 672 218 679 q 196 664 204 664 q 146 692 153 675 q 163 746 139 708 q 169 755 165 750 q 176 766 172 760 q 183 775 181 772 q 252 803 215 810 q 306 753 289 797 q 317 725 310 740 q 319 722 317 724 q 321 719 321 721 q 343 744 336 731 q 375 829 350 757 z "},"":{"ha":503,"x_min":-17,"x_max":518,"o":"m 313 1 q 171 -23 242 -42 q 43 57 100 -4 q -14 200 -11 115 q 90 519 -17 406 q 182 546 122 561 q 200 547 188 544 q 313 540 242 574 q 418 444 382 503 q 433 263 450 392 q 504 286 481 269 q 516 262 514 276 q 506 231 518 247 q 418 182 481 206 q 313 1 383 47 m 294 265 q 356 260 336 254 q 360 356 358 306 q 347 449 363 406 q 299 503 332 493 q 285 504 290 501 q 272 502 281 507 q 260 497 264 497 q 250 490 257 497 q 240 479 243 482 q 231 468 238 476 q 223 457 225 460 q 216 446 221 454 q 210 436 211 438 q 151 303 175 375 q 128 152 126 232 q 175 32 129 72 q 272 64 215 -3 q 331 183 329 131 q 260 244 269 211 q 278 268 253 267 q 294 265 285 268 m 333 617 q 219 642 281 603 q 128 746 157 681 q 213 732 169 767 q 332 626 254 699 q 333 617 333 625 z "},"":{"ha":503,"x_min":-17,"x_max":518,"o":"m 313 1 q 171 -23 242 -42 q 43 57 100 -4 q -14 200 -11 115 q 90 519 -17 406 q 182 546 122 561 q 200 547 188 544 q 313 540 242 574 q 418 444 382 503 q 433 263 450 392 q 504 286 481 269 q 516 262 514 276 q 506 231 518 247 q 418 182 481 206 q 313 1 383 47 m 294 265 q 356 260 336 254 q 360 356 358 306 q 347 449 363 406 q 299 503 332 493 q 285 504 290 501 q 272 502 281 507 q 260 497 264 497 q 250 490 257 497 q 240 479 243 482 q 231 468 238 476 q 223 457 225 460 q 216 446 221 454 q 210 436 211 438 q 151 303 175 375 q 128 152 126 232 q 175 32 129 72 q 272 64 215 -3 q 331 183 329 131 q 260 244 269 211 q 278 268 253 267 q 294 265 285 268 m 342 783 q 276 683 297 714 q 232 641 250 646 q 167 653 214 636 q 208 728 174 679 q 264 792 242 778 q 342 783 299 815 z "},"":{"ha":503,"x_min":-17,"x_max":518,"o":"m 313 1 q 171 -23 242 -42 q 43 57 100 -4 q -14 200 -11 115 q 90 519 -17 406 q 182 546 122 561 q 200 547 188 544 q 313 540 242 574 q 418 444 382 503 q 433 263 450 392 q 504 286 481 269 q 516 262 514 276 q 506 231 518 247 q 418 182 481 206 q 313 1 383 47 m 294 265 q 356 260 336 254 q 360 356 358 306 q 347 449 363 406 q 299 503 332 493 q 285 504 290 501 q 272 502 281 507 q 260 497 264 497 q 250 490 257 497 q 240 479 243 482 q 231 468 238 476 q 223 457 225 460 q 216 446 221 454 q 210 436 211 438 q 151 303 175 375 q 128 152 126 232 q 175 32 129 72 q 272 64 215 -3 q 331 183 329 131 q 260 244 269 211 q 278 268 253 267 q 294 265 285 268 m 138 664 q 228 813 176 761 q 278 821 247 832 q 314 785 310 810 q 319 712 317 760 q 324 646 322 664 q 240 704 257 631 q 192 654 204 660 q 138 664 179 649 z "},"":{"ha":503,"x_min":-17,"x_max":518,"o":"m 313 1 q 171 -23 242 -42 q 43 57 100 -4 q -14 200 -11 115 q 90 519 -17 406 q 182 546 122 561 q 200 547 188 544 q 313 540 242 574 q 418 444 382 503 q 433 263 450 392 q 504 286 481 269 q 516 262 514 276 q 506 231 518 247 q 418 182 481 206 q 313 1 383 47 m 294 265 q 356 260 336 254 q 360 356 358 306 q 347 449 363 406 q 299 503 332 493 q 285 504 290 501 q 272 502 281 507 q 260 497 264 497 q 250 490 257 497 q 240 479 243 482 q 231 468 238 476 q 223 457 225 460 q 216 446 221 454 q 210 436 211 438 q 151 303 175 375 q 128 152 126 232 q 175 32 129 72 q 272 64 215 -3 q 331 183 329 131 q 260 244 269 211 q 278 268 253 267 q 294 265 285 268 m 336 811 q 388 792 378 804 q 393 742 397 781 q 353 659 385 692 q 275 640 322 626 q 236 666 258 646 q 196 693 214 686 q 187 676 194 690 q 172 653 179 661 q 157 646 165 646 q 107 674 114 657 q 124 728 100 690 q 130 737 126 732 q 138 748 133 742 q 144 757 142 754 q 213 785 176 792 q 267 735 250 779 q 278 707 271 722 q 280 704 278 706 q 282 701 282 703 q 304 725 297 711 q 336 811 311 739 z "},"":{"ha":503,"x_min":-17,"x_max":518,"o":"m 313 1 q 171 -23 242 -42 q 43 57 100 -4 q -14 200 -11 115 q 90 519 -17 406 q 182 546 122 561 q 200 547 188 544 q 313 540 242 574 q 418 444 382 503 q 433 263 450 392 q 504 286 481 269 q 516 262 514 276 q 506 231 518 247 q 418 182 481 206 q 313 1 383 47 m 294 265 q 356 260 336 254 q 360 356 358 306 q 347 449 363 406 q 299 503 332 493 q 285 504 290 501 q 272 502 281 507 q 260 497 264 497 q 250 490 257 497 q 240 479 243 482 q 231 468 238 476 q 223 457 225 460 q 216 446 221 454 q 210 436 211 438 q 151 303 175 375 q 128 152 126 232 q 175 32 129 72 q 272 64 215 -3 q 331 183 329 131 q 260 244 269 211 q 278 268 253 267 q 294 265 285 268 m 210 708 q 216 701 210 708 q 222 676 222 694 q 210 646 222 658 q 179 633 197 633 q 148 646 161 633 q 135 676 135 658 q 148 708 135 694 q 179 721 161 721 q 210 708 197 721 m 320 708 q 327 701 320 708 q 333 676 333 694 q 320 646 333 658 q 289 633 307 633 q 258 646 271 633 q 244 676 244 658 q 257 708 244 694 q 289 721 269 721 q 320 708 307 721 z "},"":{"ha":514,"x_min":0,"x_max":432,"o":"m 300 450 q 261 389 303 394 q 203 413 224 383 q 196 454 190 431 q 230 492 204 486 q 278 484 256 499 q 300 450 300 469 m 250 253 q 261 183 290 221 q 199 158 235 150 q 167 182 179 164 q 181 249 144 217 q 250 253 217 282 m 350 294 q 89 293 263 293 q 33 318 63 293 q 51 351 0 346 q 63 353 57 353 q 310 367 254 365 q 381 357 356 367 q 429 321 407 347 q 429 306 432 311 q 408 299 426 301 q 378 295 390 296 q 350 294 367 294 z "},"":{"ha":503,"x_min":-17,"x_max":518,"o":"m 421 563 l 386 485 q 418 444 399 472 q 433 263 450 392 q 504 286 481 269 q 516 262 514 276 q 506 231 518 247 q 418 182 481 206 q 313 1 383 47 q 171 -22 250 -43 l 146 -85 q 128 -101 140 -97 q 110 -94 117 -104 q 108 -67 103 -85 q 128 -7 114 -43 q 43 57 79 17 q -14 200 -11 115 q 90 519 -17 406 q 182 546 122 561 q 200 547 188 544 q 313 540 242 574 q 356 513 338 526 l 392 581 q 415 583 400 596 q 421 563 426 578 m 153 57 q 336 474 232 261 q 217 425 285 547 q 132 169 154 315 q 153 57 117 51 m 331 183 q 272 222 293 199 l 190 24 q 280 73 231 10 q 331 183 329 136 m 292 265 l 294 265 q 356 260 336 254 q 356 415 363 374 l 292 265 z "},"":{"ha":579,"x_min":-29,"x_max":632,"o":"m 582 293 q 628 242 632 260 q 602 153 615 192 q 568 70 589 114 q 519 3 547 26 q 457 -17 490 -19 q 347 38 369 -8 q 325 201 324 83 q 314 179 321 194 q 303 158 307 164 q 229 44 239 56 q 173 -1 203 11 q 120 -8 143 -12 q 65 13 97 -3 q -18 153 -7 46 q 0 367 -29 260 q 72 550 29 474 q 106 583 92 579 q 151 572 121 588 q 189 557 164 565 q 220 540 214 549 q 218 511 226 532 q 119 161 126 319 q 153 63 115 60 q 300 303 208 67 q 321 358 310 329 q 340 441 331 386 q 358 528 349 496 q 386 558 368 560 q 483 529 468 542 q 496 463 508 510 q 440 161 449 288 q 460 39 435 61 q 506 83 479 22 q 582 293 538 154 m 382 638 q 267 663 329 624 q 176 767 206 701 q 261 753 218 788 q 381 647 303 719 q 382 638 382 647 z "},"":{"ha":579,"x_min":-29,"x_max":632,"o":"m 582 293 q 628 242 632 260 q 602 153 615 192 q 568 70 589 114 q 519 3 547 26 q 457 -17 490 -19 q 347 38 369 -8 q 325 201 324 83 q 314 179 321 194 q 303 158 307 164 q 229 44 239 56 q 173 -1 203 11 q 120 -8 143 -12 q 65 13 97 -3 q -18 153 -7 46 q 0 367 -29 260 q 72 550 29 474 q 106 583 92 579 q 151 572 121 588 q 189 557 164 565 q 220 540 214 549 q 218 511 226 532 q 119 161 126 319 q 153 63 115 60 q 300 303 208 67 q 321 358 310 329 q 340 441 331 386 q 358 528 349 496 q 386 558 368 560 q 483 529 468 542 q 496 463 508 510 q 440 161 449 288 q 460 39 435 61 q 506 83 479 22 q 582 293 538 154 m 425 765 q 360 665 381 696 q 315 623 333 628 q 250 635 297 618 q 291 710 257 661 q 347 774 325 758 q 425 765 382 797 z "},"":{"ha":579,"x_min":-29,"x_max":632,"o":"m 582 293 q 628 242 632 260 q 602 153 615 192 q 568 70 589 114 q 519 3 547 26 q 457 -17 490 -19 q 347 38 369 -8 q 325 201 324 83 q 314 179 321 194 q 303 158 307 164 q 229 44 239 56 q 173 -1 203 11 q 120 -8 143 -12 q 65 13 97 -3 q -18 153 -7 46 q 0 367 -29 260 q 72 550 29 474 q 106 583 92 579 q 151 572 121 588 q 189 557 164 565 q 220 540 214 549 q 218 511 226 532 q 119 161 126 319 q 153 63 115 60 q 300 303 208 67 q 321 358 310 329 q 340 441 331 386 q 358 528 349 496 q 386 558 368 560 q 483 529 468 542 q 496 463 508 510 q 440 161 449 288 q 460 39 435 61 q 506 83 479 22 q 582 293 538 154 m 217 649 q 307 797 256 746 q 358 806 326 817 q 393 769 389 794 q 399 697 396 744 q 403 631 401 649 q 319 689 336 615 q 272 639 285 644 q 217 649 258 633 z "},"":{"ha":579,"x_min":-29,"x_max":632,"o":"m 582 293 q 628 242 632 260 q 602 153 615 192 q 568 70 589 114 q 519 3 547 26 q 457 -17 490 -19 q 347 38 369 -8 q 325 201 324 83 q 314 179 321 194 q 303 158 307 164 q 229 44 239 56 q 173 -1 203 11 q 120 -8 143 -12 q 65 13 97 -3 q -18 153 -7 46 q 0 367 -29 260 q 72 550 29 474 q 106 583 92 579 q 151 572 121 588 q 189 557 164 565 q 220 540 214 549 q 218 511 226 532 q 119 161 126 319 q 153 63 115 60 q 300 303 208 67 q 321 358 310 329 q 340 441 331 386 q 358 528 349 496 q 386 558 368 560 q 483 529 468 542 q 496 463 508 510 q 440 161 449 288 q 460 39 435 61 q 506 83 479 22 q 582 293 538 154 m 278 701 q 284 694 278 701 q 290 669 290 688 q 278 639 290 651 q 247 626 265 626 q 216 639 229 626 q 203 669 203 651 q 215 701 203 689 q 247 714 228 714 q 278 701 265 714 m 388 701 q 395 694 388 701 q 401 669 401 688 q 388 639 401 651 q 357 626 375 626 q 326 639 339 626 q 313 669 313 651 q 326 701 313 689 q 357 714 339 714 q 388 701 375 714 z "},"":{"ha":665,"x_min":-51,"x_max":704,"o":"m 667 281 q 696 257 688 275 q 699 228 704 239 q 575 88 647 128 q 565 83 569 85 q 558 78 560 81 q 553 76 556 76 q 551 72 551 76 q 551 66 551 68 q 550 56 550 64 q 488 -196 539 -76 q 350 -382 438 -315 q 131 -421 249 -461 q 81 -401 114 -412 q -25 -307 1 -376 q -29 -165 -51 -237 q 60 -40 -4 -89 q 140 9 93 -14 q 215 41 188 32 q 310 68 242 50 q 390 90 378 86 q 424 124 422 101 q 432 365 432 229 q 249 153 340 229 q 120 137 193 113 q 18 217 47 161 q -7 285 0 251 q -9 360 -14 319 q 1 423 -4 400 q 22 495 6 446 q 42 561 38 544 q 47 584 44 576 q 57 601 49 592 q 78 610 65 611 q 165 582 113 608 q 183 567 175 579 q 190 547 192 556 q 260 246 43 14 q 265 253 263 250 q 454 556 346 342 q 498 580 468 581 q 558 564 528 579 q 588 533 589 549 q 581 459 588 522 q 567 307 575 396 q 554 149 558 218 q 667 281 617 179 m 410 43 q 349 26 394 39 q 286 8 304 14 q 233 -10 268 3 q 177 -34 197 -22 q 132 -64 157 -46 q 88 -103 107 -82 q 41 -247 29 -169 q 111 -340 53 -325 q 249 -285 169 -354 q 410 43 361 -167 m 439 771 q 374 671 394 701 q 329 628 347 633 q 264 640 311 624 q 305 715 271 667 q 361 779 339 764 q 439 771 396 803 z "},"":{"ha":665,"x_min":-51,"x_max":704,"o":"m 667 281 q 696 257 688 275 q 699 228 704 239 q 575 88 647 128 q 565 83 569 85 q 558 78 560 81 q 553 76 556 76 q 551 72 551 76 q 551 66 551 68 q 550 56 550 64 q 488 -196 539 -76 q 350 -382 438 -315 q 131 -421 249 -461 q 81 -401 114 -412 q -25 -307 1 -376 q -29 -165 -51 -237 q 60 -40 -4 -89 q 140 9 93 -14 q 215 41 188 32 q 310 68 242 50 q 390 90 378 86 q 424 124 422 101 q 432 365 432 229 q 249 153 340 229 q 120 137 193 113 q 18 217 47 161 q -7 285 0 251 q -9 360 -14 319 q 1 423 -4 400 q 22 495 6 446 q 42 561 38 544 q 47 584 44 576 q 57 601 49 592 q 78 610 65 611 q 165 582 113 608 q 183 567 175 579 q 190 547 192 556 q 260 246 43 14 q 265 253 263 250 q 454 556 346 342 q 498 580 468 581 q 558 564 528 579 q 588 533 589 549 q 581 459 588 522 q 567 307 575 396 q 554 149 558 218 q 667 281 617 179 m 410 43 q 349 26 394 39 q 286 8 304 14 q 233 -10 268 3 q 177 -34 197 -22 q 132 -64 157 -46 q 88 -103 107 -82 q 41 -247 29 -169 q 111 -340 53 -325 q 249 -285 169 -354 q 410 43 361 -167 m 315 705 q 322 698 315 705 q 328 674 328 692 q 315 643 328 656 q 285 631 303 631 q 253 643 267 631 q 240 674 240 656 q 253 705 240 692 q 285 718 267 718 q 315 705 303 718 m 426 705 q 432 698 426 705 q 439 674 439 692 q 426 643 439 656 q 394 631 413 631 q 363 643 376 631 q 350 674 350 656 q 363 705 350 692 q 394 718 375 718 q 426 705 413 718 z "},"":{"ha":243,"x_min":-26,"x_max":290,"o":"m 188 125 q 217 207 201 156 q 246 288 233 258 q 283 268 275 282 q 281 226 290 254 q 215 40 240 101 q 183 5 201 11 q 131 6 165 -1 q 109 9 125 7 q 88 13 93 11 q 70 17 83 14 q 52 22 57 19 q 38 30 47 25 q 24 40 28 35 q 15 54 19 46 q 7 72 10 63 q 13 529 -26 189 q 55 563 17 561 q 140 533 93 564 q 147 496 147 529 q 138 360 146 460 q 129 221 131 261 q 154 75 125 63 q 188 125 168 81 z "},"":{"ha":1217,"x_min":-10,"x_max":1278,"o":"m 990 1007 q 1063 1022 1025 1022 q 1132 1006 1115 1022 q 1235 879 1175 963 q 1238 853 1246 871 q 1220 822 1231 836 q 1192 792 1210 808 q 1163 766 1174 775 q 1142 750 1151 757 q 753 539 982 635 l 753 538 l 757 531 q 942 568 861 546 q 990 572 979 576 q 1024 535 1001 568 q 1035 511 1025 533 q 994 481 1000 483 q 931 435 976 467 q 861 386 885 404 q 719 196 768 313 q 725 24 668 71 q 914 32 779 -18 q 1225 311 1032 74 q 1247 292 1235 304 q 1276 251 1275 264 q 1253 208 1278 239 q 1125 67 1182 124 q 997 -28 1068 11 q 801 -69 897 -90 q 690 -10 750 -58 q 593 96 629 39 q 461 -36 522 4 q 290 -44 376 -90 q 125 214 138 40 q 92 279 125 243 q 8 467 25 361 q 19 672 -10 574 q 121 855 47 771 q 299 981 194 939 q 556 964 440 1038 q 672 874 610 931 q 721 807 700 846 q 990 1007 814 925 m 146 422 q 172 475 169 465 q 285 654 214 572 q 323 683 308 679 q 361 669 338 686 q 431 619 400 644 q 452 590 450 601 q 440 553 454 579 q 369 410 381 433 q 350 215 293 251 q 475 244 393 186 q 626 446 579 318 q 643 506 638 475 q 654 704 664 608 q 540 885 631 876 q 400 856 467 892 q 160 567 225 765 q 146 422 135 497 m 803 631 q 972 711 842 639 q 1136 826 1103 783 q 1140 874 1151 844 q 1100 906 1129 903 q 967 832 1050 899 q 881 741 933 804 q 803 631 828 678 m 433 56 q 529 214 481 101 q 431 164 488 181 q 338 144 374 147 q 301 140 301 142 q 332 40 288 74 q 433 56 376 6 z "},"":{"ha":771,"x_min":-12,"x_max":828,"o":"m 317 38 q 175 13 246 -6 q 47 93 104 32 q -10 236 -7 151 q 94 556 -12 442 q 186 582 126 597 q 204 583 192 581 q 317 576 246 610 q 415 489 379 542 q 482 560 447 532 q 547 591 515 585 q 607 590 579 597 q 688 564 635 583 q 729 503 726 547 q 635 274 726 363 q 510 215 596 231 q 521 86 497 156 q 608 39 551 0 q 635 61 621 47 q 775 290 703 135 q 810 226 828 274 q 685 28 765 108 q 590 -8 644 -8 q 381 111 438 -6 q 317 38 354 63 m 361 446 q 303 539 349 524 q 290 540 294 538 q 276 538 285 543 q 265 533 268 533 q 254 526 261 533 q 244 515 247 518 q 235 504 242 513 q 227 493 229 496 q 220 482 225 490 q 214 472 215 474 q 155 340 179 411 q 132 188 131 268 q 179 68 133 108 q 235 65 207 51 q 290 117 263 79 q 349 276 328 171 q 361 446 369 381 m 517 261 q 622 372 583 289 q 631 506 660 456 q 554 394 586 460 q 517 261 522 328 z "},"":{"ha":738,"x_min":-10,"x_max":771,"o":"m 428 464 q 517 378 458 438 q 606 294 576 319 q 718 313 696 313 q 735 313 729 313 q 747 310 742 313 q 755 306 753 307 q 760 299 757 306 q 763 289 763 292 q 767 274 764 286 q 771 254 769 261 q 615 226 675 246 q 614 206 615 221 q 611 182 613 192 q 543 -17 600 69 q 393 -156 486 -104 q 283 -156 336 -183 q 144 -61 190 -99 q 143 64 76 -4 q 421 243 249 168 q 472 288 467 264 q 449 334 476 313 q 394 369 421 356 q 340 393 367 383 q 315 389 326 397 q 263 356 306 382 q 199 315 219 331 q 147 273 178 300 q 103 218 117 246 q 89 160 89 190 q 13 196 35 167 q 2 261 -10 225 q 50 329 14 297 q 236 463 93 367 q 206 521 210 489 q 209 575 201 553 q 235 635 217 597 q 464 943 314 799 q 533 980 503 979 q 603 949 564 981 q 682 876 647 915 q 708 831 706 853 q 693 778 710 808 q 428 464 586 603 m 553 813 q 413 656 468 743 q 379 526 357 569 q 567 722 493 613 q 589 819 629 814 q 553 813 576 821 m 444 186 q 356 135 413 178 q 256 47 300 93 q 219 -28 214 3 q 276 -22 224 -60 l 296 -7 q 444 186 371 60 m 619 1218 q 529 1069 581 1121 q 478 1061 510 1050 q 443 1097 447 1072 q 438 1170 440 1122 q 433 1236 435 1218 q 517 1178 500 1251 q 565 1227 553 1222 q 619 1218 578 1232 z "},"":{"ha":368,"x_min":-39,"x_max":399,"o":"m 299 69 q 228 -9 274 18 q 131 -24 182 -36 q 97 -7 122 -21 q 64 10 71 7 q 22 101 1 39 q 92 185 33 150 q 200 217 150 219 q 46 257 211 300 q -20 308 -1 244 q -17 435 -39 372 q 100 571 10 513 q 236 604 188 628 q 263 571 256 592 q 260 471 279 515 q 231 457 247 446 q 149 444 208 475 q 67 382 90 414 q 50 351 54 364 q 47 333 46 339 q 58 326 47 328 q 73 324 68 324 q 94 326 78 324 q 114 329 111 329 q 228 308 178 336 q 303 231 279 281 q 369 283 358 257 q 380 278 372 282 q 390 272 388 274 q 395 265 392 269 q 398 256 399 261 q 394 244 397 251 q 317 188 376 210 q 299 69 328 128 m 85 56 q 204 183 200 86 q 110 145 154 182 q 85 56 65 108 m 272 821 q 182 672 233 724 q 131 664 163 653 q 96 700 100 675 q 90 773 93 725 q 86 839 88 821 q 169 781 153 854 q 217 830 204 825 q 272 821 231 835 z "},"":{"ha":1050,"x_min":-8,"x_max":1085,"o":"m 314 856 q 178 660 250 803 q 111 436 107 517 q 108 406 113 414 q 85 407 103 399 q -5 565 -1 472 q 63 743 -8 658 q 357 1026 175 885 q 418 1024 390 1051 q 479 965 436 1001 q 515 923 513 935 q 496 872 517 911 q 361 499 399 683 q 397 371 335 360 q 569 510 458 383 q 596 543 583 528 q 810 846 654 618 q 824 883 817 857 q 833 914 832 910 q 837 923 835 917 q 840 933 839 929 q 844 941 842 936 q 849 949 847 946 q 855 956 851 953 q 862 962 858 960 q 870 965 865 964 q 881 967 875 967 q 993 869 986 971 q 919 258 1006 683 q 955 263 928 260 q 998 269 982 267 q 1032 279 1014 272 q 1058 297 1050 286 q 1080 262 1075 285 q 1067 222 1085 239 q 1035 206 1053 211 q 986 198 1018 201 q 950 194 954 194 q 886 164 893 185 q 690 -112 833 -4 q 411 -72 533 -226 q 378 38 369 -22 q 420 149 386 97 q 513 233 454 200 q 631 265 571 267 l 724 265 q 797 665 772 408 q 724 574 771 633 q 650 479 678 514 q 581 399 622 444 q 500 319 539 354 q 386 290 446 279 q 279 351 326 301 q 232 454 232 400 q 249 574 232 492 q 288 744 265 656 q 314 856 310 832 m 703 197 q 518 134 592 218 q 478 -58 444 50 q 551 -17 518 -42 q 613 48 583 8 q 658 115 642 88 q 703 197 674 143 m 660 1098 q 666 1091 660 1098 q 672 1067 672 1085 q 660 1036 672 1049 q 629 1024 647 1024 q 598 1036 611 1024 q 585 1067 585 1049 q 598 1099 585 1086 q 629 1111 611 1111 q 660 1098 647 1111 m 770 1098 q 777 1091 770 1098 q 783 1067 783 1085 q 770 1036 783 1049 q 739 1024 757 1024 q 708 1036 721 1024 q 694 1067 694 1049 q 707 1099 694 1086 q 739 1111 719 1111 q 770 1098 757 1111 z "},"":{"ha":888,"x_min":-8,"x_max":924,"o":"m 897 289 q 903 208 924 236 q 754 131 865 158 q 675 68 703 114 q 477 -117 586 -61 q 222 -158 368 -174 q 141 -119 175 -154 q 71 -22 107 -83 q 76 39 56 3 q 181 128 111 103 q 299 156 236 147 q 437 168 361 164 q 554 178 513 172 q 588 203 572 181 q 626 264 610 233 q 652 330 642 294 q 644 386 663 365 q 575 404 625 407 q 471 399 496 397 q 400 427 431 399 q 357 503 369 456 q 379 604 343 557 q 469 707 400 631 q 556 803 526 769 q 589 842 586 838 q 590 847 592 847 q 424 807 504 839 q 283 724 344 775 q 194 596 221 672 q 189 432 167 519 q 292 268 207 368 q 267 240 289 246 q 222 253 246 235 q 100 376 150 313 q 21 510 50 439 q 7 653 -8 581 q 85 790 22 726 q 294 924 174 881 q 589 968 463 990 q 658 926 633 958 q 699 840 682 894 q 640 719 714 796 q 564 649 626 706 q 475 558 501 592 q 443 514 444 519 q 463 501 439 499 q 469 501 465 501 q 503 508 481 503 q 539 514 526 513 q 694 453 635 525 q 744 263 753 381 q 744 245 744 258 q 743 222 743 232 q 897 289 846 247 m 419 68 q 293 76 351 82 q 199 46 235 71 q 178 -12 164 21 q 265 -1 218 -14 q 338 26 313 13 q 419 68 364 39 m 632 1181 q 542 1032 593 1083 q 491 1024 522 1013 q 456 1060 460 1035 q 450 1133 453 1085 q 446 1199 447 1181 q 529 1140 513 1214 q 577 1190 564 1185 q 632 1181 590 1194 z "},"":{"ha":611,"x_min":-85,"x_max":664,"o":"m 135 288 q 28 376 57 346 q 25 479 -15 424 q 111 567 64 532 q 336 631 208 639 q 460 533 419 625 q 449 454 478 496 q 401 398 435 435 q 356 346 367 361 q 356 305 342 326 q 396 266 369 283 q 447 222 422 249 q 476 167 472 194 q 617 288 578 192 q 640 278 628 286 q 658 254 651 271 q 646 214 664 238 q 488 100 583 125 q 271 -239 460 -99 q 210 -276 251 -256 q 120 -303 160 -299 q 47 -292 81 -307 q -10 -257 14 -276 q -67 -200 -33 -237 q -74 -132 -85 -179 q 50 32 -39 -39 q 326 128 150 106 q 413 144 332 129 q 374 233 428 196 q 293 299 328 264 q 290 382 258 335 q 361 458 311 408 q 404 550 406 511 q 266 530 338 572 q 163 424 194 488 q 174 315 125 357 q 167 284 179 293 q 135 288 154 275 m 4 -183 q 156 -157 69 -196 q 310 -51 243 -118 q 390 79 378 15 q 139 7 236 64 q 35 -90 74 -31 q 4 -183 1 -144 m 443 856 q 353 707 404 758 q 302 699 333 688 q 267 735 271 710 q 261 808 264 760 q 257 874 258 856 q 340 815 324 889 q 388 865 375 860 q 443 856 401 869 z "},"":{"ha":290,"x_min":36,"x_max":222,"o":"m 36 863 q 126 1011 75 960 q 177 1019 146 1031 q 213 983 208 1008 q 218 910 215 958 q 222 844 221 863 q 139 903 156 829 q 91 853 104 858 q 36 863 78 847 z "},"":{"ha":290,"x_min":56,"x_max":242,"o":"m 242 1007 q 151 858 203 910 q 101 850 132 839 q 65 886 69 861 q 60 959 63 911 q 56 1025 57 1007 q 139 967 122 1040 q 188 1016 175 1011 q 242 1007 200 1021 z "},"":{"ha":308,"x_min":46,"x_max":268,"o":"m 146 839 q 125 847 142 840 q 94 861 108 854 q 68 876 79 868 q 46 925 46 892 q 91 1004 47 971 q 179 1013 135 1038 q 203 1003 186 1008 q 256 925 268 972 q 216 863 246 888 q 146 839 186 839 m 182 960 q 138 938 147 953 q 138 889 129 924 q 182 960 188 915 z "},"":{"ha":360,"x_min":29,"x_max":326,"o":"m 265 1039 q 317 1020 307 1032 q 322 969 326 1008 q 283 887 314 919 q 204 868 251 854 q 165 894 188 874 q 125 921 143 914 q 116 903 124 918 q 101 881 108 889 q 86 874 94 874 q 36 901 43 885 q 53 956 29 918 l 74 985 q 142 1013 106 1019 q 196 963 179 1007 q 207 935 200 950 q 209 932 207 933 q 211 929 211 931 q 233 953 226 939 q 265 1039 240 967 z "},"":{"ha":251,"x_min":99,"x_max":194,"o":"m 104 897 q 137 980 114 939 q 175 1017 160 1021 q 193 964 192 1011 q 183 878 194 917 q 162 838 175 843 q 132 842 149 833 q 123 843 129 842 q 115 846 117 844 q 108 849 113 847 q 103 855 104 851 q 100 864 101 858 q 100 878 99 869 q 104 897 101 886 z "},"":{"ha":251,"x_min":94,"x_max":190,"o":"m 185 951 q 152 869 175 910 q 114 832 129 828 q 96 885 97 838 q 106 971 94 932 q 127 1010 114 1006 q 157 1007 140 1015 q 166 1006 160 1007 q 174 1003 172 1004 q 181 999 176 1001 q 186 994 185 997 q 189 985 188 990 q 189 971 190 979 q 185 951 188 963 z "},"":{"ha":210,"x_min":56,"x_max":157,"o":"m 156 60 q 153 31 157 51 q 124 -42 144 -6 q 90 -76 103 -79 q 76 -50 72 -72 q 78 18 85 -4 q 56 58 56 32 q 70 94 56 81 q 106 108 85 108 q 140 94 126 108 q 156 60 154 81 z "},"":{"ha":378,"x_min":122,"x_max":328,"o":"m 238 897 q 270 980 247 939 q 308 1017 293 1021 q 326 964 325 1011 q 317 878 328 917 q 295 838 308 843 q 265 842 282 833 q 256 843 263 842 q 248 846 250 844 q 242 849 246 847 q 236 855 238 851 q 233 864 235 858 q 233 878 232 869 q 238 897 235 886 m 128 897 q 160 980 138 939 q 199 1017 183 1021 q 217 964 215 1011 q 207 878 218 917 q 185 838 199 843 q 156 842 172 833 q 147 843 153 842 q 138 846 140 844 q 132 849 136 847 q 126 855 128 851 q 124 864 125 858 q 124 878 122 869 q 128 897 125 886 z "},"":{"ha":378,"x_min":118,"x_max":324,"o":"m 208 951 q 176 869 199 910 q 138 832 153 828 q 119 885 121 838 q 129 971 118 932 q 151 1010 138 1006 q 181 1007 164 1015 q 190 1006 183 1007 q 198 1003 196 1004 q 204 999 200 1001 q 210 994 208 997 q 213 985 211 990 q 213 971 214 979 q 208 951 211 963 m 318 951 q 285 869 308 910 q 247 832 263 828 q 229 885 231 838 q 239 971 228 932 q 260 1010 247 1006 q 290 1007 274 1015 q 299 1006 293 1007 q 308 1003 306 1004 q 314 999 310 1001 q 319 994 318 997 q 322 985 321 990 q 322 971 324 979 q 318 951 321 963 z "},"":{"ha":336,"x_min":56,"x_max":281,"o":"m 156 60 q 153 31 157 51 q 124 -42 144 -6 q 90 -76 103 -79 q 76 -50 72 -72 q 78 18 85 -4 q 56 58 56 32 q 70 94 56 81 q 106 108 85 108 q 140 94 126 108 q 156 60 154 81 m 279 60 q 276 31 281 51 q 247 -42 268 -6 q 214 -76 226 -79 q 200 -50 196 -72 q 201 18 208 -4 q 179 58 179 32 q 194 94 179 81 q 229 108 208 108 q 264 94 250 108 q 279 60 278 81 z "},"":{"ha":604,"x_min":42,"x_max":544,"o":"m 142 49 q 126 13 142 28 q 92 -1 111 -1 q 56 13 71 -1 q 42 49 42 28 q 56 83 42 68 q 92 99 71 99 q 126 83 111 99 q 142 49 142 68 m 343 49 q 328 13 343 28 q 293 -1 313 -1 q 258 13 272 -1 q 243 49 243 28 q 258 83 243 68 q 293 99 272 99 q 328 83 313 99 q 343 49 343 68 m 544 49 q 529 13 544 28 q 494 -1 514 -1 q 459 13 474 -1 q 444 49 444 28 q 459 83 444 68 q 494 99 474 99 q 529 83 514 99 q 544 49 544 68 z "},"":{"ha":1081,"x_min":1,"x_max":1043,"o":"m 446 113 q 536 279 454 208 q 617 304 565 304 q 701 282 668 304 l 735 257 q 760 228 753 240 q 807 279 775 250 q 888 304 836 304 q 972 282 939 304 l 1006 257 q 1033 186 1043 228 q 928 22 1004 85 q 869 -6 893 -3 q 806 13 844 -8 q 753 47 781 28 q 719 90 726 61 q 657 22 696 54 q 598 -6 622 -3 q 535 13 574 -8 q 482 47 510 28 q 446 113 446 68 m 272 -3 q 208 43 217 26 q 214 113 200 60 q 349 477 257 286 q 589 914 442 668 q 690 899 621 968 q 710 872 708 882 q 699 842 711 863 q 469 413 588 665 q 307 28 351 160 q 299 8 303 14 q 289 -4 296 1 q 272 -3 282 -10 m 1 628 q 10 667 6 657 q 121 858 53 782 q 170 890 150 889 q 226 867 190 892 q 290 819 265 842 q 335 714 343 775 q 210 522 310 600 q 108 511 160 489 q 56 538 67 531 q 1 628 4 563 m 894 81 q 958 171 938 113 q 935 231 979 232 q 929 231 932 231 q 911 221 919 226 q 896 206 903 215 q 885 193 889 197 q 875 176 881 189 q 868 160 869 164 q 861 141 867 157 q 856 124 856 125 q 853 76 844 93 q 894 81 861 60 m 624 81 q 688 171 667 113 q 664 231 708 232 q 658 231 661 231 q 640 221 649 226 q 625 206 632 215 q 614 193 618 197 q 604 176 610 189 q 597 160 599 164 q 590 141 596 157 q 585 124 585 125 q 582 76 574 93 q 624 81 590 60 m 128 596 q 219 688 193 626 q 215 800 246 749 q 128 596 146 682 z "},"":{"ha":729,"x_min":7,"x_max":700,"o":"m 36 411 q 94 428 67 422 q 110 488 107 478 q 49 504 63 497 q 7 539 36 511 q 69 554 29 554 q 132 560 110 554 q 145 586 135 568 q 158 611 156 604 q 410 864 247 794 q 557 878 485 896 q 682 783 621 865 q 694 749 700 757 q 658 754 688 742 q 474 736 569 797 q 335 576 378 675 q 399 569 357 569 q 472 558 442 568 q 524 511 503 547 q 492 507 501 507 q 403 503 461 506 q 314 501 344 501 q 294 495 301 501 q 285 482 288 489 q 278 458 282 475 q 276 453 276 456 l 413 453 q 508 394 483 453 q 247 360 315 367 q 246 160 222 274 q 295 76 263 103 q 363 51 328 50 q 442 70 399 51 q 517 110 486 89 q 581 158 549 132 q 583 47 660 114 q 440 -17 521 -8 q 290 19 360 -25 q 147 162 203 76 q 86 350 92 247 q 59 376 82 357 q 36 411 36 396 z "},"":{"ha":928,"x_min":78,"x_max":800,"o":"m 421 986 q 349 960 389 963 q 296 971 310 957 l 294 971 q 274 671 256 822 q 217 700 231 658 q 213 908 196 774 q 171 882 185 889 q 113 883 132 863 q 93 960 78 918 q 96 965 93 963 q 180 1042 121 1018 q 292 1042 239 1065 q 426 1044 358 1011 l 429 1047 q 440 1056 436 1056 q 453 1050 443 1057 l 490 1028 q 503 1015 501 1019 q 499 999 504 1011 q 465 868 475 949 q 465 824 463 847 l 472 836 q 488 865 476 843 q 506 897 499 886 q 524 921 517 914 q 550 931 536 936 q 572 903 574 919 q 565 839 567 856 q 567 819 561 818 q 578 835 571 819 q 595 870 583 844 q 613 908 607 896 q 631 941 619 919 q 652 976 643 963 q 674 1006 661 990 q 701 1036 688 1022 q 730 1056 721 1056 q 763 1040 739 1057 q 774 1033 764 1040 q 785 1004 789 1022 q 775 971 779 982 l 732 851 q 704 736 708 782 q 713 697 701 697 q 726 710 719 700 q 778 807 740 732 q 784 806 779 807 q 790 803 789 804 q 796 801 792 803 q 800 797 800 799 q 800 790 800 794 q 757 699 776 728 q 732 676 743 679 q 700 679 721 672 q 656 739 657 693 q 668 846 651 786 q 681 890 671 854 q 700 943 692 925 q 703 965 713 971 q 642 881 683 953 q 638 874 639 876 q 606 814 628 853 l 596 796 q 571 779 581 778 q 538 804 543 788 q 535 867 531 832 q 535 883 536 875 q 528 874 529 878 q 469 711 483 797 q 461 693 467 696 q 439 693 456 690 q 400 733 410 697 q 403 919 381 821 q 412 952 404 922 q 421 986 419 982 m 118 904 q 197 938 146 904 q 247 1006 235 963 q 163 976 206 1010 q 118 904 119 943 z "}}}
